<ttFont>
<head>
    <!-- Most of this table will be recalculated by the compiler -->
    <tableVersion value="1.0"/>
    <fontRevision value="0.06099"/>
    <checkSumAdjustment value="0xf6138bb"/>
    <magicNumber value="0x5f0f3cf5"/>
    <flags value="00100000 00001111"/>
    <unitsPerEm value="1024"/>
    <created value="Thu Oct 28 10:37:42 2021"/>
    <modified value="Thu Nov 11 11:47:15 2021"/>
    <xMin value="-159"/>
    <yMin value="-202"/>
    <xMax value="898"/>
    <yMax value="969"/>
    <macStyle value="00000000 00000010"/>
    <lowestRecPPEM value="7"/>
    <fontDirectionHint value="2"/>
    <indexToLocFormat value="0"/>
    <glyphDataFormat value="0"/>
  </head>
    <TTGlyph name=".notdef" xMin="-17" yMin="-30" xMax="503" yMax="670">
      <contour>
        <pt x="123" y="670" on="1" overlap="1"/>
        <pt x="503" y="670" on="1"/>
        <pt x="363" y="-30" on="1"/>
        <pt x="-17" y="-30" on="1"/>
      </contour>
      <contour>
        <pt x="130" y="16" on="0"/>
        <pt x="159" y="-10" on="0"/>
        <pt x="181" y="-10" on="1"/>
        <pt x="204" y="-10" on="0"/>
        <pt x="239" y="17" on="0"/>
        <pt x="245" y="42" on="1"/>
        <pt x="247" y="52" on="0"/>
        <pt x="247" y="57" on="1"/>
        <pt x="247" y="79" on="0"/>
        <pt x="218" y="104" on="0"/>
        <pt x="196" y="104" on="1"/>
        <pt x="169" y="104" on="0"/>
        <pt x="130" y="69" on="0"/>
        <pt x="130" y="38" on="1"/>
      </contour>
      <contour>
        <pt x="294" y="588" on="0"/>
        <pt x="378" y="545" on="0"/>
        <pt x="378" y="513" on="1"/>
        <pt x="378" y="507" on="0"/>
        <pt x="376" y="495" on="1"/>
        <pt x="371" y="466" on="0"/>
        <pt x="341" y="428" on="0"/>
        <pt x="309" y="397" on="1"/>
        <pt x="278" y="369" on="0"/>
        <pt x="237" y="321" on="0"/>
        <pt x="199" y="245" on="0"/>
        <pt x="187" y="192" on="1"/>
        <pt x="243" y="192" on="1"/>
        <pt x="257" y="257" on="0"/>
        <pt x="311" y="332" on="0"/>
        <pt x="355" y="371" on="1"/>
        <pt x="391" y="404" on="0"/>
        <pt x="428" y="452" on="0"/>
        <pt x="435" y="489" on="1"/>
        <pt x="438" y="506" on="0"/>
        <pt x="438" y="521" on="1"/>
        <pt x="438" y="579" on="0"/>
        <pt x="321" y="641" on="0"/>
        <pt x="184" y="645" on="1"/>
        <pt x="176" y="594" on="1"/>
      </contour>
    </TTGlyph>
    <TTGlyph name="A" xMin="-7" yMin="0" xMax="381" yMax="643">
      <contour>
        <pt x="47" y="188" on="0" overlap="1"/>
        <pt x="194" y="521" on="0"/>
        <pt x="280" y="643" on="1"/>
        <pt x="331" y="643" on="1"/>
        <pt x="381" y="487" on="0"/>
        <pt x="381" y="260" on="1"/>
        <pt x="381" y="142" on="0"/>
        <pt x="365" y="0" on="1"/>
        <pt x="305" y="0" on="1"/>
        <pt x="316" y="110" on="0"/>
        <pt x="319" y="198" on="1"/>
        <pt x="120" y="198" on="1"/>
        <pt x="85" y="104" on="0"/>
        <pt x="55" y="0" on="1"/>
        <pt x="-7" y="0" on="1"/>
      </contour>
      <contour>
        <pt x="320" y="250" on="1"/>
        <pt x="320" y="284" on="1"/>
        <pt x="320" y="448" on="0"/>
        <pt x="294" y="567" on="1"/>
        <pt x="211" y="435" on="0"/>
        <pt x="140" y="250" on="1"/>
      </contour>
    </TTGlyph>
    <TTGlyph name="A.hex" xMin="-7" yMin="0" xMax="374" yMax="579">
      <contour>
        <pt x="43" y="169" on="0" overlap="1"/>
        <pt x="184" y="469" on="0"/>
        <pt x="268" y="579" on="1"/>
        <pt x="318" y="579" on="1"/>
        <pt x="374" y="426" on="0"/>
        <pt x="374" y="196" on="1"/>
        <pt x="374" y="96" on="0"/>
        <pt x="364" y="0" on="1"/>
        <pt x="305" y="0" on="1"/>
        <pt x="311" y="68" on="0"/>
        <pt x="314" y="134" on="1"/>
        <pt x="100" y="134" on="1"/>
        <pt x="75" y="62" on="0"/>
        <pt x="56" y="0" on="1"/>
        <pt x="-7" y="0" on="1"/>
      </contour>
      <contour>
        <pt x="315" y="186" on="1"/>
        <pt x="316" y="372" on="0"/>
        <pt x="282" y="505" on="1"/>
        <pt x="192" y="370" on="0"/>
        <pt x="120" y="186" on="1"/>
      </contour>
    </TTGlyph>
    <TTGlyph name="A.sups" xMin="147" yMin="320" xMax="403" yMax="640">
      <contour>
        <pt x="403" y="640" on="1" overlap="1"/>
        <pt x="390" y="576" on="1"/>
        <pt x="378" y="512" on="1"/>
        <pt x="339" y="320" on="1"/>
        <pt x="275" y="320" on="1"/>
        <pt x="301" y="448" on="1"/>
        <pt x="237" y="448" on="1"/>
        <pt x="211" y="320" on="1"/>
        <pt x="147" y="320" on="1"/>
        <pt x="186" y="512" on="1"/>
        <pt x="198" y="576" on="1"/>
        <pt x="211" y="640" on="1"/>
      </contour>
      <contour>
        <pt x="314" y="512" on="1"/>
        <pt x="326" y="576" on="1"/>
        <pt x="262" y="576" on="1"/>
        <pt x="250" y="512" on="1"/>
      </contour>
    </TTGlyph>
    <TTGlyph name="AE" xMin="-60" yMin="0" xMax="528" yMax="640">
      <contour>
        <pt x="420" y="52" on="1" overlap="1"/>
        <pt x="410" y="0" on="1"/>
        <pt x="158" y="0" on="1"/>
        <pt x="197" y="198" on="1"/>
        <pt x="67" y="198" on="1"/>
        <pt x="30" y="97" on="0"/>
        <pt x="2" y="0" on="1"/>
        <pt x="-60" y="0" on="1"/>
        <pt x="-6" y="187" on="0"/>
        <pt x="141" y="520" on="0"/>
        <pt x="225" y="640" on="1"/>
        <pt x="528" y="640" on="1"/>
        <pt x="517" y="588" on="1"/>
        <pt x="333" y="588" on="1"/>
        <pt x="279" y="314" on="1"/>
        <pt x="408" y="314" on="1"/>
        <pt x="398" y="262" on="1"/>
        <pt x="268" y="262" on="1"/>
        <pt x="227" y="52" on="1"/>
      </contour>
      <contour>
        <pt x="208" y="250" on="1"/>
        <pt x="275" y="588" on="1"/>
        <pt x="255" y="588" on="1"/>
        <pt x="165" y="449" on="0"/>
        <pt x="87" y="250" on="1"/>
      </contour>
    </TTGlyph>
    <TTGlyph name="AEacute" xMin="-60" yMin="0" xMax="528" yMax="841">
      <component glyphName="AE" x="0" y="0" flags="0x400"/>
      <component glyphName="acutecomb.case" x="41" y="0" flags="0x400"/>
    </TTGlyph>
    <TTGlyph name="Aacute" xMin="-7" yMin="0" xMax="451" yMax="841">
      <component glyphName="A" x="0" y="0" flags="0x400"/>
      <component glyphName="acutecomb.case" x="0" y="0" flags="0x400"/>
    </TTGlyph>
    <TTGlyph name="Abreve" xMin="-7" yMin="0" xMax="471" yMax="833">
      <component glyphName="A" x="0" y="0" flags="0x400"/>
      <component glyphName="uni0306.case" x="0" y="0" flags="0x400"/>
    </TTGlyph>
    <TTGlyph name="Acircumflex" xMin="-7" yMin="0" xMax="450" yMax="841">
      <component glyphName="A" x="0" y="0" flags="0x400"/>
      <component glyphName="uni0302.case" x="0" y="0" flags="0x400"/>
    </TTGlyph>
    <TTGlyph name="Adieresis" xMin="-7" yMin="0" xMax="472" yMax="813">
      <component glyphName="A" x="0" y="0" flags="0x400"/>
      <component glyphName="uni0308.case" x="0" y="0" flags="0x400"/>
    </TTGlyph>
    <TTGlyph name="Agrave" xMin="-7" yMin="0" xMax="381" yMax="837">
      <component glyphName="A" x="0" y="0" flags="0x400"/>
      <component glyphName="gravecomb.case" x="0" y="0" flags="0x400"/>
    </TTGlyph>
    <TTGlyph name="Alpha" xMin="-7" yMin="0" xMax="381" yMax="643">
      <component glyphName="A" x="0" y="0" flags="0x400"/>
    </TTGlyph>
    <TTGlyph name="Alphatonos" xMin="-7" yMin="0" xMax="381" yMax="704">
      <component glyphName="A" x="0" y="0" flags="0x400"/>
      <component glyphName="tonos" x="-192" y="0" flags="0x400"/>
    </TTGlyph>
    <TTGlyph name="Amacron" xMin="-7" yMin="0" xMax="450" yMax="772">
      <component glyphName="A" x="0" y="0" flags="0x400"/>
      <component glyphName="uni0304.case" x="0" y="0" flags="0x400"/>
    </TTGlyph>
    <TTGlyph name="Aogonek" xMin="-7" yMin="-197" xMax="381" yMax="643">
      <component glyphName="A" x="0" y="0" flags="0x400"/>
      <component glyphName="uni0328" x="30" y="0" flags="0x400"/>
    </TTGlyph>
    <TTGlyph name="Aring" xMin="-7" yMin="0" xMax="426" yMax="819">
      <component glyphName="A" x="0" y="0" flags="0x400"/>
      <component glyphName="uni030A.case" x="-13" y="-64" flags="0x404"/>
    </TTGlyph>
    <TTGlyph name="Aringacute" xMin="-7" yMin="0" xMax="450" yMax="840">
      <component glyphName="A.hex" x="0" y="0" flags="0x400"/>
      <component glyphName="uni030A.case" x="-32" y="-158" flags="0x404"/>
      <component glyphName="acutecomb.case" x="-1" y="-1" flags="0x404"/>
    </TTGlyph>
    <TTGlyph name="Atilde" xMin="-7" yMin="0" xMax="493" yMax="837">
      <component glyphName="A" x="0" y="0" flags="0x400"/>
      <component glyphName="tildecomb.case" x="0" y="0" flags="0x400"/>
    </TTGlyph>
    <TTGlyph name="B" xMin="19" yMin="0" xMax="441" yMax="640">
      <contour>
        <pt x="147" y="640" on="1" overlap="1"/>
        <pt x="272" y="640" on="1"/>
        <pt x="353" y="640" on="0"/>
        <pt x="441" y="576" on="0"/>
        <pt x="441" y="514" on="1"/>
        <pt x="441" y="497" on="0"/>
        <pt x="436" y="472" on="1"/>
        <pt x="418" y="383" on="0"/>
        <pt x="313" y="309" on="1"/>
        <pt x="353" y="297" on="0"/>
        <pt x="399" y="240" on="0"/>
        <pt x="399" y="197" on="1"/>
        <pt x="399" y="178" on="0"/>
        <pt x="395" y="161" on="1"/>
        <pt x="380" y="83" on="0"/>
        <pt x="258" y="0" on="0"/>
        <pt x="168" y="0" on="1"/>
        <pt x="19" y="0" on="1"/>
      </contour>
      <contour>
        <pt x="169" y="52" on="1"/>
        <pt x="243" y="52" on="0"/>
        <pt x="324" y="112" on="0"/>
        <pt x="335" y="171" on="1"/>
        <pt x="338" y="186" on="0"/>
        <pt x="338" y="199" on="1"/>
        <pt x="338" y="237" on="0"/>
        <pt x="282" y="278" on="0"/>
        <pt x="219" y="278" on="1"/>
        <pt x="133" y="278" on="1"/>
        <pt x="87" y="52" on="1"/>
      </contour>
      <contour>
        <pt x="262" y="330" on="1"/>
        <pt x="315" y="361" on="0"/>
        <pt x="378" y="465" on="0"/>
        <pt x="378" y="513" on="1"/>
        <pt x="378" y="551" on="0"/>
        <pt x="323" y="588" on="0"/>
        <pt x="262" y="588" on="1"/>
        <pt x="194" y="588" on="1"/>
        <pt x="142" y="330" on="1"/>
      </contour>
    </TTGlyph>
    <TTGlyph name="B.hex" xMin="19" yMin="0" xMax="430" yMax="576">
      <contour>
        <pt x="134" y="576" on="1" overlap="1"/>
        <pt x="259" y="576" on="1"/>
        <pt x="341" y="576" on="0"/>
        <pt x="430" y="517" on="0"/>
        <pt x="430" y="459" on="1"/>
        <pt x="430" y="440" on="0"/>
        <pt x="426" y="424" on="1"/>
        <pt x="412" y="344" on="0"/>
        <pt x="308" y="277" on="1"/>
        <pt x="349" y="265" on="0"/>
        <pt x="395" y="213" on="0"/>
        <pt x="395" y="174" on="1"/>
        <pt x="395" y="160" on="0"/>
        <pt x="392" y="145" on="1"/>
        <pt x="378" y="75" on="0"/>
        <pt x="259" y="0" on="0"/>
        <pt x="168" y="0" on="1"/>
        <pt x="19" y="0" on="1"/>
      </contour>
      <contour>
        <pt x="169" y="52" on="1"/>
        <pt x="242" y="52" on="0"/>
        <pt x="321" y="104" on="0"/>
        <pt x="331" y="155" on="1"/>
        <pt x="334" y="167" on="0"/>
        <pt x="334" y="178" on="1"/>
        <pt x="334" y="246" on="0"/>
        <pt x="213" y="246" on="1"/>
        <pt x="126" y="246" on="1"/>
        <pt x="87" y="52" on="1"/>
      </contour>
      <contour>
        <pt x="256" y="298" on="1"/>
        <pt x="306" y="326" on="0"/>
        <pt x="367" y="416" on="0"/>
        <pt x="367" y="458" on="1"/>
        <pt x="367" y="491" on="0"/>
        <pt x="311" y="524" on="0"/>
        <pt x="249" y="524" on="1"/>
        <pt x="181" y="524" on="1"/>
        <pt x="136" y="298" on="1"/>
      </contour>
    </TTGlyph>
    <TTGlyph name="B.sups" xMin="147" yMin="320" xMax="403" yMax="640">
      <contour>
        <pt x="403" y="640" on="1" overlap="1"/>
        <pt x="390" y="576" on="1"/>
        <pt x="378" y="512" on="1"/>
        <pt x="314" y="512" on="1"/>
        <pt x="326" y="576" on="1"/>
        <pt x="262" y="576" on="1"/>
        <pt x="250" y="512" on="1"/>
        <pt x="314" y="512" on="1"/>
        <pt x="301" y="448" on="1"/>
        <pt x="237" y="448" on="1"/>
        <pt x="224" y="384" on="1"/>
        <pt x="288" y="384" on="1"/>
        <pt x="301" y="448" on="1"/>
        <pt x="365" y="448" on="1"/>
        <pt x="339" y="320" on="1"/>
        <pt x="147" y="320" on="1"/>
        <pt x="186" y="512" on="1"/>
        <pt x="198" y="576" on="1"/>
        <pt x="211" y="640" on="1"/>
      </contour>
    </TTGlyph>
    <TTGlyph name="Beta" xMin="19" yMin="0" xMax="441" yMax="640">
      <component glyphName="B" x="0" y="0" flags="0x400"/>
    </TTGlyph>
    <TTGlyph name="C" xMin="48" yMin="-9" xMax="424" yMax="647">
      <contour>
        <pt x="122" y="-9" on="0" overlap="1"/>
        <pt x="48" y="69" on="0"/>
        <pt x="48" y="157" on="1"/>
        <pt x="48" y="221" on="0"/>
        <pt x="68" y="324" on="1"/>
        <pt x="92" y="444" on="0"/>
        <pt x="158" y="584" on="0"/>
        <pt x="255" y="647" on="0"/>
        <pt x="326" y="647" on="1"/>
        <pt x="381" y="647" on="0"/>
        <pt x="424" y="635" on="1"/>
        <pt x="409" y="587" on="1"/>
        <pt x="370" y="595" on="0"/>
        <pt x="327" y="595" on="1"/>
        <pt x="268" y="595" on="0"/>
        <pt x="196" y="539" on="0"/>
        <pt x="152" y="421" on="0"/>
        <pt x="130" y="314" on="1"/>
        <pt x="108" y="206" on="0"/>
        <pt x="108" y="149" on="1"/>
        <pt x="108" y="93" on="0"/>
        <pt x="154" y="43" on="0"/>
        <pt x="210" y="43" on="1"/>
        <pt x="250" y="43" on="0"/>
        <pt x="303" y="54" on="1"/>
        <pt x="306" y="4" on="1"/>
        <pt x="252" y="-9" on="0"/>
        <pt x="202" y="-9" on="1"/>
      </contour>
    </TTGlyph>
    <TTGlyph name="C.hex" xMin="61" yMin="-9" xMax="442" yMax="583">
      <contour>
        <pt x="142" y="-9" on="0" overlap="1"/>
        <pt x="61" y="68" on="0"/>
        <pt x="61" y="155" on="1"/>
        <pt x="61" y="213" on="0"/>
        <pt x="77" y="292" on="1"/>
        <pt x="99" y="400" on="0"/>
        <pt x="164" y="526" on="0"/>
        <pt x="264" y="583" on="0"/>
        <pt x="340" y="583" on="1"/>
        <pt x="397" y="583" on="0"/>
        <pt x="442" y="571" on="1"/>
        <pt x="427" y="523" on="1"/>
        <pt x="387" y="531" on="0"/>
        <pt x="342" y="531" on="1"/>
        <pt x="277" y="531" on="0"/>
        <pt x="202" y="481" on="0"/>
        <pt x="158" y="377" on="0"/>
        <pt x="139" y="282" on="1"/>
        <pt x="121" y="192" on="0"/>
        <pt x="121" y="148" on="1"/>
        <pt x="121" y="92" on="0"/>
        <pt x="174" y="43" on="0"/>
        <pt x="238" y="43" on="1"/>
        <pt x="278" y="43" on="0"/>
        <pt x="333" y="54" on="1"/>
        <pt x="337" y="4" on="1"/>
        <pt x="282" y="-9" on="0"/>
        <pt x="230" y="-9" on="1"/>
      </contour>
    </TTGlyph>
    <TTGlyph name="C.pl" xMin="107" yMin="380" xMax="360" yMax="708">
      <contour>
        <pt x="166" y="380" on="0" overlap="1"/>
        <pt x="107" y="440" on="0"/>
        <pt x="107" y="497" on="1"/>
        <pt x="107" y="522" on="0"/>
        <pt x="113" y="550" on="1"/>
        <pt x="129" y="627" on="0"/>
        <pt x="214" y="708" on="0"/>
        <pt x="276" y="708" on="1"/>
        <pt x="318" y="708" on="0"/>
        <pt x="360" y="697" on="1"/>
        <pt x="345" y="647" on="1"/>
        <pt x="305" y="654" on="0"/>
        <pt x="279" y="654" on="1"/>
        <pt x="240" y="654" on="0"/>
        <pt x="192" y="604" on="0"/>
        <pt x="179" y="538" on="1"/>
        <pt x="173" y="507" on="0"/>
        <pt x="173" y="486" on="1"/>
        <pt x="173" y="456" on="0"/>
        <pt x="198" y="434" on="0"/>
        <pt x="225" y="434" on="1"/>
        <pt x="256" y="434" on="0"/>
        <pt x="298" y="441" on="1"/>
        <pt x="303" y="389" on="1"/>
        <pt x="266" y="380" on="0"/>
        <pt x="220" y="380" on="1"/>
      </contour>
    </TTGlyph>
    <TTGlyph name="C.sups" xMin="173" yMin="316" xMax="406" yMax="644">
      <contour>
        <pt x="308" y="370" on="0" overlap="1"/>
        <pt x="345" y="377" on="1"/>
        <pt x="348" y="325" on="1"/>
        <pt x="315" y="316" on="0"/>
        <pt x="274" y="316" on="1"/>
        <pt x="225" y="316" on="0"/>
        <pt x="173" y="373" on="0"/>
        <pt x="173" y="427" on="1"/>
        <pt x="173" y="454" on="0"/>
        <pt x="179" y="485" on="1"/>
        <pt x="195" y="562" on="0"/>
        <pt x="274" y="644" on="0"/>
        <pt x="332" y="644" on="1"/>
        <pt x="369" y="644" on="0"/>
        <pt x="406" y="633" on="1"/>
        <pt x="390" y="583" on="1"/>
        <pt x="355" y="590" on="0"/>
        <pt x="333" y="590" on="1"/>
        <pt x="299" y="590" on="0"/>
        <pt x="256" y="543" on="0"/>
        <pt x="243" y="475" on="1"/>
        <pt x="236" y="441" on="0"/>
        <pt x="236" y="418" on="1"/>
        <pt x="236" y="390" on="0"/>
        <pt x="258" y="370" on="0"/>
        <pt x="281" y="370" on="1"/>
      </contour>
    </TTGlyph>
    <TTGlyph name="Cacute" xMin="48" yMin="-9" xMax="459" yMax="841">
      <component glyphName="C" x="0" y="0" flags="0x400"/>
      <component glyphName="acutecomb.case" x="8" y="0" flags="0x400"/>
    </TTGlyph>
    <TTGlyph name="Ccaron" xMin="48" yMin="-9" xMax="487" yMax="839">
      <component glyphName="C" x="0" y="0" flags="0x400"/>
      <component glyphName="uni030C.case" x="8" y="0" flags="0x400"/>
    </TTGlyph>
    <TTGlyph name="Ccedilla" xMin="21" yMin="-192" xMax="424" yMax="647">
      <component glyphName="C" x="0" y="0" flags="0x400"/>
      <component glyphName="uni0327" x="-25" y="0" flags="0x400"/>
    </TTGlyph>
    <TTGlyph name="Ccircumflex" xMin="48" yMin="-9" xMax="458" yMax="841">
      <component glyphName="C" x="0" y="0" flags="0x400"/>
      <component glyphName="uni0302.case" x="8" y="0" flags="0x400"/>
    </TTGlyph>
    <TTGlyph name="Cdotaccent" xMin="48" yMin="-9" xMax="424" yMax="815">
      <component glyphName="C" x="0" y="0" flags="0x400"/>
      <component glyphName="uni0307.case" x="8" y="0" flags="0x400"/>
    </TTGlyph>
    <TTGlyph name="Chi" xMin="5" yMin="0" xMax="472" yMax="640">
      <component glyphName="X" x="0" y="0" flags="0x400"/>
    </TTGlyph>
    <TTGlyph name="D" xMin="19" yMin="0" xMax="458" yMax="640">
      <contour>
        <pt x="377" y="640" on="0" overlap="1"/>
        <pt x="458" y="555" on="0"/>
        <pt x="458" y="463" on="1"/>
        <pt x="458" y="401" on="0"/>
        <pt x="440" y="312" on="1"/>
        <pt x="417" y="197" on="0"/>
        <pt x="349" y="61" on="0"/>
        <pt x="246" y="0" on="0"/>
        <pt x="170" y="0" on="1"/>
        <pt x="19" y="0" on="1"/>
        <pt x="147" y="640" on="1"/>
        <pt x="292" y="640" on="1"/>
      </contour>
      <contour>
        <pt x="169" y="52" on="1"/>
        <pt x="236" y="52" on="0"/>
        <pt x="314" y="109" on="0"/>
        <pt x="358" y="220" on="0"/>
        <pt x="378" y="322" on="1"/>
        <pt x="399" y="425" on="0"/>
        <pt x="399" y="477" on="1"/>
        <pt x="399" y="535" on="0"/>
        <pt x="345" y="588" on="0"/>
        <pt x="280" y="588" on="1"/>
        <pt x="194" y="588" on="1"/>
        <pt x="87" y="52" on="1"/>
      </contour>
    </TTGlyph>
    <TTGlyph name="D.hex" xMin="19" yMin="0" xMax="417" yMax="576">
      <contour>
        <pt x="335" y="576" on="0" overlap="1"/>
        <pt x="417" y="495" on="0"/>
        <pt x="417" y="407" on="1"/>
        <pt x="417" y="354" on="0"/>
        <pt x="402" y="280" on="1"/>
        <pt x="381" y="177" on="0"/>
        <pt x="315" y="55" on="0"/>
        <pt x="214" y="0" on="0"/>
        <pt x="138" y="0" on="1"/>
        <pt x="19" y="0" on="1"/>
        <pt x="134" y="576" on="1"/>
        <pt x="247" y="576" on="1"/>
      </contour>
      <contour>
        <pt x="137" y="52" on="1"/>
        <pt x="204" y="52" on="0"/>
        <pt x="280" y="102" on="0"/>
        <pt x="322" y="201" on="0"/>
        <pt x="340" y="290" on="1"/>
        <pt x="357" y="378" on="0"/>
        <pt x="357" y="419" on="1"/>
        <pt x="357" y="474" on="0"/>
        <pt x="302" y="524" on="0"/>
        <pt x="235" y="524" on="1"/>
        <pt x="181" y="524" on="1"/>
        <pt x="87" y="52" on="1"/>
      </contour>
    </TTGlyph>
    <TTGlyph name="D.sups" xMin="147" yMin="320" xMax="390" yMax="640">
      <contour>
        <pt x="339" y="640" on="1" overlap="1"/>
        <pt x="326" y="576" on="1"/>
        <pt x="262" y="576" on="1"/>
        <pt x="250" y="512" on="1"/>
        <pt x="224" y="384" on="1"/>
        <pt x="288" y="384" on="1"/>
        <pt x="275" y="320" on="1"/>
        <pt x="147" y="320" on="1"/>
        <pt x="186" y="512" on="1"/>
        <pt x="198" y="576" on="1"/>
        <pt x="211" y="640" on="1"/>
      </contour>
      <contour>
        <pt x="314" y="512" on="1"/>
        <pt x="326" y="576" on="1"/>
        <pt x="390" y="576" on="1"/>
        <pt x="378" y="512" on="1"/>
        <pt x="352" y="384" on="1"/>
        <pt x="288" y="384" on="1"/>
      </contour>
    </TTGlyph>
    <TTGlyph name="Dcaron" xMin="19" yMin="0" xMax="483" yMax="839">
      <component glyphName="D" x="0" y="0" flags="0x400"/>
      <component glyphName="uni030C.case" x="4" y="0" flags="0x400"/>
    </TTGlyph>
    <TTGlyph name="Dcroat" xMin="16" yMin="0" xMax="458" yMax="640">
      <component glyphName="Eth" x="0" y="0" flags="0x400"/>
    </TTGlyph>
    <TTGlyph name="E" xMin="19" yMin="0" xMax="450" yMax="640">
      <contour>
        <pt x="147" y="640" on="1" overlap="1"/>
        <pt x="450" y="640" on="1"/>
        <pt x="439" y="588" on="1"/>
        <pt x="194" y="588" on="1"/>
        <pt x="139" y="314" on="1"/>
        <pt x="331" y="314" on="1"/>
        <pt x="320" y="262" on="1"/>
        <pt x="129" y="262" on="1"/>
        <pt x="87" y="52" on="1"/>
        <pt x="343" y="52" on="1"/>
        <pt x="332" y="0" on="1"/>
        <pt x="19" y="0" on="1"/>
      </contour>
    </TTGlyph>
    <TTGlyph name="E.hex" xMin="19" yMin="0" xMax="437" yMax="576">
      <contour>
        <pt x="134" y="576" on="1" overlap="1"/>
        <pt x="437" y="576" on="1"/>
        <pt x="426" y="524" on="1"/>
        <pt x="181" y="524" on="1"/>
        <pt x="136" y="298" on="1"/>
        <pt x="328" y="298" on="1"/>
        <pt x="317" y="246" on="1"/>
        <pt x="126" y="246" on="1"/>
        <pt x="87" y="52" on="1"/>
        <pt x="343" y="52" on="1"/>
        <pt x="332" y="0" on="1"/>
        <pt x="19" y="0" on="1"/>
      </contour>
    </TTGlyph>
    <TTGlyph name="E.sups" xMin="147" yMin="320" xMax="397" yMax="640">
      <contour>
        <pt x="211" y="640" on="1" overlap="1"/>
        <pt x="397" y="640" on="1"/>
        <pt x="386" y="585" on="1"/>
        <pt x="264" y="585" on="1"/>
        <pt x="249" y="508" on="1"/>
        <pt x="359" y="508" on="1"/>
        <pt x="348" y="453" on="1"/>
        <pt x="238" y="453" on="1"/>
        <pt x="222" y="375" on="1"/>
        <pt x="348" y="375" on="1"/>
        <pt x="337" y="320" on="1"/>
        <pt x="147" y="320" on="1"/>
      </contour>
    </TTGlyph>
    <TTGlyph name="Eacute" xMin="19" yMin="0" xMax="450" yMax="841">
      <component glyphName="E" x="0" y="0" flags="0x400"/>
      <component glyphName="acutecomb.case" x="-4" y="0" flags="0x400"/>
    </TTGlyph>
    <TTGlyph name="Ebreve" xMin="19" yMin="0" xMax="467" yMax="833">
      <component glyphName="E" x="0" y="0" flags="0x400"/>
      <component glyphName="uni0306.case" x="-4" y="0" flags="0x400"/>
    </TTGlyph>
    <TTGlyph name="Ecaron" xMin="19" yMin="0" xMax="475" yMax="839">
      <component glyphName="E" x="0" y="0" flags="0x400"/>
      <component glyphName="uni030C.case" x="-4" y="0" flags="0x400"/>
    </TTGlyph>
    <TTGlyph name="Ecircumflex" xMin="19" yMin="0" xMax="450" yMax="841">
      <component glyphName="E" x="0" y="0" flags="0x400"/>
      <component glyphName="uni0302.case" x="-4" y="0" flags="0x400"/>
    </TTGlyph>
    <TTGlyph name="Edieresis" xMin="19" yMin="0" xMax="468" yMax="813">
      <component glyphName="E" x="0" y="0" flags="0x400"/>
      <component glyphName="uni0308.case" x="-4" y="0" flags="0x400"/>
    </TTGlyph>
    <TTGlyph name="Edotaccent" xMin="19" yMin="0" xMax="450" yMax="815">
      <component glyphName="E" x="0" y="0" flags="0x400"/>
      <component glyphName="uni0307.case" x="-4" y="0" flags="0x400"/>
    </TTGlyph>
    <TTGlyph name="Egrave" xMin="19" yMin="0" xMax="450" yMax="837">
      <component glyphName="E" x="0" y="0" flags="0x400"/>
      <component glyphName="gravecomb.case" x="-4" y="0" flags="0x400"/>
    </TTGlyph>
    <TTGlyph name="Emacron" xMin="19" yMin="0" xMax="450" yMax="772">
      <component glyphName="E" x="0" y="0" flags="0x400"/>
      <component glyphName="uni0304.case" x="-4" y="0" flags="0x400"/>
    </TTGlyph>
    <TTGlyph name="Eng" xMin="19" yMin="-197" xMax="468" yMax="640">
      <contour>
        <pt x="324" y="-80" on="0" overlap="1"/>
        <pt x="257" y="-168" on="0"/>
        <pt x="187" y="-197" on="1"/>
        <pt x="169" y="-147" on="1"/>
        <pt x="218" y="-128" on="0"/>
        <pt x="268" y="-67" on="0"/>
        <pt x="280" y="-11" on="1"/>
        <pt x="283" y="6" on="1"/>
        <pt x="207" y="385" on="1"/>
        <pt x="186" y="542" on="1"/>
        <pt x="77" y="0" on="1"/>
        <pt x="19" y="0" on="1"/>
        <pt x="147" y="640" on="1"/>
        <pt x="217" y="640" on="1"/>
        <pt x="293" y="260" on="1"/>
        <pt x="309" y="135" on="1"/>
        <pt x="410" y="640" on="1"/>
        <pt x="468" y="640" on="1"/>
        <pt x="339" y="-7" on="1"/>
      </contour>
    </TTGlyph>
    <TTGlyph name="Eogonek" xMin="19" yMin="-197" xMax="450" yMax="640">
      <component glyphName="E" x="0" y="0" flags="0x400"/>
      <component glyphName="uni0328" x="-2" y="0" flags="0x400"/>
    </TTGlyph>
    <TTGlyph name="Epsilon" xMin="19" yMin="0" xMax="450" yMax="640">
      <component glyphName="E" x="0" y="0" flags="0x400"/>
    </TTGlyph>
    <TTGlyph name="Epsilontonos" xMin="3" yMin="0" xMax="450" yMax="704">
      <component glyphName="E" x="0" y="0" flags="0x400"/>
      <component glyphName="tonos" x="-256" y="0" flags="0x400"/>
    </TTGlyph>
    <TTGlyph name="Eta" xMin="19" yMin="0" xMax="500" yMax="640">
      <component glyphName="H" x="0" y="0" flags="0x400"/>
    </TTGlyph>
    <TTGlyph name="Etatonos" xMin="3" yMin="0" xMax="500" yMax="704">
      <component glyphName="H" x="0" y="0" flags="0x400"/>
      <component glyphName="tonos" x="-256" y="0" flags="0x400"/>
    </TTGlyph>
    <TTGlyph name="Eth" xMin="16" yMin="0" xMax="458" yMax="640">
      <contour>
        <pt x="82" y="314" on="1" overlap="1"/>
        <pt x="147" y="640" on="1"/>
        <pt x="292" y="640" on="1"/>
        <pt x="377" y="640" on="0"/>
        <pt x="458" y="555" on="0"/>
        <pt x="458" y="463" on="1"/>
        <pt x="458" y="401" on="0"/>
        <pt x="440" y="312" on="1"/>
        <pt x="417" y="197" on="0"/>
        <pt x="349" y="61" on="0"/>
        <pt x="246" y="0" on="0"/>
        <pt x="170" y="0" on="1"/>
        <pt x="19" y="0" on="1"/>
        <pt x="71" y="262" on="1"/>
        <pt x="16" y="262" on="1"/>
        <pt x="26" y="314" on="1"/>
      </contour>
      <contour>
        <pt x="169" y="52" on="1"/>
        <pt x="236" y="52" on="0"/>
        <pt x="314" y="109" on="0"/>
        <pt x="358" y="220" on="0"/>
        <pt x="378" y="322" on="1"/>
        <pt x="399" y="425" on="0"/>
        <pt x="399" y="477" on="1"/>
        <pt x="399" y="535" on="0"/>
        <pt x="345" y="588" on="0"/>
        <pt x="280" y="588" on="1"/>
        <pt x="194" y="588" on="1"/>
        <pt x="139" y="314" on="1"/>
        <pt x="250" y="314" on="1"/>
        <pt x="240" y="262" on="1"/>
        <pt x="129" y="262" on="1"/>
        <pt x="87" y="52" on="1"/>
      </contour>
    </TTGlyph>
    <TTGlyph name="Euro" xMin="62" yMin="-7" xMax="472" yMax="583">
      <contour>
        <pt x="308" y="45" on="0" overlap="1"/>
        <pt x="357" y="60" on="1"/>
        <pt x="365" y="11" on="1"/>
        <pt x="318" y="-7" on="0"/>
        <pt x="266" y="-7" on="1"/>
        <pt x="189" y="-7" on="0"/>
        <pt x="115" y="80" on="0"/>
        <pt x="115" y="166" on="1"/>
        <pt x="115" y="186" on="0"/>
        <pt x="116" y="197" on="1"/>
        <pt x="62" y="197" on="1"/>
        <pt x="72" y="249" on="1"/>
        <pt x="122" y="249" on="1"/>
        <pt x="124" y="263" on="0"/>
        <pt x="130" y="293" on="1"/>
        <pt x="137" y="327" on="1"/>
        <pt x="88" y="327" on="1"/>
        <pt x="98" y="379" on="1"/>
        <pt x="152" y="379" on="1"/>
        <pt x="184" y="480" on="0"/>
        <pt x="294" y="583" on="0"/>
        <pt x="376" y="583" on="1"/>
        <pt x="399" y="583" on="0"/>
        <pt x="451" y="573" on="0"/>
        <pt x="472" y="563" on="1"/>
        <pt x="453" y="518" on="1"/>
        <pt x="414" y="531" on="0"/>
        <pt x="376" y="531" on="1"/>
        <pt x="319" y="531" on="0"/>
        <pt x="238" y="459" on="0"/>
        <pt x="211" y="379" on="1"/>
        <pt x="394" y="379" on="1"/>
        <pt x="371" y="327" on="1"/>
        <pt x="196" y="327" on="1"/>
        <pt x="192" y="313" on="0"/>
        <pt x="186" y="283" on="1"/>
        <pt x="180" y="249" on="1"/>
        <pt x="339" y="249" on="1"/>
        <pt x="318" y="197" on="1"/>
        <pt x="173" y="197" on="1"/>
        <pt x="171" y="173" on="0"/>
        <pt x="171" y="162" on="1"/>
        <pt x="171" y="100" on="0"/>
        <pt x="221" y="45" on="0"/>
        <pt x="271" y="45" on="1"/>
      </contour>
    </TTGlyph>
    <TTGlyph name="F" xMin="19" yMin="0" xMax="438" yMax="640">
      <contour>
        <pt x="147" y="640" on="1" overlap="1"/>
        <pt x="438" y="640" on="1"/>
        <pt x="428" y="588" on="1"/>
        <pt x="194" y="588" on="1"/>
        <pt x="139" y="314" on="1"/>
        <pt x="324" y="314" on="1"/>
        <pt x="313" y="262" on="1"/>
        <pt x="129" y="262" on="1"/>
        <pt x="77" y="0" on="1"/>
        <pt x="19" y="0" on="1"/>
      </contour>
    </TTGlyph>
    <TTGlyph name="F.hex" xMin="19" yMin="0" xMax="447" yMax="576">
      <contour>
        <pt x="134" y="576" on="1" overlap="1"/>
        <pt x="447" y="576" on="1"/>
        <pt x="436" y="524" on="1"/>
        <pt x="181" y="524" on="1"/>
        <pt x="137" y="298" on="1"/>
        <pt x="328" y="298" on="1"/>
        <pt x="317" y="246" on="1"/>
        <pt x="126" y="246" on="1"/>
        <pt x="77" y="0" on="1"/>
        <pt x="19" y="0" on="1"/>
      </contour>
    </TTGlyph>
    <TTGlyph name="F.pl" xMin="134" yMin="-66" xMax="414" yMax="254">
      <contour>
        <pt x="198" y="254" on="1" overlap="1"/>
        <pt x="414" y="254" on="1"/>
        <pt x="403" y="198" on="1"/>
        <pt x="251" y="198" on="1"/>
        <pt x="235" y="118" on="1"/>
        <pt x="367" y="118" on="1"/>
        <pt x="355" y="62" on="1"/>
        <pt x="223" y="62" on="1"/>
        <pt x="198" y="-66" on="1"/>
        <pt x="134" y="-66" on="1"/>
      </contour>
    </TTGlyph>
    <TTGlyph name="F.sups" xMin="147" yMin="320" xMax="403" yMax="640">
      <contour>
        <pt x="211" y="640" on="1" overlap="1"/>
        <pt x="403" y="640" on="1"/>
        <pt x="392" y="585" on="1"/>
        <pt x="264" y="585" on="1"/>
        <pt x="248" y="503" on="1"/>
        <pt x="356" y="503" on="1"/>
        <pt x="345" y="448" on="1"/>
        <pt x="237" y="448" on="1"/>
        <pt x="211" y="320" on="1"/>
        <pt x="147" y="320" on="1"/>
      </contour>
    </TTGlyph>
    <TTGlyph name="G" xMin="58" yMin="-9" xMax="458" yMax="647">
      <contour>
        <pt x="138" y="-9" on="0" overlap="1"/>
        <pt x="58" y="71" on="0"/>
        <pt x="58" y="162" on="1"/>
        <pt x="58" y="226" on="0"/>
        <pt x="78" y="324" on="1"/>
        <pt x="102" y="445" on="0"/>
        <pt x="170" y="584" on="0"/>
        <pt x="271" y="647" on="0"/>
        <pt x="347" y="647" on="1"/>
        <pt x="408" y="647" on="0"/>
        <pt x="458" y="633" on="1"/>
        <pt x="444" y="585" on="1"/>
        <pt x="394" y="595" on="0"/>
        <pt x="349" y="595" on="1"/>
        <pt x="284" y="595" on="0"/>
        <pt x="207" y="539" on="0"/>
        <pt x="161" y="421" on="0"/>
        <pt x="140" y="314" on="1"/>
        <pt x="118" y="201" on="0"/>
        <pt x="118" y="154" on="1"/>
        <pt x="118" y="95" on="0"/>
        <pt x="170" y="43" on="0"/>
        <pt x="232" y="43" on="1"/>
        <pt x="254" y="43" on="0"/>
        <pt x="292" y="48" on="1"/>
        <pt x="334" y="262" on="1"/>
        <pt x="238" y="262" on="1"/>
        <pt x="249" y="314" on="1"/>
        <pt x="402" y="314" on="1"/>
        <pt x="342" y="7" on="1"/>
        <pt x="315" y="-1" on="0"/>
        <pt x="249" y="-9" on="0"/>
        <pt x="224" y="-9" on="1"/>
      </contour>
    </TTGlyph>
    <TTGlyph name="G.sups" xMin="160" yMin="320" xMax="403" yMax="640">
      <contour>
        <pt x="262" y="576" on="1" overlap="1"/>
        <pt x="250" y="512" on="1"/>
        <pt x="224" y="384" on="1"/>
        <pt x="160" y="384" on="1"/>
        <pt x="186" y="512" on="1"/>
        <pt x="198" y="576" on="1"/>
      </contour>
      <contour>
        <pt x="224" y="384" on="1"/>
        <pt x="288" y="384" on="1"/>
        <pt x="314" y="512" on="1"/>
        <pt x="378" y="512" on="1"/>
        <pt x="339" y="320" on="1"/>
        <pt x="211" y="320" on="1"/>
      </contour>
      <contour>
        <pt x="275" y="640" on="1"/>
        <pt x="403" y="640" on="1"/>
        <pt x="390" y="576" on="1"/>
        <pt x="262" y="576" on="1"/>
      </contour>
    </TTGlyph>
    <TTGlyph name="Gamma" xMin="19" yMin="0" xMax="438" yMax="640">
      <component glyphName="uni0413" x="0" y="0" flags="0x400"/>
    </TTGlyph>
    <TTGlyph name="Gbreve" xMin="58" yMin="-9" xMax="491" yMax="833">
      <component glyphName="G" x="0" y="0" flags="0x400"/>
      <component glyphName="uni0306.case" x="20" y="0" flags="0x400"/>
    </TTGlyph>
    <TTGlyph name="Gcaron" xMin="58" yMin="-9" xMax="499" yMax="839">
      <component glyphName="G" x="0" y="0" flags="0x400"/>
      <component glyphName="uni030C.case" x="20" y="0" flags="0x400"/>
    </TTGlyph>
    <TTGlyph name="Gcircumflex" xMin="58" yMin="-9" xMax="470" yMax="841">
      <component glyphName="G" x="0" y="0" flags="0x400"/>
      <component glyphName="uni0302.case" x="20" y="0" flags="0x400"/>
    </TTGlyph>
    <TTGlyph name="Gdotaccent" xMin="58" yMin="-9" xMax="458" yMax="815">
      <component glyphName="G" x="0" y="0" flags="0x400"/>
      <component glyphName="uni0307.case" x="20" y="0" flags="0x400"/>
    </TTGlyph>
    <TTGlyph name="H" xMin="19" yMin="0" xMax="500" yMax="640">
      <contour>
        <pt x="147" y="640" on="1" overlap="1"/>
        <pt x="205" y="640" on="1"/>
        <pt x="139" y="314" on="1"/>
        <pt x="376" y="314" on="1"/>
        <pt x="442" y="640" on="1"/>
        <pt x="500" y="640" on="1"/>
        <pt x="372" y="0" on="1"/>
        <pt x="314" y="0" on="1"/>
        <pt x="366" y="262" on="1"/>
        <pt x="129" y="262" on="1"/>
        <pt x="77" y="0" on="1"/>
        <pt x="19" y="0" on="1"/>
      </contour>
    </TTGlyph>
    <TTGlyph name="H.sups" xMin="147" yMin="320" xMax="403" yMax="640">
      <contour>
        <pt x="249" y="508" on="1" overlap="1"/>
        <pt x="313" y="508" on="1"/>
        <pt x="339" y="640" on="1"/>
        <pt x="403" y="640" on="1"/>
        <pt x="339" y="320" on="1"/>
        <pt x="275" y="320" on="1"/>
        <pt x="302" y="452" on="1"/>
        <pt x="238" y="452" on="1"/>
        <pt x="211" y="320" on="1"/>
        <pt x="147" y="320" on="1"/>
        <pt x="211" y="640" on="1"/>
        <pt x="275" y="640" on="1"/>
      </contour>
    </TTGlyph>
    <TTGlyph name="Hbar" xMin="19" yMin="0" xMax="524" yMax="640">
      <contour>
        <pt x="108" y="447" on="1" overlap="1"/>
        <pt x="55" y="447" on="1"/>
        <pt x="65" y="498" on="1"/>
        <pt x="119" y="498" on="1"/>
        <pt x="147" y="640" on="1"/>
        <pt x="205" y="640" on="1"/>
        <pt x="176" y="498" on="1"/>
        <pt x="413" y="498" on="1"/>
        <pt x="442" y="640" on="1"/>
        <pt x="500" y="640" on="1"/>
        <pt x="472" y="498" on="1"/>
        <pt x="524" y="498" on="1"/>
        <pt x="514" y="447" on="1"/>
        <pt x="461" y="447" on="1"/>
        <pt x="372" y="0" on="1"/>
        <pt x="314" y="0" on="1"/>
        <pt x="366" y="262" on="1"/>
        <pt x="129" y="262" on="1"/>
        <pt x="77" y="0" on="1"/>
        <pt x="19" y="0" on="1"/>
      </contour>
      <contour>
        <pt x="376" y="314" on="1"/>
        <pt x="403" y="447" on="1"/>
        <pt x="166" y="447" on="1"/>
        <pt x="139" y="314" on="1"/>
      </contour>
    </TTGlyph>
    <TTGlyph name="Hcircumflex" xMin="19" yMin="0" xMax="500" yMax="841">
      <component glyphName="H" x="0" y="0" flags="0x400"/>
      <component glyphName="uni0302.case" x="16" y="0" flags="0x400"/>
    </TTGlyph>
    <TTGlyph name="I" xMin="13" yMin="0" xMax="341" yMax="640">
      <contour>
        <pt x="22" y="47" on="1" overlap="1"/>
        <pt x="97" y="51" on="1"/>
        <pt x="204" y="589" on="1"/>
        <pt x="135" y="593" on="1"/>
        <pt x="145" y="640" on="1"/>
        <pt x="341" y="640" on="1"/>
        <pt x="331" y="593" on="1"/>
        <pt x="262" y="589" on="1"/>
        <pt x="155" y="51" on="1"/>
        <pt x="227" y="47" on="1"/>
        <pt x="218" y="0" on="1"/>
        <pt x="13" y="0" on="1"/>
      </contour>
    </TTGlyph>
    <TTGlyph name="I.sups" xMin="147" yMin="320" xMax="403" yMax="640">
      <contour>
        <pt x="339" y="320" on="1" overlap="1"/>
        <pt x="147" y="320" on="1"/>
        <pt x="157" y="368" on="1"/>
        <pt x="222" y="376" on="1"/>
        <pt x="264" y="584" on="1"/>
        <pt x="202" y="592" on="1"/>
        <pt x="211" y="640" on="1"/>
        <pt x="403" y="640" on="1"/>
        <pt x="394" y="592" on="1"/>
        <pt x="328" y="584" on="1"/>
        <pt x="286" y="376" on="1"/>
        <pt x="349" y="368" on="1"/>
      </contour>
    </TTGlyph>
    <TTGlyph name="IJ" xMin="-41" yMin="0" xMax="467" yMax="640">
      <contour>
        <pt x="-33" y="44" on="1" overlap="1"/>
        <pt x="35" y="52" on="1"/>
        <pt x="142" y="588" on="1"/>
        <pt x="83" y="597" on="1"/>
        <pt x="92" y="640" on="1"/>
        <pt x="275" y="640" on="1"/>
        <pt x="266" y="597" on="1"/>
        <pt x="200" y="588" on="1"/>
        <pt x="93" y="52" on="1"/>
        <pt x="186" y="52" on="1"/>
        <pt x="290" y="52" on="0"/>
        <pt x="317" y="179" on="1"/>
        <pt x="398" y="588" on="1"/>
        <pt x="314" y="588" on="1"/>
        <pt x="325" y="640" on="1"/>
        <pt x="467" y="640" on="1"/>
        <pt x="375" y="179" on="1"/>
        <pt x="356" y="86" on="0"/>
        <pt x="255" y="0" on="0"/>
        <pt x="180" y="0" on="1"/>
        <pt x="-41" y="0" on="1"/>
      </contour>
    </TTGlyph>
    <TTGlyph name="Iacute" xMin="13" yMin="0" xMax="387" yMax="841">
      <component glyphName="I" x="0" y="0" flags="0x400"/>
      <component glyphName="acutecomb.case" x="-64" y="0" flags="0x400"/>
    </TTGlyph>
    <TTGlyph name="Iacute_J.loclNLD" xMin="-41" yMin="0" xMax="467" yMax="841">
      <component glyphName="IJ" x="0" y="0" flags="0x400"/>
      <component glyphName="acutecomb.case" x="0" y="0" flags="0x400"/>
    </TTGlyph>
    <TTGlyph name="Ibreve" xMin="13" yMin="0" xMax="407" yMax="833">
      <component glyphName="I" x="0" y="0" flags="0x400"/>
      <component glyphName="uni0306.case" x="-64" y="0" flags="0x400"/>
    </TTGlyph>
    <TTGlyph name="Icircumflex" xMin="13" yMin="0" xMax="386" yMax="841">
      <component glyphName="I" x="0" y="0" flags="0x400"/>
      <component glyphName="uni0302.case" x="-64" y="0" flags="0x400"/>
    </TTGlyph>
    <TTGlyph name="Idieresis" xMin="13" yMin="0" xMax="408" yMax="813">
      <component glyphName="I" x="0" y="0" flags="0x400"/>
      <component glyphName="uni0308.case" x="-64" y="0" flags="0x400"/>
    </TTGlyph>
    <TTGlyph name="Idotaccent" xMin="13" yMin="0" xMax="341" yMax="815">
      <component glyphName="I" x="0" y="0" flags="0x400"/>
      <component glyphName="uni0307.case" x="-64" y="0" flags="0x400"/>
    </TTGlyph>
    <TTGlyph name="Igrave" xMin="13" yMin="0" xMax="341" yMax="837">
      <component glyphName="I" x="0" y="0" flags="0x400"/>
      <component glyphName="gravecomb.case" x="-64" y="0" flags="0x400"/>
    </TTGlyph>
    <TTGlyph name="Imacron" xMin="13" yMin="0" xMax="386" yMax="772">
      <component glyphName="I" x="0" y="0" flags="0x400"/>
      <component glyphName="uni0304.case" x="-64" y="0" flags="0x400"/>
    </TTGlyph>
    <TTGlyph name="Iogonek" xMin="13" yMin="-197" xMax="341" yMax="640">
      <component glyphName="I" x="0" y="0" flags="0x400"/>
      <component glyphName="uni0328" x="-117" y="0" flags="0x400"/>
    </TTGlyph>
    <TTGlyph name="Iota" xMin="13" yMin="0" xMax="341" yMax="640">
      <component glyphName="I" x="0" y="0" flags="0x400"/>
    </TTGlyph>
    <TTGlyph name="Iotadieresis" xMin="13" yMin="0" xMax="408" yMax="813">
      <component glyphName="I" x="0" y="0" flags="0x400"/>
      <component glyphName="uni0308.case" x="-64" y="0" flags="0x400"/>
    </TTGlyph>
    <TTGlyph name="Iotatonos" xMin="3" yMin="0" xMax="341" yMax="704">
      <component glyphName="I" x="0" y="0" flags="0x400"/>
      <component glyphName="tonos" x="-256" y="0" flags="0x400"/>
    </TTGlyph>
    <TTGlyph name="Itilde" xMin="13" yMin="0" xMax="429" yMax="837">
      <component glyphName="I" x="0" y="0" flags="0x400"/>
      <component glyphName="tildecomb.case" x="-64" y="0" flags="0x400"/>
    </TTGlyph>
    <TTGlyph name="J" xMin="44" yMin="-8" xMax="468" yMax="640">
      <contour>
        <pt x="103" y="85" on="0" overlap="1"/>
        <pt x="140" y="44" on="0"/>
        <pt x="184" y="44" on="1"/>
        <pt x="291" y="44" on="0"/>
        <pt x="316" y="171" on="1"/>
        <pt x="399" y="588" on="1"/>
        <pt x="245" y="588" on="1"/>
        <pt x="256" y="640" on="1"/>
        <pt x="468" y="640" on="1"/>
        <pt x="374" y="171" on="1"/>
        <pt x="355" y="78" on="0"/>
        <pt x="255" y="-8" on="0"/>
        <pt x="182" y="-8" on="1"/>
        <pt x="113" y="-8" on="0"/>
        <pt x="47" y="59" on="0"/>
        <pt x="44" y="117" on="1"/>
        <pt x="99" y="126" on="1"/>
      </contour>
    </TTGlyph>
    <TTGlyph name="J.sups" xMin="147" yMin="320" xMax="403" yMax="640">
      <contour>
        <pt x="403" y="640" on="1" overlap="1"/>
        <pt x="390" y="576" on="1"/>
        <pt x="378" y="512" on="1"/>
        <pt x="352" y="384" on="1"/>
        <pt x="288" y="384" on="1"/>
        <pt x="314" y="512" on="1"/>
        <pt x="326" y="576" on="1"/>
        <pt x="198" y="576" on="1"/>
        <pt x="211" y="640" on="1"/>
      </contour>
      <contour>
        <pt x="160" y="384" on="1"/>
        <pt x="288" y="384" on="1"/>
        <pt x="275" y="320" on="1"/>
        <pt x="147" y="320" on="1"/>
      </contour>
    </TTGlyph>
    <TTGlyph name="Jcircumflex" xMin="44" yMin="-8" xMax="496" yMax="841">
      <component glyphName="J" x="0" y="0" flags="0x400"/>
      <component glyphName="uni0302.case" x="46" y="0" flags="0x400"/>
    </TTGlyph>
    <TTGlyph name="K" xMin="19" yMin="0" xMax="479" yMax="640">
      <contour>
        <pt x="147" y="640" on="1" overlap="1"/>
        <pt x="205" y="640" on="1"/>
        <pt x="140" y="319" on="1"/>
        <pt x="196" y="319" on="1"/>
        <pt x="273" y="391" on="0"/>
        <pt x="383" y="541" on="0"/>
        <pt x="418" y="640" on="1"/>
        <pt x="479" y="640" on="1"/>
        <pt x="445" y="545" on="0"/>
        <pt x="337" y="389" on="0"/>
        <pt x="259" y="316" on="1"/>
        <pt x="372" y="300" on="0"/>
        <pt x="372" y="183" on="1"/>
        <pt x="372" y="160" on="0"/>
        <pt x="370" y="147" on="1"/>
        <pt x="352" y="0" on="1"/>
        <pt x="290" y="0" on="1"/>
        <pt x="311" y="150" on="1"/>
        <pt x="314" y="170" on="0"/>
        <pt x="314" y="185" on="1"/>
        <pt x="314" y="229" on="0"/>
        <pt x="266" y="267" on="0"/>
        <pt x="210" y="267" on="1"/>
        <pt x="130" y="267" on="1"/>
        <pt x="77" y="0" on="1"/>
        <pt x="19" y="0" on="1"/>
      </contour>
    </TTGlyph>
    <TTGlyph name="K.sups" xMin="147" yMin="320" xMax="403" yMax="640">
      <contour>
        <pt x="275" y="640" on="1" overlap="1"/>
        <pt x="262" y="576" on="1"/>
        <pt x="250" y="512" on="1"/>
        <pt x="314" y="512" on="1"/>
        <pt x="301" y="448" on="1"/>
        <pt x="237" y="448" on="1"/>
        <pt x="211" y="320" on="1"/>
        <pt x="147" y="320" on="1"/>
        <pt x="186" y="512" on="1"/>
        <pt x="198" y="576" on="1"/>
        <pt x="211" y="640" on="1"/>
      </contour>
      <contour>
        <pt x="301" y="448" on="1"/>
        <pt x="365" y="448" on="1"/>
        <pt x="339" y="320" on="1"/>
        <pt x="275" y="320" on="1"/>
      </contour>
      <contour>
        <pt x="326" y="576" on="1"/>
        <pt x="339" y="640" on="1"/>
        <pt x="403" y="640" on="1"/>
        <pt x="390" y="576" on="1"/>
        <pt x="378" y="512" on="1"/>
        <pt x="314" y="512" on="1"/>
      </contour>
    </TTGlyph>
    <TTGlyph name="Kappa" xMin="19" yMin="0" xMax="479" yMax="640">
      <component glyphName="K" x="0" y="0" flags="0x400"/>
    </TTGlyph>
    <TTGlyph name="L" xMin="19" yMin="0" xMax="307" yMax="640">
      <contour>
        <pt x="147" y="640" on="1" overlap="1"/>
        <pt x="205" y="640" on="1"/>
        <pt x="87" y="52" on="1"/>
        <pt x="307" y="52" on="1"/>
        <pt x="296" y="0" on="1"/>
        <pt x="19" y="0" on="1"/>
      </contour>
    </TTGlyph>
    <TTGlyph name="L.pl" xMin="96" yMin="384" xMax="327" yMax="704">
      <contour>
        <pt x="316" y="384" on="1" overlap="1"/>
        <pt x="96" y="384" on="1"/>
        <pt x="160" y="704" on="1"/>
        <pt x="224" y="704" on="1"/>
        <pt x="171" y="440" on="1"/>
        <pt x="327" y="440" on="1"/>
      </contour>
    </TTGlyph>
    <TTGlyph name="L.sups" xMin="147" yMin="320" xMax="350" yMax="640">
      <contour>
        <pt x="339" y="320" on="1" overlap="1"/>
        <pt x="147" y="320" on="1"/>
        <pt x="211" y="640" on="1"/>
        <pt x="275" y="640" on="1"/>
        <pt x="222" y="376" on="1"/>
        <pt x="350" y="376" on="1"/>
      </contour>
    </TTGlyph>
    <TTGlyph name="Lacute" xMin="19" yMin="0" xMax="319" yMax="841">
      <component glyphName="L" x="0" y="0" flags="0x400"/>
      <component glyphName="acutecomb.case" x="-132" y="0" flags="0x400"/>
    </TTGlyph>
    <TTGlyph name="Lambda" xMin="-7" yMin="0" xMax="379" yMax="645">
      <contour>
        <pt x="47" y="187" on="0" overlap="1"/>
        <pt x="195" y="521" on="0"/>
        <pt x="282" y="645" on="1"/>
        <pt x="332" y="641" on="1"/>
        <pt x="379" y="487" on="0"/>
        <pt x="379" y="262" on="1"/>
        <pt x="379" y="135" on="0"/>
        <pt x="364" y="0" on="1"/>
        <pt x="305" y="0" on="1"/>
        <pt x="320" y="147" on="0"/>
        <pt x="320" y="275" on="1"/>
        <pt x="320" y="445" on="0"/>
        <pt x="294" y="567" on="1"/>
        <pt x="229" y="462" on="0"/>
        <pt x="106" y="171" on="0"/>
        <pt x="56" y="0" on="1"/>
        <pt x="-7" y="0" on="1"/>
      </contour>
    </TTGlyph>
    <TTGlyph name="Lcaron" xMin="19" yMin="0" xMax="347" yMax="839">
      <component glyphName="L" x="0" y="0" flags="0x400"/>
      <component glyphName="uni030C.case" x="-132" y="0" flags="0x400"/>
    </TTGlyph>
    <TTGlyph name="Ldot" xMin="19" yMin="0" xMax="359" yMax="640">
      <contour>
        <pt x="147" y="640" on="1" overlap="1"/>
        <pt x="205" y="640" on="1"/>
        <pt x="87" y="52" on="1"/>
        <pt x="307" y="52" on="1"/>
        <pt x="296" y="0" on="1"/>
        <pt x="19" y="0" on="1"/>
      </contour>
      <contour>
        <pt x="250" y="333" on="0"/>
        <pt x="285" y="360" on="0"/>
        <pt x="308" y="360" on="1"/>
        <pt x="330" y="360" on="0"/>
        <pt x="359" y="335" on="0"/>
        <pt x="359" y="313" on="1"/>
        <pt x="359" y="308" on="0"/>
        <pt x="357" y="298" on="1"/>
        <pt x="351" y="273" on="0"/>
        <pt x="316" y="246" on="0"/>
        <pt x="293" y="246" on="1"/>
        <pt x="271" y="246" on="0"/>
        <pt x="242" y="272" on="0"/>
        <pt x="242" y="294" on="1"/>
        <pt x="242" y="298" on="0"/>
        <pt x="244" y="308" on="1"/>
      </contour>
    </TTGlyph>
    <TTGlyph name="Lslash" xMin="-35" yMin="0" xMax="307" yMax="640">
      <component glyphName="L" x="0" y="0" flags="0x400"/>
      <component glyphName="_part.slash.comp" x="-103" y="0" flags="0x400"/>
    </TTGlyph>
    <TTGlyph name="M" xMin="19" yMin="0" xMax="596" yMax="640">
      <contour>
        <pt x="147" y="640" on="1" overlap="1"/>
        <pt x="219" y="640" on="1"/>
        <pt x="274" y="345" on="1"/>
        <pt x="290" y="239" on="1"/>
        <pt x="350" y="345" on="1"/>
        <pt x="522" y="640" on="1"/>
        <pt x="596" y="640" on="1"/>
        <pt x="468" y="0" on="1"/>
        <pt x="410" y="0" on="1"/>
        <pt x="501" y="453" on="1"/>
        <pt x="520" y="540" on="1"/>
        <pt x="460" y="427" on="1"/>
        <pt x="295" y="150" on="1"/>
        <pt x="253" y="150" on="1"/>
        <pt x="201" y="427" on="1"/>
        <pt x="183" y="544" on="1"/>
        <pt x="168" y="453" on="1"/>
        <pt x="77" y="0" on="1"/>
        <pt x="19" y="0" on="1"/>
      </contour>
    </TTGlyph>
    <TTGlyph name="M.sups" xMin="147" yMin="320" xMax="403" yMax="640">
      <contour>
        <pt x="198" y="576" on="1" overlap="1"/>
        <pt x="211" y="640" on="1"/>
        <pt x="403" y="640" on="1"/>
        <pt x="390" y="576" on="1"/>
        <pt x="378" y="512" on="1"/>
        <pt x="339" y="320" on="1"/>
        <pt x="275" y="320" on="1"/>
        <pt x="288" y="384" on="1"/>
        <pt x="224" y="384" on="1"/>
        <pt x="211" y="320" on="1"/>
        <pt x="147" y="320" on="1"/>
        <pt x="186" y="512" on="1"/>
      </contour>
    </TTGlyph>
    <TTGlyph name="Mu" xMin="19" yMin="0" xMax="596" yMax="640">
      <component glyphName="M" x="0" y="0" flags="0x400"/>
    </TTGlyph>
    <TTGlyph name="N" xMin="19" yMin="0" xMax="500" yMax="640">
      <contour>
        <pt x="299" y="1" on="1" overlap="1"/>
        <pt x="186" y="541" on="1"/>
        <pt x="77" y="0" on="1"/>
        <pt x="19" y="0" on="1"/>
        <pt x="147" y="640" on="1"/>
        <pt x="225" y="640" on="1"/>
        <pt x="224" y="639" on="1"/>
        <pt x="336" y="110" on="1"/>
        <pt x="442" y="640" on="1"/>
        <pt x="500" y="640" on="1"/>
        <pt x="372" y="0" on="1"/>
        <pt x="298" y="0" on="1"/>
      </contour>
    </TTGlyph>
    <TTGlyph name="N.pl" xMin="73" yMin="-64" xMax="388" yMax="256">
      <contour>
        <pt x="137" y="256" on="1" overlap="1"/>
        <pt x="220" y="256" on="1"/>
        <pt x="281" y="21" on="1"/>
        <pt x="328" y="256" on="1"/>
        <pt x="388" y="256" on="1"/>
        <pt x="324" y="-64" on="1"/>
        <pt x="241" y="-64" on="1"/>
        <pt x="180" y="171" on="1"/>
        <pt x="133" y="-64" on="1"/>
        <pt x="73" y="-64" on="1"/>
      </contour>
    </TTGlyph>
    <TTGlyph name="N.sups" xMin="147" yMin="320" xMax="390" yMax="640">
      <contour>
        <pt x="339" y="640" on="1" overlap="1"/>
        <pt x="326" y="576" on="1"/>
        <pt x="262" y="576" on="1"/>
        <pt x="250" y="512" on="1"/>
        <pt x="211" y="320" on="1"/>
        <pt x="147" y="320" on="1"/>
        <pt x="186" y="512" on="1"/>
        <pt x="198" y="576" on="1"/>
        <pt x="211" y="640" on="1"/>
      </contour>
      <contour>
        <pt x="314" y="512" on="1"/>
        <pt x="326" y="576" on="1"/>
        <pt x="390" y="576" on="1"/>
        <pt x="378" y="512" on="1"/>
        <pt x="339" y="320" on="1"/>
        <pt x="275" y="320" on="1"/>
      </contour>
    </TTGlyph>
    <TTGlyph name="Nacute" xMin="19" yMin="0" xMax="500" yMax="841">
      <component glyphName="N" x="0" y="0" flags="0x400"/>
      <component glyphName="acutecomb.case" x="16" y="0" flags="0x400"/>
    </TTGlyph>
    <TTGlyph name="Ncaron" xMin="19" yMin="0" xMax="500" yMax="839">
      <component glyphName="N" x="0" y="0" flags="0x400"/>
      <component glyphName="uni030C.case" x="16" y="0" flags="0x400"/>
    </TTGlyph>
    <TTGlyph name="Ntilde" xMin="19" yMin="0" xMax="509" yMax="837">
      <component glyphName="N" x="0" y="0" flags="0x400"/>
      <component glyphName="tildecomb.case" x="16" y="0" flags="0x400"/>
    </TTGlyph>
    <TTGlyph name="Nu" xMin="19" yMin="0" xMax="500" yMax="640">
      <component glyphName="N" x="0" y="0" flags="0x400"/>
    </TTGlyph>
    <TTGlyph name="O" xMin="45" yMin="-10" xMax="474" yMax="650">
      <contour>
        <pt x="45" y="-10" on="0" overlap="1"/>
        <pt x="45" y="180" on="1"/>
        <pt x="45" y="244" on="0"/>
        <pt x="61" y="324" on="1"/>
        <pt x="94" y="489" on="0"/>
        <pt x="222" y="650" on="0"/>
        <pt x="321" y="650" on="1"/>
        <pt x="399" y="650" on="0"/>
        <pt x="474" y="557" on="0"/>
        <pt x="474" y="464" on="1"/>
        <pt x="474" y="402" on="0"/>
        <pt x="457" y="314" on="1"/>
        <pt x="424" y="151" on="0"/>
        <pt x="298" y="-10" on="0"/>
        <pt x="197" y="-10" on="1"/>
      </contour>
      <contour>
        <pt x="103" y="224" on="0"/>
        <pt x="103" y="166" on="1"/>
        <pt x="103" y="102" on="0"/>
        <pt x="150" y="43" on="0"/>
        <pt x="200" y="43" on="1"/>
        <pt x="275" y="43" on="0"/>
        <pt x="368" y="175" on="0"/>
        <pt x="397" y="324" on="1"/>
        <pt x="416" y="421" on="0"/>
        <pt x="416" y="474" on="1"/>
        <pt x="416" y="538" on="0"/>
        <pt x="369" y="597" on="0"/>
        <pt x="319" y="597" on="1"/>
        <pt x="243" y="597" on="0"/>
        <pt x="151" y="464" on="0"/>
        <pt x="121" y="314" on="1"/>
      </contour>
    </TTGlyph>
    <TTGlyph name="O.pl" xMin="91" yMin="-71" xMax="379" yMax="265">
      <contour>
        <pt x="148" y="-71" on="0" overlap="1"/>
        <pt x="91" y="-7" on="0"/>
        <pt x="91" y="49" on="1"/>
        <pt x="91" y="75" on="0"/>
        <pt x="97" y="103" on="1"/>
        <pt x="111" y="177" on="0"/>
        <pt x="195" y="265" on="0"/>
        <pt x="263" y="265" on="1"/>
        <pt x="321" y="265" on="0"/>
        <pt x="379" y="200" on="0"/>
        <pt x="379" y="144" on="1"/>
        <pt x="379" y="120" on="0"/>
        <pt x="373" y="91" on="1"/>
        <pt x="359" y="18" on="0"/>
        <pt x="273" y="-71" on="0"/>
        <pt x="206" y="-71" on="1"/>
      </contour>
      <contour>
        <pt x="154" y="61" on="0"/>
        <pt x="154" y="41" on="1"/>
        <pt x="154" y="12" on="0"/>
        <pt x="179" y="-15" on="0"/>
        <pt x="207" y="-15" on="1"/>
        <pt x="248" y="-15" on="0"/>
        <pt x="298" y="43" on="0"/>
        <pt x="310" y="103" on="1"/>
        <pt x="316" y="130" on="0"/>
        <pt x="316" y="151" on="1"/>
        <pt x="316" y="180" on="0"/>
        <pt x="290" y="209" on="0"/>
        <pt x="262" y="209" on="1"/>
        <pt x="220" y="209" on="0"/>
        <pt x="172" y="150" on="0"/>
        <pt x="160" y="91" on="1"/>
      </contour>
    </TTGlyph>
    <TTGlyph name="O.sups" xMin="150" yMin="316" xMax="401" yMax="644">
      <contour>
        <pt x="196" y="316" on="0" overlap="1"/>
        <pt x="150" y="375" on="0"/>
        <pt x="150" y="426" on="1"/>
        <pt x="150" y="455" on="0"/>
        <pt x="156" y="486" on="1"/>
        <pt x="170" y="558" on="0"/>
        <pt x="241" y="644" on="0"/>
        <pt x="303" y="644" on="1"/>
        <pt x="353" y="644" on="0"/>
        <pt x="401" y="585" on="0"/>
        <pt x="401" y="534" on="1"/>
        <pt x="401" y="511" on="0"/>
        <pt x="394" y="474" on="1"/>
        <pt x="379" y="403" on="0"/>
        <pt x="307" y="316" on="0"/>
        <pt x="247" y="316" on="1"/>
      </contour>
      <contour>
        <pt x="210" y="434" on="0"/>
        <pt x="210" y="415" on="1"/>
        <pt x="210" y="391" on="0"/>
        <pt x="228" y="372" on="0"/>
        <pt x="248" y="372" on="1"/>
        <pt x="281" y="372" on="0"/>
        <pt x="319" y="423" on="0"/>
        <pt x="332" y="486" on="1"/>
        <pt x="339" y="520" on="0"/>
        <pt x="339" y="544" on="1"/>
        <pt x="339" y="568" on="0"/>
        <pt x="322" y="588" on="0"/>
        <pt x="302" y="588" on="1"/>
        <pt x="269" y="588" on="0"/>
        <pt x="231" y="535" on="0"/>
        <pt x="218" y="474" on="1"/>
      </contour>
    </TTGlyph>
    <TTGlyph name="OE" xMin="44" yMin="-10" xMax="898" yMax="650">
      <contour>
        <pt x="44" y="-10" on="0" overlap="1"/>
        <pt x="44" y="172" on="1"/>
        <pt x="44" y="242" on="0"/>
        <pt x="61" y="324" on="1"/>
        <pt x="94" y="489" on="0"/>
        <pt x="214" y="650" on="0"/>
        <pt x="305" y="650" on="1"/>
        <pt x="375" y="650" on="0"/>
        <pt x="444" y="561" on="0"/>
        <pt x="444" y="471" on="1"/>
        <pt x="444" y="406" on="0"/>
        <pt x="426" y="314" on="1"/>
        <pt x="393" y="151" on="0"/>
        <pt x="274" y="-10" on="0"/>
        <pt x="181" y="-10" on="1"/>
      </contour>
      <contour>
        <pt x="101" y="214" on="0"/>
        <pt x="101" y="156" on="1"/>
        <pt x="101" y="98" on="0"/>
        <pt x="141" y="43" on="0"/>
        <pt x="184" y="43" on="1"/>
        <pt x="251" y="43" on="0"/>
        <pt x="336" y="175" on="0"/>
        <pt x="366" y="324" on="1"/>
        <pt x="385" y="420" on="0"/>
        <pt x="385" y="482" on="1"/>
        <pt x="385" y="542" on="0"/>
        <pt x="345" y="597" on="0"/>
        <pt x="303" y="597" on="1"/>
        <pt x="236" y="597" on="0"/>
        <pt x="151" y="465" on="0"/>
        <pt x="121" y="314" on="1"/>
      </contour>
      <contour>
        <pt x="595" y="640" on="1"/>
        <pt x="898" y="640" on="1"/>
        <pt x="887" y="588" on="1"/>
        <pt x="642" y="588" on="1"/>
        <pt x="587" y="314" on="1"/>
        <pt x="779" y="314" on="1"/>
        <pt x="768" y="262" on="1"/>
        <pt x="577" y="262" on="1"/>
        <pt x="535" y="52" on="1"/>
        <pt x="791" y="52" on="1"/>
        <pt x="780" y="0" on="1"/>
        <pt x="467" y="0" on="1"/>
      </contour>
    </TTGlyph>
    <TTGlyph name="Oacute" xMin="45" yMin="-10" xMax="474" yMax="841">
      <component glyphName="O" x="0" y="0" flags="0x400"/>
      <component glyphName="acutecomb.case" x="16" y="0" flags="0x400"/>
    </TTGlyph>
    <TTGlyph name="Obreve" xMin="45" yMin="-10" xMax="487" yMax="833">
      <component glyphName="O" x="0" y="0" flags="0x400"/>
      <component glyphName="uni0306.case" x="16" y="0" flags="0x400"/>
    </TTGlyph>
    <TTGlyph name="Ocircumflex" xMin="45" yMin="-10" xMax="474" yMax="841">
      <component glyphName="O" x="0" y="0" flags="0x400"/>
      <component glyphName="uni0302.case" x="16" y="0" flags="0x400"/>
    </TTGlyph>
    <TTGlyph name="Odieresis" xMin="45" yMin="-10" xMax="488" yMax="813">
      <component glyphName="O" x="0" y="0" flags="0x400"/>
      <component glyphName="uni0308.case" x="16" y="0" flags="0x400"/>
    </TTGlyph>
    <TTGlyph name="Ograve" xMin="45" yMin="-10" xMax="474" yMax="837">
      <component glyphName="O" x="0" y="0" flags="0x400"/>
      <component glyphName="gravecomb.case" x="16" y="0" flags="0x400"/>
    </TTGlyph>
    <TTGlyph name="Ohorn" xMin="45" yMin="-10" xMax="544" yMax="768">
      <contour>
        <pt x="45" y="-10" on="0" overlap="1"/>
        <pt x="45" y="180" on="1"/>
        <pt x="45" y="244" on="0"/>
        <pt x="61" y="324" on="1"/>
        <pt x="94" y="489" on="0"/>
        <pt x="222" y="650" on="0"/>
        <pt x="321" y="650" on="1"/>
        <pt x="339" y="650" on="0"/>
        <pt x="373" y="646" on="0"/>
        <pt x="378" y="645" on="1"/>
        <pt x="403" y="640" on="0"/>
        <pt x="425" y="640" on="1"/>
        <pt x="450" y="640" on="0"/>
        <pt x="478" y="667" on="0"/>
        <pt x="484" y="695" on="1"/>
        <pt x="488" y="716" on="0"/>
        <pt x="490" y="768" on="1"/>
        <pt x="543" y="768" on="1"/>
        <pt x="544" y="737" on="1"/>
        <pt x="544" y="705" on="0"/>
        <pt x="539" y="680" on="1"/>
        <pt x="530" y="639" on="0"/>
        <pt x="486" y="597" on="0"/>
        <pt x="447" y="590" on="1"/>
        <pt x="474" y="547" on="0"/>
        <pt x="474" y="466" on="1"/>
        <pt x="474" y="398" on="0"/>
        <pt x="457" y="314" on="1"/>
        <pt x="424" y="151" on="0"/>
        <pt x="298" y="-10" on="0"/>
        <pt x="197" y="-10" on="1"/>
      </contour>
      <contour>
        <pt x="102" y="219" on="0"/>
        <pt x="102" y="166" on="1"/>
        <pt x="102" y="102" on="0"/>
        <pt x="149" y="43" on="0"/>
        <pt x="199" y="43" on="1"/>
        <pt x="275" y="43" on="0"/>
        <pt x="368" y="175" on="0"/>
        <pt x="397" y="324" on="1"/>
        <pt x="416" y="421" on="0"/>
        <pt x="416" y="474" on="1"/>
        <pt x="416" y="538" on="0"/>
        <pt x="369" y="597" on="0"/>
        <pt x="319" y="597" on="1"/>
        <pt x="243" y="597" on="0"/>
        <pt x="151" y="464" on="0"/>
        <pt x="121" y="314" on="1"/>
      </contour>
    </TTGlyph>
    <TTGlyph name="Ohungarumlaut" xMin="45" yMin="-10" xMax="494" yMax="832">
      <component glyphName="O" x="0" y="0" flags="0x400"/>
      <component glyphName="uni030B.case" x="16" y="0" flags="0x400"/>
    </TTGlyph>
    <TTGlyph name="Omacron" xMin="45" yMin="-10" xMax="474" yMax="772">
      <component glyphName="O" x="0" y="0" flags="0x400"/>
      <component glyphName="uni0304.case" x="16" y="0" flags="0x400"/>
    </TTGlyph>
    <TTGlyph name="Omegatonos" xMin="3" yMin="0" xMax="450" yMax="704">
      <component glyphName="uni03A9" x="0" y="0" flags="0x400"/>
      <component glyphName="tonos" x="-256" y="0" flags="0x400"/>
    </TTGlyph>
    <TTGlyph name="Omicron" xMin="45" yMin="-10" xMax="474" yMax="650">
      <component glyphName="O" x="0" y="0" flags="0x400"/>
    </TTGlyph>
    <TTGlyph name="Omicrontonos" xMin="3" yMin="-10" xMax="474" yMax="704">
      <component glyphName="O" x="0" y="0" flags="0x400"/>
      <component glyphName="tonos" x="-256" y="0" flags="0x400"/>
    </TTGlyph>
    <TTGlyph name="Oslash" xMin="14" yMin="-11" xMax="505" yMax="652">
      <component glyphName="O" x="0" y="0" flags="0x400"/>
      <component glyphName="slash.O" x="16" y="0" flags="0x400"/>
    </TTGlyph>
    <TTGlyph name="Oslashacute" xMin="14" yMin="-11" xMax="505" yMax="841">
      <component glyphName="Oslash" x="0" y="0" flags="0x400"/>
      <component glyphName="acutecomb.case" x="16" y="0" flags="0x400"/>
    </TTGlyph>
    <TTGlyph name="Otilde" xMin="45" yMin="-10" xMax="509" yMax="837">
      <component glyphName="O" x="0" y="0" flags="0x400"/>
      <component glyphName="tildecomb.case" x="16" y="0" flags="0x400"/>
    </TTGlyph>
    <TTGlyph name="P" xMin="19" yMin="0" xMax="442" yMax="640">
      <contour>
        <pt x="147" y="640" on="1" overlap="1"/>
        <pt x="294" y="640" on="1"/>
        <pt x="364" y="640" on="0"/>
        <pt x="442" y="557" on="0"/>
        <pt x="442" y="481" on="1"/>
        <pt x="442" y="447" on="0"/>
        <pt x="435" y="412" on="1"/>
        <pt x="415" y="307" on="0"/>
        <pt x="295" y="198" on="0"/>
        <pt x="210" y="198" on="1"/>
        <pt x="116" y="198" on="1"/>
        <pt x="77" y="0" on="1"/>
        <pt x="19" y="0" on="1"/>
      </contour>
      <contour>
        <pt x="213" y="250" on="1"/>
        <pt x="281" y="250" on="0"/>
        <pt x="359" y="340" on="0"/>
        <pt x="375" y="422" on="1"/>
        <pt x="383" y="462" on="0"/>
        <pt x="383" y="489" on="1"/>
        <pt x="383" y="537" on="0"/>
        <pt x="336" y="588" on="0"/>
        <pt x="284" y="588" on="1"/>
        <pt x="194" y="588" on="1"/>
        <pt x="126" y="250" on="1"/>
      </contour>
    </TTGlyph>
    <TTGlyph name="P.sups" xMin="147" yMin="320" xMax="397" yMax="640">
      <contour>
        <pt x="211" y="640" on="1" overlap="1"/>
        <pt x="307" y="640" on="1"/>
        <pt x="348" y="640" on="0"/>
        <pt x="397" y="598" on="0"/>
        <pt x="397" y="561" on="1"/>
        <pt x="397" y="546" on="0"/>
        <pt x="395" y="538" on="1"/>
        <pt x="386" y="495" on="0"/>
        <pt x="323" y="448" on="0"/>
        <pt x="276" y="448" on="1"/>
        <pt x="237" y="448" on="1"/>
        <pt x="211" y="320" on="1"/>
        <pt x="147" y="320" on="1"/>
      </contour>
      <contour>
        <pt x="278" y="503" on="1"/>
        <pt x="299" y="503" on="0"/>
        <pt x="325" y="529" on="0"/>
        <pt x="329" y="550" on="1"/>
        <pt x="330" y="554" on="0"/>
        <pt x="330" y="561" on="1"/>
        <pt x="330" y="573" on="0"/>
        <pt x="316" y="585" on="0"/>
        <pt x="300" y="585" on="1"/>
        <pt x="264" y="585" on="1"/>
        <pt x="248" y="503" on="1"/>
      </contour>
    </TTGlyph>
    <TTGlyph name="Phi" xMin="45" yMin="0" xMax="442" yMax="640">
      <component glyphName="uni0424" x="0" y="0" flags="0x400"/>
    </TTGlyph>
    <TTGlyph name="Pi" xMin="19" yMin="0" xMax="468" yMax="640">
      <component glyphName="uni041F" x="0" y="0" flags="0x400"/>
    </TTGlyph>
    <TTGlyph name="Psi" xMin="83" yMin="0" xMax="467" yMax="640">
      <contour>
        <pt x="198" y="256" on="1" overlap="1"/>
        <pt x="134" y="256" on="1"/>
        <pt x="147" y="320" on="1"/>
        <pt x="211" y="320" on="1"/>
        <pt x="250" y="512" on="1"/>
        <pt x="262" y="576" on="1"/>
        <pt x="275" y="640" on="1"/>
        <pt x="339" y="640" on="1"/>
        <pt x="326" y="576" on="1"/>
        <pt x="314" y="512" on="1"/>
        <pt x="275" y="320" on="1"/>
        <pt x="339" y="320" on="1"/>
        <pt x="326" y="256" on="1"/>
        <pt x="262" y="256" on="1"/>
        <pt x="250" y="192" on="1"/>
        <pt x="211" y="0" on="1"/>
        <pt x="147" y="0" on="1"/>
        <pt x="186" y="192" on="1"/>
      </contour>
      <contour>
        <pt x="122" y="512" on="1"/>
        <pt x="134" y="576" on="1"/>
        <pt x="147" y="640" on="1"/>
        <pt x="211" y="640" on="1"/>
        <pt x="198" y="576" on="1"/>
        <pt x="186" y="512" on="1"/>
        <pt x="147" y="320" on="1"/>
        <pt x="83" y="320" on="1"/>
      </contour>
      <contour>
        <pt x="378" y="512" on="1"/>
        <pt x="390" y="576" on="1"/>
        <pt x="403" y="640" on="1"/>
        <pt x="467" y="640" on="1"/>
        <pt x="454" y="576" on="1"/>
        <pt x="442" y="512" on="1"/>
        <pt x="403" y="320" on="1"/>
        <pt x="339" y="320" on="1"/>
      </contour>
    </TTGlyph>
    <TTGlyph name="Q" xMin="45" yMin="-135" xMax="474" yMax="650">
      <contour>
        <pt x="271" y="-133" on="0" overlap="1"/>
        <pt x="188" y="-72" on="0"/>
        <pt x="187" y="-10" on="1"/>
        <pt x="45" y="-4" on="0"/>
        <pt x="45" y="180" on="1"/>
        <pt x="45" y="244" on="0"/>
        <pt x="61" y="324" on="1"/>
        <pt x="94" y="489" on="0"/>
        <pt x="222" y="650" on="0"/>
        <pt x="321" y="650" on="1"/>
        <pt x="399" y="650" on="0"/>
        <pt x="474" y="557" on="0"/>
        <pt x="474" y="464" on="1"/>
        <pt x="474" y="402" on="0"/>
        <pt x="457" y="314" on="1"/>
        <pt x="428" y="170" on="0"/>
        <pt x="324" y="11" on="0"/>
        <pt x="243" y="-5" on="1"/>
        <pt x="243" y="-34" on="0"/>
        <pt x="265" y="-65" on="0"/>
        <pt x="316" y="-78" on="0"/>
        <pt x="362" y="-80" on="1"/>
        <pt x="350" y="-135" on="1"/>
      </contour>
      <contour>
        <pt x="103" y="224" on="0"/>
        <pt x="103" y="166" on="1"/>
        <pt x="103" y="102" on="0"/>
        <pt x="150" y="43" on="0"/>
        <pt x="200" y="43" on="1"/>
        <pt x="275" y="43" on="0"/>
        <pt x="368" y="175" on="0"/>
        <pt x="397" y="324" on="1"/>
        <pt x="416" y="421" on="0"/>
        <pt x="416" y="474" on="1"/>
        <pt x="416" y="538" on="0"/>
        <pt x="369" y="597" on="0"/>
        <pt x="319" y="597" on="1"/>
        <pt x="243" y="597" on="0"/>
        <pt x="151" y="464" on="0"/>
        <pt x="121" y="314" on="1"/>
      </contour>
    </TTGlyph>
    <TTGlyph name="Q.sups" xMin="147" yMin="256" xMax="403" yMax="640">
      <contour>
        <pt x="403" y="640" on="1" overlap="1"/>
        <pt x="390" y="576" on="1"/>
        <pt x="378" y="512" on="1"/>
        <pt x="339" y="320" on="1"/>
        <pt x="275" y="320" on="1"/>
        <pt x="262" y="256" on="1"/>
        <pt x="198" y="256" on="1"/>
        <pt x="211" y="320" on="1"/>
        <pt x="147" y="320" on="1"/>
        <pt x="186" y="512" on="1"/>
        <pt x="198" y="576" on="1"/>
        <pt x="211" y="640" on="1"/>
      </contour>
      <contour>
        <pt x="288" y="384" on="1"/>
        <pt x="314" y="512" on="1"/>
        <pt x="326" y="576" on="1"/>
        <pt x="262" y="576" on="1"/>
        <pt x="250" y="512" on="1"/>
        <pt x="224" y="384" on="1"/>
      </contour>
    </TTGlyph>
    <TTGlyph name="R" xMin="19" yMin="0" xMax="447" yMax="640">
      <contour>
        <pt x="367" y="640" on="0" overlap="1"/>
        <pt x="447" y="564" on="0"/>
        <pt x="447" y="494" on="1"/>
        <pt x="447" y="469" on="0"/>
        <pt x="441" y="439" on="1"/>
        <pt x="424" y="356" on="0"/>
        <pt x="330" y="264" on="0"/>
        <pt x="260" y="254" on="1"/>
        <pt x="311" y="232" on="0"/>
        <pt x="365" y="124" on="0"/>
        <pt x="365" y="48" on="1"/>
        <pt x="365" y="24" on="0"/>
        <pt x="362" y="0" on="1"/>
        <pt x="304" y="0" on="1"/>
        <pt x="306" y="34" on="0"/>
        <pt x="306" y="48" on="1"/>
        <pt x="306" y="124" on="0"/>
        <pt x="252" y="218" on="0"/>
        <pt x="192" y="247" on="1"/>
        <pt x="126" y="247" on="1"/>
        <pt x="77" y="0" on="1"/>
        <pt x="19" y="0" on="1"/>
        <pt x="147" y="640" on="1"/>
        <pt x="296" y="640" on="1"/>
      </contour>
      <contour>
        <pt x="224" y="299" on="1"/>
        <pt x="293" y="299" on="0"/>
        <pt x="366" y="376" on="0"/>
        <pt x="380" y="448" on="1"/>
        <pt x="386" y="477" on="0"/>
        <pt x="386" y="500" on="1"/>
        <pt x="386" y="543" on="0"/>
        <pt x="339" y="588" on="0"/>
        <pt x="286" y="588" on="1"/>
        <pt x="194" y="588" on="1"/>
        <pt x="136" y="299" on="1"/>
      </contour>
    </TTGlyph>
    <TTGlyph name="R.sups" xMin="147" yMin="320" xMax="403" yMax="640">
      <contour>
        <pt x="403" y="640" on="1" overlap="1"/>
        <pt x="390" y="576" on="1"/>
        <pt x="378" y="512" on="1"/>
        <pt x="314" y="512" on="1"/>
        <pt x="326" y="576" on="1"/>
        <pt x="262" y="576" on="1"/>
        <pt x="250" y="512" on="1"/>
        <pt x="314" y="512" on="1"/>
        <pt x="301" y="448" on="1"/>
        <pt x="237" y="448" on="1"/>
        <pt x="211" y="320" on="1"/>
        <pt x="147" y="320" on="1"/>
        <pt x="186" y="512" on="1"/>
        <pt x="198" y="576" on="1"/>
        <pt x="211" y="640" on="1"/>
      </contour>
      <contour>
        <pt x="301" y="448" on="1"/>
        <pt x="365" y="448" on="1"/>
        <pt x="339" y="320" on="1"/>
        <pt x="275" y="320" on="1"/>
      </contour>
    </TTGlyph>
    <TTGlyph name="Racute" xMin="19" yMin="0" xMax="447" yMax="841">
      <component glyphName="R" x="0" y="0" flags="0x400"/>
      <component glyphName="acutecomb.case" x="-16" y="0" flags="0x400"/>
    </TTGlyph>
    <TTGlyph name="Rcaron" xMin="19" yMin="0" xMax="463" yMax="839">
      <component glyphName="R" x="0" y="0" flags="0x400"/>
      <component glyphName="uni030C.case" x="-16" y="0" flags="0x400"/>
    </TTGlyph>
    <TTGlyph name="Rho" xMin="19" yMin="0" xMax="442" yMax="640">
      <component glyphName="P" x="0" y="0" flags="0x400"/>
    </TTGlyph>
    <TTGlyph name="S" xMin="18" yMin="-8" xMax="448" yMax="648">
      <contour>
        <pt x="124" y="-8" on="0" overlap="1"/>
        <pt x="49" y="7" on="0"/>
        <pt x="18" y="22" on="1"/>
        <pt x="36" y="67" on="1"/>
        <pt x="94" y="44" on="0"/>
        <pt x="161" y="44" on="1"/>
        <pt x="238" y="44" on="0"/>
        <pt x="314" y="105" on="0"/>
        <pt x="314" y="156" on="1"/>
        <pt x="314" y="184" on="0"/>
        <pt x="290" y="225" on="0"/>
        <pt x="255" y="253" on="0"/>
        <pt x="223" y="274" on="1"/>
        <pt x="186" y="297" on="0"/>
        <pt x="140" y="337" on="0"/>
        <pt x="108" y="399" on="0"/>
        <pt x="108" y="444" on="1"/>
        <pt x="108" y="537" on="0"/>
        <pt x="223" y="648" on="0"/>
        <pt x="334" y="648" on="1"/>
        <pt x="396" y="648" on="0"/>
        <pt x="448" y="630" on="1"/>
        <pt x="433" y="583" on="1"/>
        <pt x="386" y="596" on="0"/>
        <pt x="334" y="596" on="1"/>
        <pt x="250" y="596" on="0"/>
        <pt x="167" y="520" on="0"/>
        <pt x="167" y="448" on="1"/>
        <pt x="167" y="416" on="0"/>
        <pt x="193" y="369" on="0"/>
        <pt x="232" y="337" on="0"/>
        <pt x="264" y="317" on="1"/>
        <pt x="300" y="294" on="0"/>
        <pt x="343" y="258" on="0"/>
        <pt x="373" y="202" on="0"/>
        <pt x="373" y="161" on="1"/>
        <pt x="373" y="84" on="0"/>
        <pt x="264" y="-8" on="0"/>
        <pt x="161" y="-8" on="1"/>
      </contour>
    </TTGlyph>
    <TTGlyph name="S.sups" xMin="147" yMin="316" xMax="395" yMax="644">
      <contour>
        <pt x="191" y="316" on="0" overlap="1"/>
        <pt x="147" y="326" on="1"/>
        <pt x="163" y="377" on="1"/>
        <pt x="214" y="370" on="0"/>
        <pt x="233" y="370" on="1"/>
        <pt x="285" y="370" on="0"/>
        <pt x="294" y="415" on="1"/>
        <pt x="295" y="419" on="0"/>
        <pt x="295" y="426" on="1"/>
        <pt x="295" y="438" on="0"/>
        <pt x="278" y="449" on="0"/>
        <pt x="252" y="459" on="1"/>
        <pt x="222" y="469" on="0"/>
        <pt x="191" y="502" on="0"/>
        <pt x="191" y="530" on="1"/>
        <pt x="191" y="577" on="0"/>
        <pt x="250" y="644" on="0"/>
        <pt x="314" y="644" on="1"/>
        <pt x="357" y="644" on="0"/>
        <pt x="395" y="634" on="1"/>
        <pt x="379" y="583" on="1"/>
        <pt x="339" y="590" on="0"/>
        <pt x="315" y="590" on="1"/>
        <pt x="291" y="590" on="0"/>
        <pt x="261" y="568" on="0"/>
        <pt x="257" y="547" on="1"/>
        <pt x="256" y="544" on="0"/>
        <pt x="256" y="538" on="1"/>
        <pt x="256" y="528" on="0"/>
        <pt x="269" y="518" on="0"/>
        <pt x="289" y="511" on="0"/>
        <pt x="293" y="509" on="1"/>
        <pt x="327" y="498" on="0"/>
        <pt x="360" y="466" on="0"/>
        <pt x="360" y="436" on="1"/>
        <pt x="360" y="424" on="0"/>
        <pt x="357" y="407" on="1"/>
        <pt x="348" y="364" on="0"/>
        <pt x="287" y="316" on="0"/>
        <pt x="236" y="316" on="1"/>
      </contour>
    </TTGlyph>
    <TTGlyph name="Sacute" xMin="18" yMin="-8" xMax="451" yMax="841">
      <component glyphName="S" x="0" y="0" flags="0x400"/>
      <component glyphName="acutecomb.case" x="0" y="0" flags="0x400"/>
    </TTGlyph>
    <TTGlyph name="Scaron" xMin="18" yMin="-8" xMax="479" yMax="839">
      <component glyphName="S" x="0" y="0" flags="0x400"/>
      <component glyphName="uni030C.case" x="0" y="0" flags="0x400"/>
    </TTGlyph>
    <TTGlyph name="Scedilla" xMin="18" yMin="-192" xMax="448" yMax="648">
      <component glyphName="S" x="0" y="0" flags="0x400"/>
      <component glyphName="uni0327" x="12" y="0" flags="0x400"/>
    </TTGlyph>
    <TTGlyph name="Scircumflex" xMin="18" yMin="-8" xMax="450" yMax="841">
      <component glyphName="S" x="0" y="0" flags="0x400"/>
      <component glyphName="uni0302.case" x="0" y="0" flags="0x400"/>
    </TTGlyph>
    <TTGlyph name="Sigma" xMin="14" yMin="0" xMax="468" yMax="640">
      <contour>
        <pt x="213" y="320" on="1" overlap="1"/>
        <pt x="214" y="320" on="1"/>
        <pt x="146" y="597" on="1"/>
        <pt x="145" y="597" on="1"/>
        <pt x="154" y="640" on="1"/>
        <pt x="468" y="640" on="1"/>
        <pt x="457" y="588" on="1"/>
        <pt x="210" y="588" on="1"/>
        <pt x="276" y="320" on="1"/>
        <pt x="277" y="320" on="1"/>
        <pt x="92" y="52" on="1"/>
        <pt x="350" y="52" on="1"/>
        <pt x="340" y="0" on="1"/>
        <pt x="14" y="0" on="1"/>
        <pt x="22" y="43" on="1"/>
      </contour>
    </TTGlyph>
    <TTGlyph name="T" xMin="123" yMin="0" xMax="480" yMax="640">
      <contour>
        <pt x="326" y="588" on="1" overlap="1"/>
        <pt x="209" y="0" on="1"/>
        <pt x="149" y="0" on="1"/>
        <pt x="267" y="588" on="1"/>
        <pt x="123" y="588" on="1"/>
        <pt x="134" y="640" on="1"/>
        <pt x="480" y="640" on="1"/>
        <pt x="469" y="588" on="1"/>
      </contour>
    </TTGlyph>
    <TTGlyph name="T.sups" xMin="192" yMin="320" xMax="411" yMax="640">
      <contour>
        <pt x="400" y="584" on="1" overlap="1"/>
        <pt x="328" y="584" on="1"/>
        <pt x="275" y="320" on="1"/>
        <pt x="211" y="320" on="1"/>
        <pt x="264" y="584" on="1"/>
        <pt x="192" y="584" on="1"/>
        <pt x="203" y="640" on="1"/>
        <pt x="411" y="640" on="1"/>
      </contour>
    </TTGlyph>
    <TTGlyph name="Tau" xMin="123" yMin="0" xMax="480" yMax="640">
      <component glyphName="T" x="0" y="0" flags="0x400"/>
    </TTGlyph>
    <TTGlyph name="Tbar" xMin="88" yMin="0" xMax="480" yMax="640">
      <contour>
        <pt x="261" y="261" on="1" overlap="1"/>
        <pt x="209" y="0" on="1"/>
        <pt x="149" y="0" on="1"/>
        <pt x="201" y="261" on="1"/>
        <pt x="88" y="261" on="1"/>
        <pt x="88" y="315" on="1"/>
        <pt x="212" y="315" on="1"/>
        <pt x="267" y="588" on="1"/>
        <pt x="123" y="588" on="1"/>
        <pt x="134" y="640" on="1"/>
        <pt x="480" y="640" on="1"/>
        <pt x="469" y="588" on="1"/>
        <pt x="326" y="588" on="1"/>
        <pt x="272" y="315" on="1"/>
        <pt x="361" y="315" on="1"/>
        <pt x="361" y="261" on="1"/>
      </contour>
    </TTGlyph>
    <TTGlyph name="Tcaron" xMin="123" yMin="0" xMax="480" yMax="839">
      <component glyphName="T" x="0" y="0" flags="0x400"/>
      <component glyphName="uni030C.case" x="0" y="0" flags="0x400"/>
    </TTGlyph>
    <TTGlyph name="Theta" xMin="45" yMin="-10" xMax="474" yMax="650">
      <contour>
        <pt x="45" y="-10" on="0" overlap="1"/>
        <pt x="45" y="180" on="1"/>
        <pt x="45" y="244" on="0"/>
        <pt x="61" y="324" on="1"/>
        <pt x="94" y="489" on="0"/>
        <pt x="222" y="650" on="0"/>
        <pt x="321" y="650" on="1"/>
        <pt x="399" y="650" on="0"/>
        <pt x="474" y="557" on="0"/>
        <pt x="474" y="464" on="1"/>
        <pt x="474" y="402" on="0"/>
        <pt x="457" y="314" on="1"/>
        <pt x="424" y="151" on="0"/>
        <pt x="298" y="-10" on="0"/>
        <pt x="197" y="-10" on="1"/>
      </contour>
      <contour>
        <pt x="103" y="211" on="0"/>
        <pt x="103" y="166" on="1"/>
        <pt x="103" y="102" on="0"/>
        <pt x="150" y="43" on="0"/>
        <pt x="200" y="43" on="1"/>
        <pt x="266" y="43" on="0"/>
        <pt x="354" y="146" on="0"/>
        <pt x="382" y="259" on="1"/>
        <pt x="111" y="259" on="1"/>
      </contour>
      <contour>
        <pt x="384" y="317" on="1"/>
        <pt x="384" y="265" on="1"/>
        <pt x="390" y="289" on="0"/>
        <pt x="397" y="324" on="1"/>
        <pt x="416" y="421" on="0"/>
        <pt x="416" y="474" on="1"/>
        <pt x="416" y="538" on="0"/>
        <pt x="369" y="597" on="0"/>
        <pt x="319" y="597" on="1"/>
        <pt x="244" y="597" on="0"/>
        <pt x="152" y="466" on="0"/>
        <pt x="122" y="317" on="1"/>
      </contour>
    </TTGlyph>
    <TTGlyph name="Thorn" xMin="19" yMin="0" xMax="421" yMax="640">
      <contour>
        <pt x="340" y="506" on="0" overlap="1"/>
        <pt x="421" y="432" on="0"/>
        <pt x="421" y="364" on="1"/>
        <pt x="421" y="343" on="0"/>
        <pt x="416" y="313" on="1"/>
        <pt x="398" y="225" on="0"/>
        <pt x="283" y="134" on="0"/>
        <pt x="197" y="134" on="1"/>
        <pt x="104" y="134" on="1"/>
        <pt x="77" y="0" on="1"/>
        <pt x="19" y="0" on="1"/>
        <pt x="147" y="640" on="1"/>
        <pt x="205" y="640" on="1"/>
        <pt x="178" y="506" on="1"/>
        <pt x="268" y="506" on="1"/>
      </contour>
      <contour>
        <pt x="199" y="186" on="1"/>
        <pt x="270" y="186" on="0"/>
        <pt x="344" y="257" on="0"/>
        <pt x="358" y="323" on="1"/>
        <pt x="363" y="350" on="0"/>
        <pt x="363" y="367" on="1"/>
        <pt x="363" y="409" on="0"/>
        <pt x="314" y="454" on="0"/>
        <pt x="257" y="454" on="1"/>
        <pt x="168" y="454" on="1"/>
        <pt x="114" y="186" on="1"/>
      </contour>
    </TTGlyph>
    <TTGlyph name="U" xMin="63" yMin="-8" xMax="484" yMax="640">
      <contour>
        <pt x="221" y="640" on="1" overlap="1"/>
        <pt x="125" y="162" on="1"/>
        <pt x="119" y="137" on="0"/>
        <pt x="119" y="114" on="1"/>
        <pt x="119" y="80" on="0"/>
        <pt x="156" y="44" on="0"/>
        <pt x="200" y="44" on="1"/>
        <pt x="306" y="44" on="0"/>
        <pt x="331" y="167" on="1"/>
        <pt x="426" y="640" on="1"/>
        <pt x="484" y="640" on="1"/>
        <pt x="389" y="166" on="1"/>
        <pt x="371" y="76" on="0"/>
        <pt x="271" y="-8" on="0"/>
        <pt x="198" y="-8" on="1"/>
        <pt x="135" y="-8" on="0"/>
        <pt x="63" y="54" on="0"/>
        <pt x="63" y="117" on="1"/>
        <pt x="63" y="145" on="0"/>
        <pt x="68" y="169" on="1"/>
        <pt x="163" y="640" on="1"/>
      </contour>
    </TTGlyph>
    <TTGlyph name="U.sups" xMin="160" yMin="320" xMax="403" yMax="640">
      <contour>
        <pt x="275" y="640" on="1" overlap="1"/>
        <pt x="262" y="576" on="1"/>
        <pt x="250" y="512" on="1"/>
        <pt x="224" y="384" on="1"/>
        <pt x="160" y="384" on="1"/>
        <pt x="186" y="512" on="1"/>
        <pt x="198" y="576" on="1"/>
        <pt x="211" y="640" on="1"/>
      </contour>
      <contour>
        <pt x="224" y="384" on="1"/>
        <pt x="288" y="384" on="1"/>
        <pt x="314" y="512" on="1"/>
        <pt x="326" y="576" on="1"/>
        <pt x="339" y="640" on="1"/>
        <pt x="403" y="640" on="1"/>
        <pt x="390" y="576" on="1"/>
        <pt x="378" y="512" on="1"/>
        <pt x="339" y="320" on="1"/>
        <pt x="211" y="320" on="1"/>
      </contour>
    </TTGlyph>
    <TTGlyph name="Uacute" xMin="63" yMin="-8" xMax="484" yMax="841">
      <component glyphName="U" x="0" y="0" flags="0x400"/>
      <component glyphName="acutecomb.case" x="16" y="0" flags="0x400"/>
    </TTGlyph>
    <TTGlyph name="Ubreve" xMin="63" yMin="-8" xMax="487" yMax="833">
      <component glyphName="U" x="0" y="0" flags="0x400"/>
      <component glyphName="uni0306.case" x="16" y="0" flags="0x400"/>
    </TTGlyph>
    <TTGlyph name="Ucircumflex" xMin="63" yMin="-8" xMax="484" yMax="841">
      <component glyphName="U" x="0" y="0" flags="0x400"/>
      <component glyphName="uni0302.case" x="16" y="0" flags="0x400"/>
    </TTGlyph>
    <TTGlyph name="Udieresis" xMin="63" yMin="-8" xMax="488" yMax="813">
      <component glyphName="U" x="0" y="0" flags="0x400"/>
      <component glyphName="uni0308.case" x="16" y="0" flags="0x400"/>
    </TTGlyph>
    <TTGlyph name="Ugrave" xMin="63" yMin="-8" xMax="484" yMax="837">
      <component glyphName="U" x="0" y="0" flags="0x400"/>
      <component glyphName="gravecomb.case" x="16" y="0" flags="0x400"/>
    </TTGlyph>
    <TTGlyph name="Uhorn" xMin="63" yMin="-8" xMax="564" yMax="768">
      <component glyphName="U" x="0" y="0" flags="0x400"/>
      <component glyphName="uni031B.case" x="16" y="0" flags="0x400"/>
    </TTGlyph>
    <TTGlyph name="Uhungarumlaut" xMin="63" yMin="-8" xMax="494" yMax="832">
      <component glyphName="U" x="0" y="0" flags="0x400"/>
      <component glyphName="uni030B.case" x="16" y="0" flags="0x400"/>
    </TTGlyph>
    <TTGlyph name="Umacron" xMin="63" yMin="-8" xMax="484" yMax="772">
      <component glyphName="U" x="0" y="0" flags="0x400"/>
      <component glyphName="uni0304.case" x="16" y="0" flags="0x400"/>
    </TTGlyph>
    <TTGlyph name="Uogonek" xMin="63" yMin="-197" xMax="484" yMax="640">
      <component glyphName="U" x="0" y="0" flags="0x400"/>
      <component glyphName="uni0328" x="-81" y="0" flags="0x400"/>
    </TTGlyph>
    <TTGlyph name="Upsilon" xMin="119" yMin="0" xMax="493" yMax="640">
      <component glyphName="Y" x="0" y="0" flags="0x400"/>
    </TTGlyph>
    <TTGlyph name="Upsilondieresis" xMin="119" yMin="0" xMax="493" yMax="813">
      <component glyphName="Y" x="0" y="0" flags="0x400"/>
      <component glyphName="uni0308.case" x="0" y="0" flags="0x400"/>
    </TTGlyph>
    <TTGlyph name="Upsilontonos" xMin="3" yMin="0" xMax="493" yMax="704">
      <component glyphName="Y" x="0" y="0" flags="0x400"/>
      <component glyphName="tonos" x="-256" y="0" flags="0x400"/>
    </TTGlyph>
    <TTGlyph name="Uring" xMin="63" yMin="-8" xMax="484" yMax="883">
      <component glyphName="U" x="0" y="0" flags="0x400"/>
      <component glyphName="uni030A.case" x="16" y="0" flags="0x400"/>
    </TTGlyph>
    <TTGlyph name="Utilde" xMin="63" yMin="-8" xMax="509" yMax="837">
      <component glyphName="U" x="0" y="0" flags="0x400"/>
      <component glyphName="tildecomb.case" x="16" y="0" flags="0x400"/>
    </TTGlyph>
    <TTGlyph name="V" xMin="107" yMin="-4" xMax="493" yMax="640">
      <contour>
        <pt x="107" y="152" on="0" overlap="1"/>
        <pt x="107" y="376" on="1"/>
        <pt x="107" y="509" on="0"/>
        <pt x="123" y="640" on="1"/>
        <pt x="183" y="640" on="1"/>
        <pt x="167" y="493" on="0"/>
        <pt x="167" y="359" on="1"/>
        <pt x="167" y="195" on="0"/>
        <pt x="192" y="73" on="1"/>
        <pt x="258" y="179" on="0"/>
        <pt x="382" y="469" on="0"/>
        <pt x="431" y="640" on="1"/>
        <pt x="493" y="640" on="1"/>
        <pt x="439" y="454" on="0"/>
        <pt x="291" y="120" on="0"/>
        <pt x="205" y="-4" on="1"/>
        <pt x="156" y="-4" on="1"/>
      </contour>
    </TTGlyph>
    <TTGlyph name="V.sups" xMin="188" yMin="318" xMax="424" yMax="642">
      <contour>
        <pt x="248" y="587" on="0" overlap="1"/>
        <pt x="248" y="536" on="1"/>
        <pt x="248" y="454" on="0"/>
        <pt x="255" y="384" on="1"/>
        <pt x="322" y="517" on="0"/>
        <pt x="363" y="642" on="1"/>
        <pt x="424" y="638" on="1"/>
        <pt x="371" y="476" on="0"/>
        <pt x="272" y="318" on="1"/>
        <pt x="216" y="322" on="1"/>
        <pt x="188" y="452" on="0"/>
        <pt x="188" y="574" on="1"/>
        <pt x="188" y="619" on="0"/>
        <pt x="190" y="642" on="1"/>
        <pt x="251" y="638" on="1"/>
      </contour>
    </TTGlyph>
    <TTGlyph name="W" xMin="70" yMin="0" xMax="489" yMax="640">
      <contour>
        <pt x="70" y="62" on="0" overlap="1"/>
        <pt x="70" y="121" on="1"/>
        <pt x="70" y="239" on="0"/>
        <pt x="97" y="484" on="0"/>
        <pt x="127" y="640" on="1"/>
        <pt x="185" y="640" on="1"/>
        <pt x="151" y="467" on="0"/>
        <pt x="120" y="207" on="0"/>
        <pt x="117" y="72" on="1"/>
        <pt x="163" y="174" on="0"/>
        <pt x="225" y="355" on="0"/>
        <pt x="243" y="448" on="1"/>
        <pt x="295" y="448" on="1"/>
        <pt x="267" y="309" on="0"/>
        <pt x="267" y="160" on="1"/>
        <pt x="267" y="131" on="0"/>
        <pt x="269" y="71" on="1"/>
        <pt x="321" y="207" on="0"/>
        <pt x="395" y="469" on="0"/>
        <pt x="430" y="640" on="1"/>
        <pt x="489" y="640" on="1"/>
        <pt x="447" y="442" on="0"/>
        <pt x="356" y="151" on="0"/>
        <pt x="287" y="0" on="1"/>
        <pt x="234" y="0" on="1"/>
        <pt x="225" y="69" on="0"/>
        <pt x="225" y="136" on="1"/>
        <pt x="225" y="191" on="0"/>
        <pt x="231" y="254" on="1"/>
        <pt x="195" y="127" on="0"/>
        <pt x="128" y="0" on="1"/>
        <pt x="73" y="0" on="1"/>
      </contour>
    </TTGlyph>
    <TTGlyph name="W.sups" xMin="147" yMin="320" xMax="403" yMax="640">
      <contour>
        <pt x="275" y="640" on="1" overlap="1"/>
        <pt x="262" y="576" on="1"/>
        <pt x="326" y="576" on="1"/>
        <pt x="339" y="640" on="1"/>
        <pt x="403" y="640" on="1"/>
        <pt x="390" y="576" on="1"/>
        <pt x="378" y="512" on="1"/>
        <pt x="339" y="320" on="1"/>
        <pt x="147" y="320" on="1"/>
        <pt x="186" y="512" on="1"/>
        <pt x="198" y="576" on="1"/>
        <pt x="211" y="640" on="1"/>
      </contour>
    </TTGlyph>
    <TTGlyph name="Wacute" xMin="70" yMin="0" xMax="489" yMax="841">
      <component glyphName="W" x="0" y="0" flags="0x400"/>
      <component glyphName="acutecomb.case" x="0" y="0" flags="0x400"/>
    </TTGlyph>
    <TTGlyph name="Wcircumflex" xMin="70" yMin="0" xMax="489" yMax="841">
      <component glyphName="W" x="0" y="0" flags="0x400"/>
      <component glyphName="uni0302.case" x="0" y="0" flags="0x400"/>
    </TTGlyph>
    <TTGlyph name="Wdieresis" xMin="70" yMin="0" xMax="489" yMax="813">
      <component glyphName="W" x="0" y="0" flags="0x400"/>
      <component glyphName="uni0308.case" x="0" y="0" flags="0x400"/>
    </TTGlyph>
    <TTGlyph name="Wgrave" xMin="70" yMin="0" xMax="489" yMax="837">
      <component glyphName="W" x="0" y="0" flags="0x400"/>
      <component glyphName="gravecomb.case" x="0" y="0" flags="0x400"/>
    </TTGlyph>
    <TTGlyph name="X" xMin="5" yMin="0" xMax="472" yMax="640">
      <contour>
        <pt x="44" y="99" on="0" overlap="1"/>
        <pt x="127" y="232" on="0"/>
        <pt x="199" y="304" on="1"/>
        <pt x="166" y="354" on="0"/>
        <pt x="137" y="455" on="0"/>
        <pt x="137" y="524" on="1"/>
        <pt x="137" y="578" on="0"/>
        <pt x="144" y="640" on="1"/>
        <pt x="201" y="640" on="1"/>
        <pt x="193" y="562" on="0"/>
        <pt x="193" y="517" on="1"/>
        <pt x="193" y="458" on="0"/>
        <pt x="217" y="376" on="0"/>
        <pt x="245" y="333" on="1"/>
        <pt x="305" y="387" on="0"/>
        <pt x="378" y="522" on="0"/>
        <pt x="413" y="640" on="1"/>
        <pt x="472" y="640" on="1"/>
        <pt x="435" y="515" on="0"/>
        <pt x="351" y="362" on="0"/>
        <pt x="279" y="295" on="1"/>
        <pt x="323" y="228" on="0"/>
        <pt x="352" y="99" on="0"/>
        <pt x="351" y="0" on="1"/>
        <pt x="293" y="0" on="1"/>
        <pt x="294" y="96" on="0"/>
        <pt x="269" y="206" on="0"/>
        <pt x="232" y="265" on="1"/>
        <pt x="174" y="207" on="0"/>
        <pt x="104" y="93" on="0"/>
        <pt x="67" y="0" on="1"/>
        <pt x="5" y="0" on="1"/>
      </contour>
    </TTGlyph>
    <TTGlyph name="X.sups" xMin="147" yMin="320" xMax="403" yMax="640">
      <contour>
        <pt x="275" y="640" on="1" overlap="1"/>
        <pt x="262" y="576" on="1"/>
        <pt x="250" y="512" on="1"/>
        <pt x="186" y="512" on="1"/>
        <pt x="198" y="576" on="1"/>
        <pt x="211" y="640" on="1"/>
      </contour>
      <contour>
        <pt x="173" y="448" on="1"/>
        <pt x="237" y="448" on="1"/>
        <pt x="211" y="320" on="1"/>
        <pt x="147" y="320" on="1"/>
      </contour>
      <contour>
        <pt x="250" y="512" on="1"/>
        <pt x="314" y="512" on="1"/>
        <pt x="301" y="448" on="1"/>
        <pt x="237" y="448" on="1"/>
      </contour>
      <contour>
        <pt x="301" y="448" on="1"/>
        <pt x="365" y="448" on="1"/>
        <pt x="339" y="320" on="1"/>
        <pt x="275" y="320" on="1"/>
      </contour>
      <contour>
        <pt x="326" y="576" on="1"/>
        <pt x="339" y="640" on="1"/>
        <pt x="403" y="640" on="1"/>
        <pt x="390" y="576" on="1"/>
        <pt x="378" y="512" on="1"/>
        <pt x="314" y="512" on="1"/>
      </contour>
    </TTGlyph>
    <TTGlyph name="Xi" xMin="5" yMin="0" xMax="476" yMax="640">
      <contour>
        <pt x="476" y="640" on="1" overlap="1"/>
        <pt x="465" y="588" on="1"/>
        <pt x="127" y="588" on="1"/>
        <pt x="138" y="640" on="1"/>
      </contour>
      <contour>
        <pt x="16" y="52" on="1"/>
        <pt x="364" y="52" on="1"/>
        <pt x="353" y="0" on="1"/>
        <pt x="5" y="0" on="1"/>
      </contour>
      <contour>
        <pt x="122" y="314" on="1"/>
        <pt x="362" y="314" on="1"/>
        <pt x="351" y="262" on="1"/>
        <pt x="111" y="262" on="1"/>
      </contour>
    </TTGlyph>
    <TTGlyph name="Y" xMin="119" yMin="0" xMax="493" yMax="640">
      <contour>
        <pt x="191" y="202" on="1" overlap="1"/>
        <pt x="119" y="333" on="0"/>
        <pt x="119" y="528" on="1"/>
        <pt x="119" y="575" on="0"/>
        <pt x="124" y="640" on="1"/>
        <pt x="180" y="640" on="1"/>
        <pt x="175" y="572" on="0"/>
        <pt x="175" y="525" on="1"/>
        <pt x="175" y="445" on="0"/>
        <pt x="199" y="310" on="0"/>
        <pt x="225" y="241" on="1"/>
        <pt x="297" y="332" on="0"/>
        <pt x="392" y="515" on="0"/>
        <pt x="433" y="640" on="1"/>
        <pt x="493" y="640" on="1"/>
        <pt x="449" y="498" on="0"/>
        <pt x="330" y="286" on="0"/>
        <pt x="249" y="202" on="1"/>
        <pt x="241" y="202" on="1"/>
        <pt x="249" y="202" on="1"/>
        <pt x="208" y="0" on="1"/>
        <pt x="150" y="0" on="1"/>
      </contour>
    </TTGlyph>
    <TTGlyph name="Y.sups" xMin="147" yMin="320" xMax="403" yMax="640">
      <contour>
        <pt x="275" y="640" on="1" overlap="1"/>
        <pt x="262" y="576" on="1"/>
        <pt x="250" y="512" on="1"/>
        <pt x="314" y="512" on="1"/>
        <pt x="326" y="576" on="1"/>
        <pt x="339" y="640" on="1"/>
        <pt x="403" y="640" on="1"/>
        <pt x="390" y="576" on="1"/>
        <pt x="378" y="512" on="1"/>
        <pt x="352" y="384" on="1"/>
        <pt x="288" y="384" on="1"/>
        <pt x="301" y="448" on="1"/>
        <pt x="173" y="448" on="1"/>
        <pt x="186" y="512" on="1"/>
        <pt x="198" y="576" on="1"/>
        <pt x="211" y="640" on="1"/>
      </contour>
      <contour>
        <pt x="160" y="384" on="1"/>
        <pt x="288" y="384" on="1"/>
        <pt x="275" y="320" on="1"/>
        <pt x="147" y="320" on="1"/>
      </contour>
    </TTGlyph>
    <TTGlyph name="Yacute" xMin="119" yMin="0" xMax="493" yMax="841">
      <component glyphName="Y" x="0" y="0" flags="0x400"/>
      <component glyphName="acutecomb.case" x="0" y="0" flags="0x400"/>
    </TTGlyph>
    <TTGlyph name="Ycircumflex" xMin="119" yMin="0" xMax="493" yMax="841">
      <component glyphName="Y" x="0" y="0" flags="0x400"/>
      <component glyphName="uni0302.case" x="0" y="0" flags="0x400"/>
    </TTGlyph>
    <TTGlyph name="Ydieresis" xMin="119" yMin="0" xMax="493" yMax="813">
      <component glyphName="Y" x="0" y="0" flags="0x400"/>
      <component glyphName="uni0308.case" x="0" y="0" flags="0x400"/>
    </TTGlyph>
    <TTGlyph name="Ygrave" xMin="119" yMin="0" xMax="493" yMax="837">
      <component glyphName="Y" x="0" y="0" flags="0x400"/>
      <component glyphName="gravecomb.case" x="0" y="0" flags="0x400"/>
    </TTGlyph>
    <TTGlyph name="Z" xMin="14" yMin="0" xMax="468" yMax="640">
      <contour>
        <pt x="22" y="43" on="1" overlap="1"/>
        <pt x="389" y="588" on="1"/>
        <pt x="143" y="588" on="1"/>
        <pt x="154" y="640" on="1"/>
        <pt x="468" y="640" on="1"/>
        <pt x="459" y="597" on="1"/>
        <pt x="460" y="597" on="1"/>
        <pt x="92" y="52" on="1"/>
        <pt x="350" y="52" on="1"/>
        <pt x="340" y="0" on="1"/>
        <pt x="14" y="0" on="1"/>
      </contour>
    </TTGlyph>
    <TTGlyph name="Z.sups" xMin="147" yMin="320" xMax="403" yMax="640">
      <contour>
        <pt x="403" y="640" on="1" overlap="1"/>
        <pt x="390" y="576" on="1"/>
        <pt x="378" y="512" on="1"/>
        <pt x="314" y="512" on="1"/>
        <pt x="326" y="576" on="1"/>
        <pt x="198" y="576" on="1"/>
        <pt x="211" y="640" on="1"/>
      </contour>
      <contour>
        <pt x="173" y="448" on="1"/>
        <pt x="237" y="448" on="1"/>
        <pt x="224" y="384" on="1"/>
        <pt x="352" y="384" on="1"/>
        <pt x="339" y="320" on="1"/>
        <pt x="147" y="320" on="1"/>
      </contour>
      <contour>
        <pt x="250" y="512" on="1"/>
        <pt x="314" y="512" on="1"/>
        <pt x="301" y="448" on="1"/>
        <pt x="237" y="448" on="1"/>
      </contour>
    </TTGlyph>
    <TTGlyph name="Zacute" xMin="14" yMin="0" xMax="468" yMax="841">
      <component glyphName="Z" x="0" y="0" flags="0x400"/>
      <component glyphName="acutecomb.case" x="0" y="0" flags="0x400"/>
    </TTGlyph>
    <TTGlyph name="Zcaron" xMin="14" yMin="0" xMax="479" yMax="839">
      <component glyphName="Z" x="0" y="0" flags="0x400"/>
      <component glyphName="uni030C.case" x="0" y="0" flags="0x400"/>
    </TTGlyph>
    <TTGlyph name="Zdotaccent" xMin="14" yMin="0" xMax="468" yMax="839">
      <component glyphName="Z" x="0" y="0" flags="0x400"/>
      <component glyphName="uni0307" x="38" y="192" flags="0x404"/>
    </TTGlyph>
    <TTGlyph name="Zeta" xMin="14" yMin="0" xMax="468" yMax="640">
      <component glyphName="Z" x="0" y="0" flags="0x400"/>
    </TTGlyph>
    <TTGlyph name="_part.slash.comp" xMin="68" yMin="148" xMax="398" yMax="390">
      <contour>
        <pt x="371" y="390" on="1" overlap="1"/>
        <pt x="398" y="338" on="1"/>
        <pt x="95" y="148" on="1"/>
        <pt x="68" y="200" on="1"/>
      </contour>
    </TTGlyph>
    <TTGlyph name="a" xMin="19" yMin="-4" xMax="374" yMax="452">
      <contour>
        <pt x="263" y="47" on="1" overlap="1"/>
        <pt x="222" y="22" on="0"/>
        <pt x="154" y="-4" on="0"/>
        <pt x="119" y="-4" on="1"/>
        <pt x="74" y="-4" on="0"/>
        <pt x="19" y="45" on="0"/>
        <pt x="19" y="90" on="1"/>
        <pt x="19" y="105" on="0"/>
        <pt x="22" y="121" on="1"/>
        <pt x="49" y="258" on="0"/>
        <pt x="303" y="262" on="1"/>
        <pt x="310" y="295" on="1"/>
        <pt x="315" y="318" on="0"/>
        <pt x="315" y="341" on="1"/>
        <pt x="315" y="374" on="0"/>
        <pt x="282" y="399" on="0"/>
        <pt x="245" y="399" on="1"/>
        <pt x="190" y="399" on="0"/>
        <pt x="110" y="371" on="1"/>
        <pt x="99" y="419" on="1"/>
        <pt x="181" y="452" on="0"/>
        <pt x="251" y="452" on="1"/>
        <pt x="374" y="452" on="0"/>
        <pt x="374" y="350" on="1"/>
        <pt x="374" y="332" on="0"/>
        <pt x="369" y="304" on="1"/>
        <pt x="322" y="64" on="1"/>
        <pt x="313" y="0" on="1"/>
        <pt x="259" y="0" on="1"/>
      </contour>
      <contour>
        <pt x="80" y="101" on="0"/>
        <pt x="80" y="95" on="1"/>
        <pt x="80" y="49" on="0"/>
        <pt x="128" y="49" on="1"/>
        <pt x="161" y="49" on="0"/>
        <pt x="228" y="76" on="0"/>
        <pt x="272" y="104" on="1"/>
        <pt x="294" y="212" on="1"/>
        <pt x="191" y="210" on="0"/>
        <pt x="91" y="160" on="0"/>
        <pt x="82" y="113" on="1"/>
      </contour>
    </TTGlyph>
    <TTGlyph name="aacute" xMin="19" yMin="-4" xMax="400" yMax="649">
      <component glyphName="a" x="0" y="0" flags="0x400"/>
      <component glyphName="acutecomb" x="-13" y="0" flags="0x400"/>
    </TTGlyph>
    <TTGlyph name="abreve" xMin="19" yMin="-4" xMax="419" yMax="641">
      <component glyphName="a" x="0" y="0" flags="0x400"/>
      <component glyphName="uni0306" x="-13" y="0" flags="0x400"/>
    </TTGlyph>
    <TTGlyph name="acircumflex" xMin="19" yMin="-4" xMax="399" yMax="649">
      <component glyphName="a" x="0" y="0" flags="0x400"/>
      <component glyphName="uni0302" x="-13" y="0" flags="0x400"/>
    </TTGlyph>
    <TTGlyph name="acute" xMin="186" yMin="384" xMax="391" yMax="640">
      <contour>
        <pt x="186" y="384" on="1" overlap="1"/>
        <pt x="303" y="640" on="1"/>
        <pt x="391" y="640" on="1"/>
        <pt x="248" y="384" on="1"/>
      </contour>
    </TTGlyph>
    <TTGlyph name="acutecomb" xMin="255" yMin="513" xMax="413" yMax="649">
      <contour>
        <pt x="335" y="649" on="1" overlap="1"/>
        <pt x="413" y="649" on="1"/>
        <pt x="309" y="513" on="1"/>
        <pt x="255" y="513" on="1"/>
      </contour>
    </TTGlyph>
    <TTGlyph name="acutecomb.case" xMin="293" yMin="705" xMax="451" yMax="841">
      <component glyphName="acutecomb" x="38" y="192" flags="0x404"/>
    </TTGlyph>
    <TTGlyph name="adieresis" xMin="19" yMin="-4" xMax="425" yMax="645">
      <component glyphName="a" x="0" y="0" flags="0x400"/>
      <component glyphName="uni0308" x="-13" y="0" flags="0x400"/>
    </TTGlyph>
    <TTGlyph name="ae" xMin="30" yMin="-11" xMax="658" yMax="459">
      <contour>
        <pt x="361" y="-11" on="0" overlap="1"/>
        <pt x="324" y="49" on="1"/>
        <pt x="276" y="23" on="0"/>
        <pt x="190" y="-8" on="0"/>
        <pt x="146" y="-8" on="1"/>
        <pt x="94" y="-8" on="0"/>
        <pt x="30" y="44" on="0"/>
        <pt x="30" y="91" on="1"/>
        <pt x="30" y="105" on="0"/>
        <pt x="33" y="121" on="1"/>
        <pt x="47" y="190" on="0"/>
        <pt x="181" y="260" on="0"/>
        <pt x="320" y="264" on="1"/>
        <pt x="325" y="288" on="1"/>
        <pt x="330" y="311" on="0"/>
        <pt x="330" y="334" on="1"/>
        <pt x="330" y="365" on="0"/>
        <pt x="297" y="390" on="0"/>
        <pt x="258" y="390" on="1"/>
        <pt x="207" y="390" on="0"/>
        <pt x="129" y="362" on="1"/>
        <pt x="114" y="422" on="1"/>
        <pt x="193" y="455" on="0"/>
        <pt x="261" y="455" on="1"/>
        <pt x="363" y="455" on="0"/>
        <pt x="386" y="390" on="1"/>
        <pt x="441" y="459" on="0"/>
        <pt x="526" y="459" on="1"/>
        <pt x="590" y="459" on="0"/>
        <pt x="658" y="381" on="0"/>
        <pt x="658" y="310" on="1"/>
        <pt x="658" y="256" on="0"/>
        <pt x="641" y="198" on="1"/>
        <pt x="381" y="201" on="1"/>
        <pt x="374" y="165" on="0"/>
        <pt x="374" y="134" on="1"/>
        <pt x="374" y="90" on="0"/>
        <pt x="415" y="53" on="0"/>
        <pt x="462" y="53" on="1"/>
        <pt x="510" y="53" on="0"/>
        <pt x="584" y="77" on="1"/>
        <pt x="591" y="17" on="1"/>
        <pt x="522" y="-11" on="0"/>
        <pt x="455" y="-11" on="1"/>
      </contour>
      <contour>
        <pt x="106" y="101" on="0"/>
        <pt x="106" y="96" on="1"/>
        <pt x="106" y="56" on="0"/>
        <pt x="156" y="56" on="1"/>
        <pt x="215" y="56" on="0"/>
        <pt x="304" y="107" on="1"/>
        <pt x="302" y="119" on="0"/>
        <pt x="302" y="145" on="1"/>
        <pt x="302" y="176" on="0"/>
        <pt x="306" y="201" on="1"/>
        <pt x="208" y="198" on="0"/>
        <pt x="116" y="154" on="0"/>
        <pt x="108" y="113" on="1"/>
      </contour>
      <contour>
        <pt x="579" y="263" on="1"/>
        <pt x="585" y="295" on="0"/>
        <pt x="585" y="319" on="1"/>
        <pt x="585" y="358" on="0"/>
        <pt x="552" y="395" on="0"/>
        <pt x="518" y="395" on="1"/>
        <pt x="473" y="395" on="0"/>
        <pt x="414" y="333" on="0"/>
        <pt x="395" y="263" on="1"/>
      </contour>
    </TTGlyph>
    <TTGlyph name="aeacute" xMin="30" yMin="-11" xMax="658" yMax="649">
      <component glyphName="ae" x="0" y="0" flags="0x400"/>
      <component glyphName="acutecomb" x="128" y="0" flags="0x400"/>
    </TTGlyph>
    <TTGlyph name="agrave" xMin="19" yMin="-4" xMax="374" yMax="645">
      <component glyphName="a" x="0" y="0" flags="0x400"/>
      <component glyphName="gravecomb" x="-13" y="0" flags="0x400"/>
    </TTGlyph>
    <TTGlyph name="alpha" xMin="40" yMin="-8" xMax="445" yMax="456">
      <contour>
        <pt x="116" y="158" on="0" overlap="1"/>
        <pt x="116" y="120" on="1"/>
        <pt x="116" y="85" on="0"/>
        <pt x="138" y="56" on="0"/>
        <pt x="161" y="56" on="1"/>
        <pt x="199" y="56" on="0"/>
        <pt x="282" y="144" on="0"/>
        <pt x="314" y="226" on="1"/>
        <pt x="315" y="307" on="0"/>
        <pt x="271" y="392" on="0"/>
        <pt x="237" y="392" on="1"/>
        <pt x="198" y="392" on="0"/>
        <pt x="147" y="316" on="0"/>
        <pt x="129" y="222" on="1"/>
      </contour>
      <contour>
        <pt x="98" y="456" on="0"/>
        <pt x="236" y="456" on="1"/>
        <pt x="316" y="456" on="0"/>
        <pt x="352" y="361" on="1"/>
        <pt x="373" y="451" on="1"/>
        <pt x="445" y="446" on="1"/>
        <pt x="419" y="355" on="1"/>
        <pt x="399" y="283" on="0"/>
        <pt x="374" y="221" on="1"/>
        <pt x="374" y="154" on="0"/>
        <pt x="366" y="89" on="1"/>
        <pt x="355" y="2" on="1"/>
        <pt x="283" y="-3" on="1"/>
        <pt x="297" y="82" on="1"/>
        <pt x="228" y="-8" on="0"/>
        <pt x="152" y="-8" on="1"/>
        <pt x="94" y="-8" on="0"/>
        <pt x="40" y="65" on="0"/>
        <pt x="40" y="130" on="1"/>
        <pt x="40" y="173" on="0"/>
        <pt x="51" y="226" on="1"/>
      </contour>
    </TTGlyph>
    <TTGlyph name="alphatonos" xMin="40" yMin="-8" xMax="445" yMax="704">
      <component glyphName="alpha" x="0" y="0" flags="0x400"/>
      <component glyphName="tonos" x="0" y="0" flags="0x400"/>
    </TTGlyph>
    <TTGlyph name="amacron" xMin="19" yMin="-4" xMax="408" yMax="628">
      <component glyphName="a" x="0" y="0" flags="0x400"/>
      <component glyphName="uni0304" x="-13" y="0" flags="0x400"/>
    </TTGlyph>
    <TTGlyph name="ampersand" xMin="20" yMin="-10" xMax="442" yMax="542">
      <contour>
        <pt x="308" y="490" on="0" overlap="1"/>
        <pt x="267" y="490" on="1"/>
        <pt x="213" y="490" on="0"/>
        <pt x="154" y="438" on="0"/>
        <pt x="146" y="397" on="1"/>
        <pt x="144" y="383" on="0"/>
        <pt x="144" y="376" on="1"/>
        <pt x="144" y="314" on="0"/>
        <pt x="234" y="314" on="1"/>
        <pt x="442" y="314" on="1"/>
        <pt x="432" y="262" on="1"/>
        <pt x="373" y="262" on="1"/>
        <pt x="325" y="17" on="1"/>
        <pt x="286" y="4" on="0"/>
        <pt x="199" y="-10" on="0"/>
        <pt x="165" y="-10" on="1"/>
        <pt x="89" y="-10" on="0"/>
        <pt x="20" y="55" on="0"/>
        <pt x="20" y="109" on="1"/>
        <pt x="20" y="130" on="0"/>
        <pt x="24" y="149" on="1"/>
        <pt x="32" y="191" on="0"/>
        <pt x="90" y="266" on="0"/>
        <pt x="147" y="289" on="1"/>
        <pt x="117" y="302" on="0"/>
        <pt x="88" y="349" on="0"/>
        <pt x="88" y="379" on="1"/>
        <pt x="88" y="393" on="0"/>
        <pt x="91" y="408" on="1"/>
        <pt x="103" y="468" on="0"/>
        <pt x="197" y="542" on="0"/>
        <pt x="274" y="542" on="1"/>
        <pt x="322" y="542" on="0"/>
        <pt x="376" y="530" on="1"/>
        <pt x="360" y="481" on="1"/>
      </contour>
      <contour>
        <pt x="78" y="42" on="0"/>
        <pt x="162" y="42" on="1"/>
        <pt x="224" y="42" on="0"/>
        <pt x="274" y="56" on="1"/>
        <pt x="315" y="262" on="1"/>
        <pt x="240" y="262" on="1"/>
        <pt x="183" y="262" on="0"/>
        <pt x="110" y="215" on="0"/>
        <pt x="78" y="146" on="0"/>
        <pt x="78" y="110" on="1"/>
      </contour>
    </TTGlyph>
    <TTGlyph name="angle" xMin="32" yMin="64" xMax="370" yMax="522">
      <contour>
        <pt x="32" y="64" on="1" overlap="1"/>
        <pt x="44" y="128" on="1"/>
        <pt x="317" y="522" on="1"/>
        <pt x="370" y="494" on="1"/>
        <pt x="117" y="128" on="1"/>
        <pt x="365" y="128" on="1"/>
        <pt x="352" y="64" on="1"/>
      </contour>
    </TTGlyph>
    <TTGlyph name="anoteleia" xMin="137" yMin="344" xMax="254" yMax="458">
      <component glyphName="period" x="103" y="354" flags="0x404"/>
    </TTGlyph>
    <TTGlyph name="aogonek" xMin="19" yMin="-197" xMax="374" yMax="452">
      <component glyphName="a" x="0" y="0" flags="0x400"/>
      <component glyphName="uni0328" x="-21" y="0" flags="0x400"/>
    </TTGlyph>
    <TTGlyph name="approxequal" xMin="18" yMin="151" xMax="456" yMax="425">
      <contour>
        <pt x="273" y="151" on="0" overlap="1"/>
        <pt x="229" y="172" on="0"/>
        <pt x="202" y="191" on="1"/>
        <pt x="183" y="206" on="0"/>
        <pt x="154" y="220" on="0"/>
        <pt x="137" y="220" on="1"/>
        <pt x="112" y="220" on="0"/>
        <pt x="77" y="186" on="0"/>
        <pt x="64" y="152" on="1"/>
        <pt x="18" y="161" on="1"/>
        <pt x="36" y="215" on="0"/>
        <pt x="95" y="270" on="0"/>
        <pt x="139" y="270" on="1"/>
        <pt x="170" y="270" on="0"/>
        <pt x="214" y="249" on="0"/>
        <pt x="241" y="230" on="1"/>
        <pt x="260" y="215" on="0"/>
        <pt x="289" y="201" on="0"/>
        <pt x="306" y="201" on="1"/>
        <pt x="331" y="201" on="0"/>
        <pt x="366" y="235" on="0"/>
        <pt x="378" y="269" on="1"/>
        <pt x="424" y="260" on="1"/>
        <pt x="389" y="151" on="0"/>
        <pt x="304" y="151" on="1"/>
      </contour>
      <contour>
        <pt x="84" y="425" on="0"/>
        <pt x="170" y="425" on="1"/>
        <pt x="202" y="425" on="0"/>
        <pt x="245" y="405" on="0"/>
        <pt x="272" y="385" on="1"/>
        <pt x="291" y="370" on="0"/>
        <pt x="319" y="356" on="0"/>
        <pt x="336" y="356" on="1"/>
        <pt x="361" y="356" on="0"/>
        <pt x="396" y="390" on="0"/>
        <pt x="409" y="424" on="1"/>
        <pt x="456" y="415" on="1"/>
        <pt x="438" y="361" on="0"/>
        <pt x="379" y="306" on="0"/>
        <pt x="335" y="306" on="1"/>
        <pt x="304" y="306" on="0"/>
        <pt x="260" y="327" on="0"/>
        <pt x="233" y="346" on="1"/>
        <pt x="214" y="361" on="0"/>
        <pt x="185" y="375" on="0"/>
        <pt x="168" y="375" on="1"/>
        <pt x="143" y="375" on="0"/>
        <pt x="108" y="341" on="0"/>
        <pt x="95" y="307" on="1"/>
        <pt x="49" y="316" on="1"/>
      </contour>
    </TTGlyph>
    <TTGlyph name="aring" xMin="19" yMin="-4" xMax="386" yMax="691">
      <component glyphName="a" x="0" y="0" flags="0x400"/>
      <component glyphName="uni030A" x="-13" y="0" flags="0x400"/>
    </TTGlyph>
    <TTGlyph name="aringacute" xMin="19" yMin="-4" xMax="446" yMax="873">
      <component glyphName="a" x="0" y="0" flags="0x400"/>
      <component glyphName="uni030A" x="-13" y="0" flags="0x400"/>
      <component glyphName="acutecomb" x="33" y="224" flags="0x404"/>
    </TTGlyph>
    <TTGlyph name="arrowboth" xMin="-1" yMin="118" xMax="474" yMax="458">
      <contour>
        <pt x="195" y="162" on="1" overlap="1"/>
        <pt x="149" y="118" on="1"/>
        <pt x="-1" y="266" on="1"/>
        <pt x="6" y="310" on="1"/>
        <pt x="214" y="458" on="1"/>
        <pt x="245" y="414" on="1"/>
        <pt x="118" y="320" on="1"/>
        <pt x="370" y="320" on="1"/>
        <pt x="279" y="414" on="1"/>
        <pt x="324" y="458" on="1"/>
        <pt x="474" y="310" on="1"/>
        <pt x="467" y="266" on="1"/>
        <pt x="259" y="118" on="1"/>
        <pt x="229" y="162" on="1"/>
        <pt x="355" y="256" on="1"/>
        <pt x="103" y="256" on="1"/>
      </contour>
    </TTGlyph>
    <TTGlyph name="arrowdown" xMin="56" yMin="54" xMax="396" yMax="512">
      <contour>
        <pt x="56" y="233" on="1" overlap="1"/>
        <pt x="95" y="263" on="1"/>
        <pt x="180" y="142" on="1"/>
        <pt x="255" y="512" on="1"/>
        <pt x="308" y="512" on="1"/>
        <pt x="234" y="142" on="1"/>
        <pt x="366" y="263" on="1"/>
        <pt x="396" y="233" on="1"/>
        <pt x="208" y="54" on="1"/>
        <pt x="173" y="54" on="1"/>
      </contour>
    </TTGlyph>
    <TTGlyph name="arrowleft" xMin="-1" yMin="118" xMax="465" yMax="458">
      <contour>
        <pt x="-1" y="270" on="1" overlap="1"/>
        <pt x="5" y="306" on="1"/>
        <pt x="214" y="458" on="1"/>
        <pt x="239" y="423" on="1"/>
        <pt x="96" y="315" on="1"/>
        <pt x="465" y="315" on="1"/>
        <pt x="455" y="261" on="1"/>
        <pt x="84" y="261" on="1"/>
        <pt x="185" y="153" on="1"/>
        <pt x="149" y="118" on="1"/>
      </contour>
    </TTGlyph>
    <TTGlyph name="arrowright" xMin="7" yMin="118" xMax="473" yMax="458">
      <contour>
        <pt x="234" y="153" on="1" overlap="1"/>
        <pt x="377" y="261" on="1"/>
        <pt x="7" y="261" on="1"/>
        <pt x="17" y="315" on="1"/>
        <pt x="389" y="315" on="1"/>
        <pt x="288" y="423" on="1"/>
        <pt x="324" y="458" on="1"/>
        <pt x="473" y="306" on="1"/>
        <pt x="467" y="270" on="1"/>
        <pt x="259" y="118" on="1"/>
      </contour>
    </TTGlyph>
    <TTGlyph name="arrowup" xMin="78" yMin="64" xMax="418" yMax="522">
      <contour>
        <pt x="108" y="313" on="1" overlap="1"/>
        <pt x="78" y="343" on="1"/>
        <pt x="265" y="522" on="1"/>
        <pt x="301" y="522" on="1"/>
        <pt x="418" y="343" on="1"/>
        <pt x="379" y="313" on="1"/>
        <pt x="293" y="434" on="1"/>
        <pt x="219" y="64" on="1"/>
        <pt x="165" y="64" on="1"/>
        <pt x="240" y="434" on="1"/>
      </contour>
    </TTGlyph>
    <TTGlyph name="arrowupdn" xMin="56" yMin="54" xMax="418" yMax="522">
      <contour>
        <pt x="115" y="305" on="1" overlap="1"/>
        <pt x="78" y="343" on="1"/>
        <pt x="261" y="522" on="1"/>
        <pt x="305" y="522" on="1"/>
        <pt x="418" y="343" on="1"/>
        <pt x="367" y="305" on="1"/>
        <pt x="295" y="414" on="1"/>
        <pt x="243" y="162" on="1"/>
        <pt x="358" y="271" on="1"/>
        <pt x="396" y="233" on="1"/>
        <pt x="213" y="54" on="1"/>
        <pt x="169" y="54" on="1"/>
        <pt x="56" y="233" on="1"/>
        <pt x="106" y="271" on="1"/>
        <pt x="179" y="162" on="1"/>
        <pt x="231" y="414" on="1"/>
      </contour>
    </TTGlyph>
    <TTGlyph name="arrowupdnbse" xMin="56" yMin="0" xMax="418" yMax="522">
      <contour>
        <pt x="163" y="64" on="1" overlap="1"/>
        <pt x="56" y="233" on="1"/>
        <pt x="106" y="271" on="1"/>
        <pt x="179" y="162" on="1"/>
        <pt x="231" y="414" on="1"/>
        <pt x="115" y="305" on="1"/>
        <pt x="78" y="343" on="1"/>
        <pt x="261" y="522" on="1"/>
        <pt x="305" y="522" on="1"/>
        <pt x="418" y="343" on="1"/>
        <pt x="367" y="305" on="1"/>
        <pt x="295" y="414" on="1"/>
        <pt x="243" y="162" on="1"/>
        <pt x="358" y="271" on="1"/>
        <pt x="396" y="233" on="1"/>
        <pt x="223" y="64" on="1"/>
        <pt x="384" y="64" on="1"/>
        <pt x="384" y="0" on="1"/>
        <pt x="64" y="0" on="1"/>
        <pt x="64" y="64" on="1"/>
      </contour>
    </TTGlyph>
    <TTGlyph name="asciicircum" xMin="45" yMin="192" xMax="390" yMax="566">
      <contour>
        <pt x="329" y="566" on="1" overlap="1"/>
        <pt x="390" y="192" on="1"/>
        <pt x="330" y="192" on="1"/>
        <pt x="282" y="509" on="1"/>
        <pt x="106" y="192" on="1"/>
        <pt x="45" y="192" on="1"/>
        <pt x="255" y="566" on="1"/>
      </contour>
    </TTGlyph>
    <TTGlyph name="asciitilde" xMin="-6" yMin="192" xMax="480" yMax="384">
      <contour>
        <pt x="295" y="192" on="0" overlap="1"/>
        <pt x="252" y="215" on="0"/>
        <pt x="226" y="248" on="0"/>
        <pt x="211" y="274" on="1"/>
        <pt x="194" y="304" on="0"/>
        <pt x="166" y="332" on="0"/>
        <pt x="143" y="332" on="1"/>
        <pt x="106" y="332" on="0"/>
        <pt x="63" y="272" on="0"/>
        <pt x="44" y="204" on="1"/>
        <pt x="-6" y="213" on="1"/>
        <pt x="16" y="300" on="0"/>
        <pt x="87" y="384" on="0"/>
        <pt x="148" y="384" on="1"/>
        <pt x="180" y="384" on="0"/>
        <pt x="222" y="361" on="0"/>
        <pt x="248" y="328" on="0"/>
        <pt x="263" y="302" on="1"/>
        <pt x="281" y="272" on="0"/>
        <pt x="307" y="244" on="0"/>
        <pt x="330" y="244" on="1"/>
        <pt x="368" y="244" on="0"/>
        <pt x="410" y="303" on="0"/>
        <pt x="430" y="372" on="1"/>
        <pt x="480" y="364" on="1"/>
        <pt x="458" y="276" on="0"/>
        <pt x="387" y="192" on="0"/>
        <pt x="327" y="192" on="1"/>
      </contour>
    </TTGlyph>
    <TTGlyph name="asterisk" xMin="38" yMin="76" xMax="434" yMax="500">
      <contour>
        <pt x="275" y="280" on="1" overlap="1"/>
        <pt x="390" y="142" on="1"/>
        <pt x="345" y="106" on="1"/>
        <pt x="251" y="229" on="1"/>
        <pt x="224" y="76" on="1"/>
        <pt x="167" y="87" on="1"/>
        <pt x="201" y="239" on="1"/>
        <pt x="66" y="162" on="1"/>
        <pt x="38" y="212" on="1"/>
        <pt x="198" y="296" on="1"/>
        <pt x="83" y="434" on="1"/>
        <pt x="128" y="470" on="1"/>
        <pt x="222" y="348" on="1"/>
        <pt x="249" y="500" on="1"/>
        <pt x="306" y="489" on="1"/>
        <pt x="272" y="337" on="1"/>
        <pt x="407" y="414" on="1"/>
        <pt x="434" y="364" on="1"/>
      </contour>
    </TTGlyph>
    <TTGlyph name="at" xMin="34" yMin="-128" xMax="421" yMax="586">
      <contour>
        <pt x="323" y="67" on="0" overlap="1"/>
        <pt x="276" y="67" on="1"/>
        <pt x="224" y="67" on="0"/>
        <pt x="168" y="124" on="0"/>
        <pt x="168" y="176" on="1"/>
        <pt x="168" y="196" on="0"/>
        <pt x="173" y="224" on="1"/>
        <pt x="188" y="293" on="0"/>
        <pt x="274" y="373" on="0"/>
        <pt x="355" y="384" on="1"/>
        <pt x="355" y="385" on="1"/>
        <pt x="364" y="429" on="0"/>
        <pt x="364" y="458" on="1"/>
        <pt x="364" y="496" on="0"/>
        <pt x="332" y="533" on="0"/>
        <pt x="297" y="533" on="1"/>
        <pt x="252" y="533" on="0"/>
        <pt x="186" y="469" on="0"/>
        <pt x="135" y="332" on="0"/>
        <pt x="112" y="218" on="1"/>
        <pt x="91" y="113" on="0"/>
        <pt x="91" y="51" on="1"/>
        <pt x="91" y="-17" on="0"/>
        <pt x="137" y="-76" on="0"/>
        <pt x="182" y="-76" on="1"/>
        <pt x="215" y="-76" on="0"/>
        <pt x="265" y="-63" on="1"/>
        <pt x="272" y="-111" on="1"/>
        <pt x="250" y="-119" on="0"/>
        <pt x="198" y="-128" on="0"/>
        <pt x="178" y="-128" on="1"/>
        <pt x="104" y="-128" on="0"/>
        <pt x="34" y="-42" on="0"/>
        <pt x="34" y="49" on="1"/>
        <pt x="34" y="116" on="0"/>
        <pt x="56" y="228" on="1"/>
        <pt x="94" y="413" on="0"/>
        <pt x="207" y="586" on="0"/>
        <pt x="301" y="586" on="1"/>
        <pt x="362" y="586" on="0"/>
        <pt x="421" y="516" on="0"/>
        <pt x="421" y="452" on="1"/>
        <pt x="421" y="421" on="0"/>
        <pt x="413" y="381" on="1"/>
        <pt x="354" y="76" on="1"/>
      </contour>
      <contour>
        <pt x="227" y="195" on="0"/>
        <pt x="227" y="175" on="1"/>
        <pt x="227" y="148" on="0"/>
        <pt x="253" y="120" on="0"/>
        <pt x="282" y="120" on="1"/>
        <pt x="294" y="120" on="0"/>
        <pt x="301" y="121" on="1"/>
        <pt x="344" y="331" on="1"/>
        <pt x="291" y="323" on="0"/>
        <pt x="241" y="268" on="0"/>
        <pt x="231" y="215" on="1"/>
      </contour>
    </TTGlyph>
    <TTGlyph name="atilde" xMin="19" yMin="-4" xMax="442" yMax="645">
      <component glyphName="a" x="0" y="0" flags="0x400"/>
      <component glyphName="tildecomb" x="-13" y="0" flags="0x400"/>
    </TTGlyph>
    <TTGlyph name="b" xMin="17" yMin="-8" xMax="402" yMax="640">
      <contour>
        <pt x="114" y="-8" on="0" overlap="1"/>
        <pt x="82" y="40" on="1"/>
        <pt x="69" y="0" on="1"/>
        <pt x="17" y="0" on="1"/>
        <pt x="32" y="63" on="1"/>
        <pt x="147" y="640" on="1"/>
        <pt x="205" y="640" on="1"/>
        <pt x="160" y="417" on="1"/>
        <pt x="207" y="456" on="0"/>
        <pt x="268" y="456" on="1"/>
        <pt x="338" y="456" on="0"/>
        <pt x="402" y="371" on="0"/>
        <pt x="402" y="300" on="1"/>
        <pt x="402" y="261" on="0"/>
        <pt x="393" y="219" on="1"/>
        <pt x="372" y="122" on="0"/>
        <pt x="269" y="-8" on="0"/>
        <pt x="184" y="-8" on="1"/>
      </contour>
      <contour>
        <pt x="122" y="43" on="0"/>
        <pt x="180" y="43" on="1"/>
        <pt x="240" y="43" on="0"/>
        <pt x="311" y="132" on="0"/>
        <pt x="331" y="229" on="1"/>
        <pt x="341" y="278" on="0"/>
        <pt x="341" y="314" on="1"/>
        <pt x="341" y="361" on="0"/>
        <pt x="303" y="405" on="0"/>
        <pt x="262" y="405" on="1"/>
        <pt x="195" y="405" on="0"/>
        <pt x="148" y="354" on="1"/>
        <pt x="94" y="88" on="1"/>
      </contour>
    </TTGlyph>
    <TTGlyph name="backslash" xMin="80" yMin="-68" xMax="278" yMax="709">
      <contour>
        <pt x="220" y="-68" on="1" overlap="1"/>
        <pt x="80" y="699" on="1"/>
        <pt x="138" y="709" on="1"/>
        <pt x="278" y="-58" on="1"/>
      </contour>
    </TTGlyph>
    <TTGlyph name="bar" xMin="140" yMin="-64" xMax="347" yMax="704">
      <contour>
        <pt x="140" y="-64" on="1" overlap="1"/>
        <pt x="293" y="704" on="1"/>
        <pt x="347" y="704" on="1"/>
        <pt x="194" y="-64" on="1"/>
      </contour>
    </TTGlyph>
    <TTGlyph name="beta" xMin="-19" yMin="-192" xMax="454" yMax="640">
      <contour>
        <pt x="70" y="256" on="1" overlap="1"/>
        <pt x="122" y="512" on="1"/>
        <pt x="134" y="576" on="1"/>
        <pt x="198" y="576" on="1"/>
        <pt x="186" y="512" on="1"/>
        <pt x="134" y="256" on="1"/>
        <pt x="122" y="192" on="1"/>
        <pt x="109" y="128" on="1"/>
        <pt x="173" y="128" on="1"/>
        <pt x="160" y="64" on="1"/>
        <pt x="96" y="64" on="1"/>
        <pt x="70" y="-64" on="1"/>
        <pt x="58" y="-128" on="1"/>
        <pt x="45" y="-192" on="1"/>
        <pt x="-19" y="-192" on="1"/>
        <pt x="-6" y="-128" on="1"/>
        <pt x="6" y="-64" on="1"/>
        <pt x="58" y="192" on="1"/>
      </contour>
      <contour>
        <pt x="160" y="64" on="1"/>
        <pt x="288" y="64" on="1"/>
        <pt x="275" y="0" on="1"/>
        <pt x="147" y="0" on="1"/>
      </contour>
      <contour>
        <pt x="211" y="640" on="1"/>
        <pt x="403" y="640" on="1"/>
        <pt x="390" y="576" on="1"/>
        <pt x="198" y="576" on="1"/>
      </contour>
      <contour>
        <pt x="224" y="384" on="1"/>
        <pt x="352" y="384" on="1"/>
        <pt x="339" y="320" on="1"/>
        <pt x="211" y="320" on="1"/>
      </contour>
      <contour>
        <pt x="314" y="192" on="1"/>
        <pt x="326" y="256" on="1"/>
        <pt x="339" y="320" on="1"/>
        <pt x="403" y="320" on="1"/>
        <pt x="390" y="256" on="1"/>
        <pt x="378" y="192" on="1"/>
        <pt x="352" y="64" on="1"/>
        <pt x="288" y="64" on="1"/>
      </contour>
      <contour>
        <pt x="378" y="512" on="1"/>
        <pt x="390" y="576" on="1"/>
        <pt x="454" y="576" on="1"/>
        <pt x="442" y="512" on="1"/>
        <pt x="416" y="384" on="1"/>
        <pt x="352" y="384" on="1"/>
      </contour>
    </TTGlyph>
    <TTGlyph name="block" xMin="-83" yMin="-192" xMax="570" yMax="832">
      <contour>
        <pt x="-83" y="-192" on="1" overlap="1"/>
        <pt x="122" y="832" on="1"/>
        <pt x="570" y="832" on="1"/>
        <pt x="365" y="-192" on="1"/>
      </contour>
    </TTGlyph>
    <TTGlyph name="braceleft" xMin="102" yMin="-64" xMax="418" yMax="704">
      <contour>
        <pt x="196" y="-55" on="0" overlap="1"/>
        <pt x="122" y="-7" on="0"/>
        <pt x="122" y="44" on="1"/>
        <pt x="122" y="53" on="0"/>
        <pt x="126" y="77" on="1"/>
        <pt x="128" y="87" on="0"/>
        <pt x="142" y="128" on="1"/>
        <pt x="144" y="134" on="0"/>
        <pt x="159" y="177" on="0"/>
        <pt x="163" y="199" on="1"/>
        <pt x="166" y="213" on="0"/>
        <pt x="166" y="224" on="1"/>
        <pt x="166" y="277" on="0"/>
        <pt x="102" y="287" on="1"/>
        <pt x="112" y="353" on="1"/>
        <pt x="197" y="368" on="0"/>
        <pt x="213" y="451" on="1"/>
        <pt x="217" y="473" on="0"/>
        <pt x="219" y="513" on="1"/>
        <pt x="221" y="552" on="0"/>
        <pt x="226" y="573" on="1"/>
        <pt x="239" y="639" on="0"/>
        <pt x="331" y="694" on="0"/>
        <pt x="414" y="704" on="1"/>
        <pt x="418" y="658" on="1"/>
        <pt x="348" y="646" on="0"/>
        <pt x="286" y="607" on="0"/>
        <pt x="278" y="566" on="1"/>
        <pt x="275" y="549" on="0"/>
        <pt x="273" y="516" on="1"/>
        <pt x="271" y="470" on="0"/>
        <pt x="266" y="443" on="1"/>
        <pt x="255" y="388" on="0"/>
        <pt x="200" y="334" on="0"/>
        <pt x="151" y="319" on="1"/>
        <pt x="185" y="307" on="0"/>
        <pt x="219" y="266" on="0"/>
        <pt x="219" y="230" on="1"/>
        <pt x="219" y="214" on="0"/>
        <pt x="214" y="187" on="1"/>
        <pt x="207" y="154" on="0"/>
        <pt x="194" y="119" on="1"/>
        <pt x="182" y="83" on="0"/>
        <pt x="178" y="65" on="1"/>
        <pt x="176" y="58" on="0"/>
        <pt x="176" y="45" on="1"/>
        <pt x="176" y="19" on="0"/>
        <pt x="222" y="-8" on="0"/>
        <pt x="278" y="-19" on="1"/>
        <pt x="265" y="-64" on="1"/>
      </contour>
    </TTGlyph>
    <TTGlyph name="braceright" xMin="69" yMin="-64" xMax="384" yMax="704">
      <contour>
        <pt x="138" y="-6" on="0" overlap="1"/>
        <pt x="200" y="33" on="0"/>
        <pt x="208" y="74" on="1"/>
        <pt x="211" y="89" on="0"/>
        <pt x="213" y="122" on="1"/>
        <pt x="215" y="169" on="0"/>
        <pt x="221" y="197" on="1"/>
        <pt x="232" y="253" on="0"/>
        <pt x="286" y="307" on="0"/>
        <pt x="335" y="321" on="1"/>
        <pt x="301" y="333" on="0"/>
        <pt x="267" y="375" on="0"/>
        <pt x="267" y="411" on="1"/>
        <pt x="267" y="426" on="0"/>
        <pt x="272" y="453" on="1"/>
        <pt x="278" y="479" on="0"/>
        <pt x="291" y="518" on="1"/>
        <pt x="304" y="554" on="0"/>
        <pt x="308" y="576" on="1"/>
        <pt x="310" y="583" on="0"/>
        <pt x="310" y="595" on="1"/>
        <pt x="310" y="621" on="0"/>
        <pt x="264" y="648" on="0"/>
        <pt x="208" y="659" on="1"/>
        <pt x="221" y="704" on="1"/>
        <pt x="290" y="695" on="0"/>
        <pt x="364" y="648" on="0"/>
        <pt x="364" y="597" on="1"/>
        <pt x="364" y="588" on="0"/>
        <pt x="360" y="564" on="1"/>
        <pt x="358" y="551" on="0"/>
        <pt x="347" y="517" on="0"/>
        <pt x="344" y="508" on="1"/>
        <pt x="329" y="464" on="0"/>
        <pt x="324" y="441" on="1"/>
        <pt x="321" y="428" on="0"/>
        <pt x="321" y="415" on="1"/>
        <pt x="321" y="365" on="0"/>
        <pt x="384" y="353" on="1"/>
        <pt x="374" y="287" on="1"/>
        <pt x="290" y="273" on="0"/>
        <pt x="273" y="190" on="1"/>
        <pt x="269" y="169" on="0"/>
        <pt x="267" y="128" on="1"/>
        <pt x="267" y="123" on="0"/>
        <pt x="265" y="84" on="0"/>
        <pt x="261" y="67" on="1"/>
        <pt x="248" y="1" on="0"/>
        <pt x="155" y="-54" on="0"/>
        <pt x="72" y="-64" on="1"/>
        <pt x="69" y="-18" on="1"/>
      </contour>
    </TTGlyph>
    <TTGlyph name="bracketleft" xMin="93" yMin="-64" xMax="429" yMax="704">
      <contour>
        <pt x="294" y="652" on="1" overlap="1"/>
        <pt x="162" y="-12" on="1"/>
        <pt x="286" y="-12" on="1"/>
        <pt x="275" y="-64" on="1"/>
        <pt x="93" y="-64" on="1"/>
        <pt x="247" y="704" on="1"/>
        <pt x="429" y="704" on="1"/>
        <pt x="418" y="652" on="1"/>
      </contour>
    </TTGlyph>
    <TTGlyph name="bracketright" xMin="57" yMin="-64" xMax="393" yMax="704">
      <contour>
        <pt x="57" y="-64" on="1" overlap="1"/>
        <pt x="68" y="-12" on="1"/>
        <pt x="192" y="-12" on="1"/>
        <pt x="324" y="652" on="1"/>
        <pt x="200" y="652" on="1"/>
        <pt x="211" y="704" on="1"/>
        <pt x="393" y="704" on="1"/>
        <pt x="239" y="-64" on="1"/>
      </contour>
    </TTGlyph>
    <TTGlyph name="breve" xMin="179" yMin="504" xMax="432" yMax="641">
      <component glyphName="uni0306" x="0" y="0" flags="0x400"/>
    </TTGlyph>
    <TTGlyph name="brokenbar" xMin="114" yMin="-192" xMax="347" yMax="704">
      <contour>
        <pt x="216" y="320" on="1" overlap="1"/>
        <pt x="293" y="704" on="1"/>
        <pt x="347" y="704" on="1"/>
        <pt x="270" y="320" on="1"/>
      </contour>
      <contour>
        <pt x="191" y="192" on="1"/>
        <pt x="245" y="192" on="1"/>
        <pt x="168" y="-192" on="1"/>
        <pt x="114" y="-192" on="1"/>
      </contour>
    </TTGlyph>
    <TTGlyph name="bullet" xMin="128" yMin="127" xMax="320" yMax="321">
      <contour>
        <pt x="275" y="321" on="0" overlap="1"/>
        <pt x="320" y="276" on="0"/>
        <pt x="320" y="240" on="1"/>
        <pt x="320" y="194" on="0"/>
        <pt x="254" y="127" on="0"/>
        <pt x="209" y="127" on="1"/>
        <pt x="173" y="127" on="0"/>
        <pt x="128" y="172" on="0"/>
        <pt x="128" y="208" on="1"/>
        <pt x="128" y="238" on="0"/>
        <pt x="159" y="290" on="0"/>
        <pt x="210" y="321" on="0"/>
        <pt x="239" y="321" on="1"/>
      </contour>
    </TTGlyph>
    <TTGlyph name="c" xMin="45" yMin="-7" xMax="373" yMax="455">
      <contour>
        <pt x="45" y="-7" on="0" overlap="1"/>
        <pt x="45" y="142" on="1"/>
        <pt x="45" y="177" on="0"/>
        <pt x="55" y="229" on="1"/>
        <pt x="100" y="455" on="0"/>
        <pt x="266" y="455" on="1"/>
        <pt x="322" y="455" on="0"/>
        <pt x="373" y="436" on="1"/>
        <pt x="356" y="389" on="1"/>
        <pt x="311" y="404" on="0"/>
        <pt x="268" y="404" on="1"/>
        <pt x="205" y="404" on="0"/>
        <pt x="134" y="316" on="0"/>
        <pt x="115" y="219" on="1"/>
        <pt x="105" y="172" on="0"/>
        <pt x="105" y="135" on="1"/>
        <pt x="105" y="88" on="0"/>
        <pt x="146" y="45" on="0"/>
        <pt x="189" y="45" on="1"/>
        <pt x="231" y="45" on="0"/>
        <pt x="287" y="62" on="1"/>
        <pt x="292" y="12" on="1"/>
        <pt x="235" y="-7" on="0"/>
        <pt x="182" y="-7" on="1"/>
      </contour>
    </TTGlyph>
    <TTGlyph name="cacute" xMin="45" yMin="-7" xMax="421" yMax="649">
      <component glyphName="c" x="0" y="0" flags="0x400"/>
      <component glyphName="acutecomb" x="8" y="0" flags="0x400"/>
    </TTGlyph>
    <TTGlyph name="caron" xMin="178" yMin="510" xMax="440" yMax="647">
      <component glyphName="uni030C" x="0" y="0" flags="0x400"/>
    </TTGlyph>
    <TTGlyph name="carriagereturn" xMin="-4" yMin="54" xMax="473" yMax="448">
      <contour>
        <pt x="192" y="98" on="1" overlap="1"/>
        <pt x="147" y="54" on="1"/>
        <pt x="-4" y="202" on="1"/>
        <pt x="3" y="246" on="1"/>
        <pt x="211" y="394" on="1"/>
        <pt x="242" y="350" on="1"/>
        <pt x="115" y="256" on="1"/>
        <pt x="366" y="256" on="1"/>
        <pt x="405" y="448" on="1"/>
        <pt x="473" y="448" on="1"/>
        <pt x="421" y="192" on="1"/>
        <pt x="101" y="192" on="1"/>
      </contour>
    </TTGlyph>
    <TTGlyph name="ccaron" xMin="45" yMin="-7" xMax="448" yMax="647">
      <component glyphName="c" x="0" y="0" flags="0x400"/>
      <component glyphName="uni030C" x="8" y="0" flags="0x400"/>
    </TTGlyph>
    <TTGlyph name="ccedilla" xMin="15" yMin="-192" xMax="373" yMax="455">
      <component glyphName="c" x="0" y="0" flags="0x400"/>
      <component glyphName="uni0327" x="-31" y="0" flags="0x400"/>
    </TTGlyph>
    <TTGlyph name="ccircumflex" xMin="45" yMin="-7" xMax="420" yMax="649">
      <component glyphName="c" x="0" y="0" flags="0x400"/>
      <component glyphName="uni0302" x="8" y="0" flags="0x400"/>
    </TTGlyph>
    <TTGlyph name="cdotaccent" xMin="45" yMin="-7" xMax="373" yMax="647">
      <component glyphName="c" x="0" y="0" flags="0x400"/>
      <component glyphName="uni0307" x="8" y="0" flags="0x400"/>
    </TTGlyph>
    <TTGlyph name="cedilla" xMin="46" yMin="-192" xMax="272" yMax="12">
      <component glyphName="uni0327" x="0" y="0" flags="0x400"/>
    </TTGlyph>
    <TTGlyph name="cent" xMin="56" yMin="-64" xMax="384" yMax="640">
      <contour>
        <pt x="85" y="389" on="0" overlap="1"/>
        <pt x="176" y="510" on="0"/>
        <pt x="255" y="518" on="1"/>
        <pt x="280" y="640" on="1"/>
        <pt x="334" y="640" on="1"/>
        <pt x="309" y="517" on="1"/>
        <pt x="353" y="512" on="0"/>
        <pt x="384" y="500" on="1"/>
        <pt x="367" y="453" on="1"/>
        <pt x="322" y="468" on="0"/>
        <pt x="279" y="468" on="1"/>
        <pt x="216" y="468" on="0"/>
        <pt x="145" y="380" on="0"/>
        <pt x="126" y="283" on="1"/>
        <pt x="116" y="236" on="0"/>
        <pt x="116" y="199" on="1"/>
        <pt x="116" y="152" on="0"/>
        <pt x="157" y="109" on="0"/>
        <pt x="200" y="109" on="1"/>
        <pt x="242" y="109" on="0"/>
        <pt x="298" y="126" on="1"/>
        <pt x="303" y="76" on="1"/>
        <pt x="258" y="61" on="0"/>
        <pt x="218" y="58" on="1"/>
        <pt x="194" y="-64" on="1"/>
        <pt x="139" y="-64" on="1"/>
        <pt x="163" y="59" on="1"/>
        <pt x="108" y="67" on="0"/>
        <pt x="56" y="144" on="0"/>
        <pt x="56" y="206" on="1"/>
        <pt x="56" y="241" on="0"/>
        <pt x="66" y="293" on="1"/>
      </contour>
    </TTGlyph>
    <TTGlyph name="chi" xMin="-59" yMin="-192" xMax="445" yMax="448">
      <contour>
        <pt x="445" y="448" on="1" overlap="1"/>
        <pt x="248" y="154" on="1"/>
        <pt x="284" y="104" on="0"/>
        <pt x="316" y="-4" on="0"/>
        <pt x="316" y="-77" on="1"/>
        <pt x="316" y="-132" on="0"/>
        <pt x="309" y="-192" on="1"/>
        <pt x="238" y="-192" on="1"/>
        <pt x="246" y="-115" on="0"/>
        <pt x="246" y="-70" on="1"/>
        <pt x="246" y="-18" on="0"/>
        <pt x="227" y="59" on="0"/>
        <pt x="207" y="93" on="1"/>
        <pt x="16" y="-192" on="1"/>
        <pt x="-59" y="-192" on="1"/>
        <pt x="164" y="141" on="1"/>
        <pt x="123" y="213" on="0"/>
        <pt x="92" y="347" on="0"/>
        <pt x="94" y="448" on="1"/>
        <pt x="167" y="448" on="1"/>
        <pt x="165" y="363" on="0"/>
        <pt x="182" y="256" on="0"/>
        <pt x="207" y="205" on="1"/>
        <pt x="369" y="448" on="1"/>
      </contour>
    </TTGlyph>
    <TTGlyph name="circle" xMin="64" yMin="120" xMax="409" yMax="456">
      <contour>
        <pt x="144" y="120" on="0" overlap="1"/>
        <pt x="64" y="197" on="0"/>
        <pt x="64" y="258" on="1"/>
        <pt x="64" y="277" on="0"/>
        <pt x="68" y="294" on="1"/>
        <pt x="77" y="340" on="0"/>
        <pt x="136" y="414" on="0"/>
        <pt x="219" y="456" on="0"/>
        <pt x="265" y="456" on="1"/>
        <pt x="330" y="456" on="0"/>
        <pt x="409" y="378" on="0"/>
        <pt x="409" y="317" on="1"/>
        <pt x="409" y="300" on="0"/>
        <pt x="406" y="282" on="1"/>
        <pt x="397" y="236" on="0"/>
        <pt x="338" y="162" on="0"/>
        <pt x="254" y="120" on="0"/>
        <pt x="208" y="120" on="1"/>
      </contour>
      <contour>
        <pt x="133" y="226" on="0"/>
        <pt x="176" y="184" on="0"/>
        <pt x="211" y="184" on="1"/>
        <pt x="244" y="184" on="0"/>
        <pt x="303" y="220" on="0"/>
        <pt x="340" y="280" on="0"/>
        <pt x="340" y="315" on="1"/>
        <pt x="340" y="349" on="0"/>
        <pt x="298" y="392" on="0"/>
        <pt x="263" y="392" on="1"/>
        <pt x="230" y="392" on="0"/>
        <pt x="170" y="356" on="0"/>
        <pt x="133" y="295" on="0"/>
        <pt x="133" y="259" on="1"/>
      </contour>
    </TTGlyph>
    <TTGlyph name="circumflex" xMin="149" yMin="512" xMax="412" yMax="649">
      <component glyphName="uni0302" x="0" y="0" flags="0x400"/>
    </TTGlyph>
    <TTGlyph name="club" xMin="32" yMin="64" xMax="416" yMax="512">
      <contour>
        <pt x="416" y="384" on="1" overlap="1"/>
        <pt x="378" y="192" on="1"/>
        <pt x="314" y="192" on="1"/>
        <pt x="326" y="256" on="1"/>
        <pt x="262" y="256" on="1"/>
        <pt x="237" y="128" on="1"/>
        <pt x="365" y="128" on="1"/>
        <pt x="352" y="64" on="1"/>
        <pt x="32" y="64" on="1"/>
        <pt x="45" y="128" on="1"/>
        <pt x="173" y="128" on="1"/>
        <pt x="198" y="256" on="1"/>
        <pt x="134" y="256" on="1"/>
        <pt x="122" y="192" on="1"/>
        <pt x="58" y="192" on="1"/>
        <pt x="96" y="384" on="1"/>
        <pt x="160" y="384" on="1"/>
        <pt x="147" y="320" on="1"/>
        <pt x="211" y="320" on="1"/>
        <pt x="237" y="448" on="1"/>
        <pt x="173" y="448" on="1"/>
        <pt x="186" y="512" on="1"/>
        <pt x="378" y="512" on="1"/>
        <pt x="365" y="448" on="1"/>
        <pt x="301" y="448" on="1"/>
        <pt x="275" y="320" on="1"/>
        <pt x="339" y="320" on="1"/>
        <pt x="352" y="384" on="1"/>
      </contour>
    </TTGlyph>
    <TTGlyph name="colon" xMin="34" yMin="-10" xMax="222" yMax="458">
      <contour>
        <pt x="122" y="104" on="0" overlap="1"/>
        <pt x="151" y="79" on="0"/>
        <pt x="151" y="57" on="1"/>
        <pt x="151" y="52" on="0"/>
        <pt x="149" y="42" on="1"/>
        <pt x="143" y="17" on="0"/>
        <pt x="108" y="-10" on="0"/>
        <pt x="85" y="-10" on="1"/>
        <pt x="63" y="-10" on="0"/>
        <pt x="34" y="16" on="0"/>
        <pt x="34" y="38" on="1"/>
        <pt x="34" y="42" on="0"/>
        <pt x="36" y="52" on="1"/>
        <pt x="42" y="77" on="0"/>
        <pt x="77" y="104" on="0"/>
        <pt x="100" y="104" on="1"/>
      </contour>
      <contour>
        <pt x="105" y="422" on="0"/>
        <pt x="144" y="458" on="0"/>
        <pt x="171" y="458" on="1"/>
        <pt x="193" y="458" on="0"/>
        <pt x="222" y="433" on="0"/>
        <pt x="222" y="411" on="1"/>
        <pt x="222" y="406" on="0"/>
        <pt x="220" y="396" on="1"/>
        <pt x="214" y="371" on="0"/>
        <pt x="179" y="344" on="0"/>
        <pt x="156" y="344" on="1"/>
        <pt x="134" y="344" on="0"/>
        <pt x="105" y="369" on="0"/>
        <pt x="105" y="391" on="1"/>
      </contour>
    </TTGlyph>
    <TTGlyph name="comma" xMin="9" yMin="-130" xMax="150" yMax="105">
      <contour>
        <pt x="122" y="105" on="0" overlap="1"/>
        <pt x="150" y="76" on="0"/>
        <pt x="150" y="48" on="1"/>
        <pt x="150" y="35" on="0"/>
        <pt x="147" y="20" on="1"/>
        <pt x="138" y="-25" on="0"/>
        <pt x="83" y="-97" on="0"/>
        <pt x="36" y="-130" on="1"/>
        <pt x="9" y="-93" on="1"/>
        <pt x="37" y="-71" on="0"/>
        <pt x="75" y="-32" on="0"/>
        <pt x="85" y="-8" on="1"/>
        <pt x="61" y="-9" on="0"/>
        <pt x="34" y="17" on="0"/>
        <pt x="34" y="38" on="1"/>
        <pt x="34" y="68" on="0"/>
        <pt x="73" y="105" on="0"/>
        <pt x="98" y="105" on="1"/>
      </contour>
    </TTGlyph>
    <TTGlyph name="copyright" xMin="11" yMin="13" xMax="449" yMax="499">
      <contour>
        <pt x="137" y="13" on="0" overlap="1"/>
        <pt x="58" y="55" on="0"/>
        <pt x="11" y="138" on="0"/>
        <pt x="11" y="197" on="1"/>
        <pt x="11" y="229" on="0"/>
        <pt x="18" y="261" on="1"/>
        <pt x="33" y="338" on="0"/>
        <pt x="114" y="445" on="0"/>
        <pt x="220" y="499" on="0"/>
        <pt x="275" y="499" on="1"/>
        <pt x="323" y="499" on="0"/>
        <pt x="402" y="458" on="0"/>
        <pt x="449" y="376" on="0"/>
        <pt x="449" y="317" on="1"/>
        <pt x="449" y="285" on="0"/>
        <pt x="442" y="251" on="1"/>
        <pt x="427" y="175" on="0"/>
        <pt x="347" y="67" on="0"/>
        <pt x="240" y="13" on="0"/>
        <pt x="185" y="13" on="1"/>
      </contour>
      <contour>
        <pt x="56" y="220" on="0"/>
        <pt x="56" y="192" on="1"/>
        <pt x="56" y="128" on="0"/>
        <pt x="122" y="57" on="0"/>
        <pt x="187" y="57" on="1"/>
        <pt x="268" y="57" on="0"/>
        <pt x="380" y="168" on="0"/>
        <pt x="398" y="261" on="1"/>
        <pt x="404" y="293" on="0"/>
        <pt x="404" y="320" on="1"/>
        <pt x="404" y="383" on="0"/>
        <pt x="338" y="455" on="0"/>
        <pt x="274" y="455" on="1"/>
        <pt x="193" y="455" on="0"/>
        <pt x="81" y="344" on="0"/>
        <pt x="62" y="251" on="1"/>
      </contour>
      <contour>
        <pt x="135" y="327" on="0"/>
        <pt x="207" y="397" on="0"/>
        <pt x="265" y="397" on="1"/>
        <pt x="305" y="397" on="0"/>
        <pt x="340" y="382" on="1"/>
        <pt x="324" y="346" on="1"/>
        <pt x="295" y="356" on="0"/>
        <pt x="268" y="356" on="1"/>
        <pt x="227" y="356" on="0"/>
        <pt x="179" y="308" on="0"/>
        <pt x="169" y="254" on="1"/>
        <pt x="164" y="227" on="0"/>
        <pt x="164" y="214" on="1"/>
        <pt x="164" y="186" on="0"/>
        <pt x="192" y="162" on="0"/>
        <pt x="221" y="162" on="1"/>
        <pt x="246" y="162" on="0"/>
        <pt x="286" y="173" on="1"/>
        <pt x="294" y="133" on="1"/>
        <pt x="252" y="120" on="0"/>
        <pt x="217" y="120" on="1"/>
        <pt x="168" y="120" on="0"/>
        <pt x="117" y="170" on="0"/>
        <pt x="117" y="218" on="1"/>
        <pt x="117" y="236" on="0"/>
        <pt x="122" y="263" on="1"/>
      </contour>
    </TTGlyph>
    <TTGlyph name="currency" xMin="17" yMin="57" xMax="457" yMax="519">
      <contour>
        <pt x="313" y="464" on="0" overlap="1"/>
        <pt x="344" y="446" on="1"/>
        <pt x="411" y="519" on="1"/>
        <pt x="457" y="481" on="1"/>
        <pt x="390" y="408" on="1"/>
        <pt x="418" y="371" on="0"/>
        <pt x="418" y="320" on="1"/>
        <pt x="418" y="300" on="0"/>
        <pt x="414" y="283" on="1"/>
        <pt x="407" y="249" on="0"/>
        <pt x="369" y="187" on="0"/>
        <pt x="342" y="164" on="1"/>
        <pt x="379" y="95" on="1"/>
        <pt x="321" y="57" on="1"/>
        <pt x="283" y="127" on="1"/>
        <pt x="241" y="112" on="0"/>
        <pt x="206" y="112" on="1"/>
        <pt x="163" y="112" on="0"/>
        <pt x="129" y="129" on="1"/>
        <pt x="63" y="57" on="1"/>
        <pt x="17" y="95" on="1"/>
        <pt x="84" y="167" on="1"/>
        <pt x="56" y="204" on="0"/>
        <pt x="56" y="256" on="1"/>
        <pt x="56" y="276" on="0"/>
        <pt x="60" y="293" on="1"/>
        <pt x="67" y="327" on="0"/>
        <pt x="105" y="389" on="0"/>
        <pt x="132" y="412" on="1"/>
        <pt x="95" y="481" on="1"/>
        <pt x="153" y="519" on="1"/>
        <pt x="191" y="448" on="1"/>
        <pt x="229" y="464" on="0"/>
        <pt x="268" y="464" on="1"/>
      </contour>
      <contour>
        <pt x="124" y="275" on="0"/>
        <pt x="124" y="261" on="1"/>
        <pt x="124" y="224" on="0"/>
        <pt x="171" y="176" on="0"/>
        <pt x="210" y="176" on="1"/>
        <pt x="259" y="176" on="0"/>
        <pt x="338" y="244" on="0"/>
        <pt x="348" y="293" on="1"/>
        <pt x="350" y="301" on="0"/>
        <pt x="350" y="315" on="1"/>
        <pt x="350" y="352" on="0"/>
        <pt x="302" y="400" on="0"/>
        <pt x="263" y="400" on="1"/>
        <pt x="215" y="400" on="0"/>
        <pt x="136" y="332" on="0"/>
        <pt x="126" y="283" on="1"/>
      </contour>
    </TTGlyph>
    <TTGlyph name="d" xMin="47" yMin="-8" xMax="468" yMax="640">
      <contour>
        <pt x="107" y="-8" on="0" overlap="1"/>
        <pt x="47" y="77" on="0"/>
        <pt x="47" y="147" on="1"/>
        <pt x="47" y="187" on="0"/>
        <pt x="56" y="229" on="1"/>
        <pt x="75" y="325" on="0"/>
        <pt x="177" y="456" on="0"/>
        <pt x="257" y="456" on="1"/>
        <pt x="323" y="456" on="0"/>
        <pt x="364" y="407" on="1"/>
        <pt x="411" y="640" on="1"/>
        <pt x="468" y="640" on="1"/>
        <pt x="353" y="63" on="1"/>
        <pt x="344" y="0" on="1"/>
        <pt x="293" y="0" on="1"/>
        <pt x="296" y="64" on="1"/>
        <pt x="249" y="-8" on="0"/>
        <pt x="170" y="-8" on="1"/>
      </contour>
      <contour>
        <pt x="108" y="164" on="0"/>
        <pt x="108" y="135" on="1"/>
        <pt x="108" y="43" on="0"/>
        <pt x="179" y="43" on="1"/>
        <pt x="288" y="43" on="0"/>
        <pt x="332" y="252" on="1"/>
        <pt x="354" y="359" on="1"/>
        <pt x="322" y="405" on="0"/>
        <pt x="263" y="405" on="1"/>
        <pt x="209" y="405" on="0"/>
        <pt x="137" y="314" on="0"/>
        <pt x="118" y="219" on="1"/>
      </contour>
    </TTGlyph>
    <TTGlyph name="dagger" xMin="103" yMin="0" xMax="426" yMax="640">
      <contour>
        <pt x="297" y="452" on="1" overlap="1"/>
        <pt x="426" y="452" on="1"/>
        <pt x="416" y="402" on="1"/>
        <pt x="287" y="402" on="1"/>
        <pt x="206" y="0" on="1"/>
        <pt x="152" y="0" on="1"/>
        <pt x="233" y="402" on="1"/>
        <pt x="103" y="402" on="1"/>
        <pt x="113" y="452" on="1"/>
        <pt x="243" y="452" on="1"/>
        <pt x="280" y="640" on="1"/>
        <pt x="334" y="640" on="1"/>
      </contour>
    </TTGlyph>
    <TTGlyph name="daggerdbl" xMin="60" yMin="0" xMax="426" yMax="640">
      <contour>
        <pt x="297" y="452" on="1" overlap="1"/>
        <pt x="426" y="452" on="1"/>
        <pt x="416" y="400" on="1"/>
        <pt x="286" y="400" on="1"/>
        <pt x="254" y="240" on="1"/>
        <pt x="383" y="240" on="1"/>
        <pt x="373" y="188" on="1"/>
        <pt x="244" y="188" on="1"/>
        <pt x="206" y="0" on="1"/>
        <pt x="152" y="0" on="1"/>
        <pt x="190" y="188" on="1"/>
        <pt x="60" y="188" on="1"/>
        <pt x="70" y="240" on="1"/>
        <pt x="200" y="240" on="1"/>
        <pt x="232" y="400" on="1"/>
        <pt x="103" y="400" on="1"/>
        <pt x="113" y="452" on="1"/>
        <pt x="243" y="452" on="1"/>
        <pt x="280" y="640" on="1"/>
        <pt x="334" y="640" on="1"/>
      </contour>
    </TTGlyph>
    <TTGlyph name="dcaron" xMin="47" yMin="-8" xMax="613" yMax="640">
      <component glyphName="d" x="0" y="0" flags="0x400"/>
      <component glyphName="uni0315" x="101" y="0" flags="0x400"/>
    </TTGlyph>
    <TTGlyph name="dcroat" xMin="47" yMin="-8" xMax="503" yMax="640">
      <component glyphName="d" x="0" y="0" flags="0x400"/>
      <component glyphName="uni0335" x="148" y="310" flags="0x404"/>
    </TTGlyph>
    <TTGlyph name="degree" xMin="140" yMin="377" xMax="412" yMax="647">
      <contour>
        <pt x="350" y="647" on="0" overlap="1"/>
        <pt x="412" y="583" on="0"/>
        <pt x="412" y="535" on="1"/>
        <pt x="412" y="496" on="0"/>
        <pt x="369" y="423" on="0"/>
        <pt x="296" y="377" on="0"/>
        <pt x="254" y="377" on="1"/>
        <pt x="201" y="377" on="0"/>
        <pt x="140" y="441" on="0"/>
        <pt x="140" y="490" on="1"/>
        <pt x="140" y="529" on="0"/>
        <pt x="184" y="602" on="0"/>
        <pt x="257" y="647" on="0"/>
        <pt x="299" y="647" on="1"/>
      </contour>
      <contour>
        <pt x="193" y="460" on="0"/>
        <pt x="223" y="426" on="0"/>
        <pt x="255" y="426" on="1"/>
        <pt x="287" y="426" on="0"/>
        <pt x="334" y="460" on="0"/>
        <pt x="359" y="511" on="0"/>
        <pt x="359" y="538" on="1"/>
        <pt x="359" y="564" on="0"/>
        <pt x="329" y="598" on="0"/>
        <pt x="297" y="598" on="1"/>
        <pt x="265" y="598" on="0"/>
        <pt x="218" y="563" on="0"/>
        <pt x="193" y="511" on="0"/>
        <pt x="193" y="486" on="1"/>
      </contour>
    </TTGlyph>
    <TTGlyph name="delta" xMin="36" yMin="-13" xMax="465" yMax="642">
      <contour>
        <pt x="387" y="578" on="0" overlap="1"/>
        <pt x="353" y="578" on="1"/>
        <pt x="297" y="578" on="0"/>
        <pt x="248" y="530" on="0"/>
        <pt x="248" y="495" on="1"/>
        <pt x="248" y="480" on="0"/>
        <pt x="268" y="451" on="0"/>
        <pt x="294" y="427" on="1"/>
        <pt x="338" y="393" on="0"/>
        <pt x="396" y="305" on="0"/>
        <pt x="396" y="240" on="1"/>
        <pt x="396" y="211" on="0"/>
        <pt x="391" y="187" on="1"/>
        <pt x="374" y="105" on="0"/>
        <pt x="265" y="-13" on="0"/>
        <pt x="178" y="-13" on="1"/>
        <pt x="104" y="-13" on="0"/>
        <pt x="36" y="71" on="0"/>
        <pt x="36" y="134" on="1"/>
        <pt x="36" y="155" on="0"/>
        <pt x="41" y="182" on="1"/>
        <pt x="55" y="251" on="0"/>
        <pt x="149" y="364" on="0"/>
        <pt x="220" y="399" on="1"/>
        <pt x="197" y="418" on="0"/>
        <pt x="174" y="462" on="0"/>
        <pt x="174" y="491" on="1"/>
        <pt x="174" y="505" on="0"/>
        <pt x="177" y="523" on="1"/>
        <pt x="187" y="575" on="0"/>
        <pt x="275" y="642" on="0"/>
        <pt x="358" y="642" on="1"/>
        <pt x="404" y="642" on="0"/>
        <pt x="465" y="635" on="1"/>
        <pt x="450" y="573" on="1"/>
      </contour>
      <contour>
        <pt x="110" y="146" on="0"/>
        <pt x="110" y="130" on="1"/>
        <pt x="110" y="93" on="0"/>
        <pt x="147" y="51" on="0"/>
        <pt x="182" y="51" on="1"/>
        <pt x="235" y="51" on="0"/>
        <pt x="304" y="125" on="0"/>
        <pt x="318" y="197" on="1"/>
        <pt x="322" y="217" on="0"/>
        <pt x="322" y="239" on="1"/>
        <pt x="322" y="306" on="0"/>
        <pt x="271" y="357" on="1"/>
        <pt x="196" y="319" on="0"/>
        <pt x="127" y="233" on="0"/>
        <pt x="115" y="171" on="1"/>
      </contour>
    </TTGlyph>
    <TTGlyph name="diamond" xMin="70" yMin="80" xMax="395" yMax="456">
      <contour>
        <pt x="248" y="456" on="1" overlap="1"/>
        <pt x="292" y="456" on="1"/>
        <pt x="395" y="284" on="1"/>
        <pt x="390" y="252" on="1"/>
        <pt x="218" y="80" on="1"/>
        <pt x="174" y="80" on="1"/>
        <pt x="70" y="252" on="1"/>
        <pt x="75" y="284" on="1"/>
      </contour>
    </TTGlyph>
    <TTGlyph name="dieresis" xMin="157" yMin="542" xMax="438" yMax="645">
      <component glyphName="uni0308" x="0" y="0" flags="0x400"/>
    </TTGlyph>
    <TTGlyph name="dieresistonos" xMin="128" yMin="512" xMax="465" yMax="704">
      <contour>
        <pt x="372" y="704" on="1" overlap="1"/>
        <pt x="304" y="512" on="1"/>
        <pt x="240" y="512" on="1"/>
        <pt x="288" y="704" on="1"/>
      </contour>
      <contour>
        <pt x="144" y="650" on="0"/>
        <pt x="177" y="650" on="1"/>
        <pt x="192" y="650" on="0"/>
        <pt x="209" y="629" on="0"/>
        <pt x="209" y="607" on="1"/>
        <pt x="209" y="596" on="0"/>
        <pt x="206" y="581" on="1"/>
        <pt x="200" y="551" on="0"/>
        <pt x="175" y="522" on="0"/>
        <pt x="160" y="522" on="1"/>
        <pt x="128" y="522" on="0"/>
        <pt x="128" y="564" on="1"/>
        <pt x="128" y="576" on="0"/>
        <pt x="131" y="591" on="1"/>
      </contour>
      <contour>
        <pt x="400" y="650" on="0"/>
        <pt x="433" y="650" on="1"/>
        <pt x="448" y="650" on="0"/>
        <pt x="465" y="629" on="0"/>
        <pt x="465" y="607" on="1"/>
        <pt x="465" y="596" on="0"/>
        <pt x="462" y="581" on="1"/>
        <pt x="456" y="551" on="0"/>
        <pt x="431" y="522" on="0"/>
        <pt x="416" y="522" on="1"/>
        <pt x="384" y="522" on="0"/>
        <pt x="384" y="564" on="1"/>
        <pt x="384" y="576" on="0"/>
        <pt x="387" y="591" on="1"/>
      </contour>
    </TTGlyph>
    <TTGlyph name="divide" xMin="32" yMin="69" xMax="442" yMax="507">
      <contour>
        <pt x="42" y="313" on="1" overlap="1"/>
        <pt x="442" y="313" on="1"/>
        <pt x="432" y="263" on="1"/>
        <pt x="32" y="263" on="1"/>
      </contour>
      <contour>
        <pt x="147" y="148" on="0"/>
        <pt x="185" y="183" on="0"/>
        <pt x="211" y="183" on="1"/>
        <pt x="233" y="183" on="0"/>
        <pt x="262" y="158" on="0"/>
        <pt x="262" y="136" on="1"/>
        <pt x="262" y="104" on="0"/>
        <pt x="224" y="69" on="0"/>
        <pt x="197" y="69" on="1"/>
        <pt x="175" y="69" on="0"/>
        <pt x="147" y="94" on="0"/>
        <pt x="147" y="117" on="1"/>
      </contour>
      <contour>
        <pt x="211" y="471" on="0"/>
        <pt x="250" y="507" on="0"/>
        <pt x="276" y="507" on="1"/>
        <pt x="298" y="507" on="0"/>
        <pt x="327" y="482" on="0"/>
        <pt x="327" y="460" on="1"/>
        <pt x="327" y="428" on="0"/>
        <pt x="289" y="393" on="0"/>
        <pt x="262" y="393" on="1"/>
        <pt x="240" y="393" on="0"/>
        <pt x="211" y="418" on="0"/>
        <pt x="211" y="440" on="1"/>
      </contour>
    </TTGlyph>
    <TTGlyph name="dkshade" xMin="-70" yMin="-192" xMax="506" yMax="832">
      <contour>
        <pt x="32" y="64" on="1" overlap="1"/>
        <pt x="45" y="128" on="1"/>
        <pt x="-19" y="128" on="1"/>
        <pt x="-6" y="192" on="1"/>
        <pt x="6" y="256" on="1"/>
        <pt x="19" y="320" on="1"/>
        <pt x="83" y="320" on="1"/>
        <pt x="96" y="384" on="1"/>
        <pt x="32" y="384" on="1"/>
        <pt x="58" y="512" on="1"/>
        <pt x="70" y="576" on="1"/>
        <pt x="134" y="576" on="1"/>
        <pt x="147" y="640" on="1"/>
        <pt x="83" y="640" on="1"/>
        <pt x="122" y="832" on="1"/>
        <pt x="506" y="832" on="1"/>
        <pt x="493" y="768" on="1"/>
        <pt x="429" y="768" on="1"/>
        <pt x="416" y="704" on="1"/>
        <pt x="480" y="704" on="1"/>
        <pt x="454" y="576" on="1"/>
        <pt x="442" y="512" on="1"/>
        <pt x="378" y="512" on="1"/>
        <pt x="365" y="448" on="1"/>
        <pt x="429" y="448" on="1"/>
        <pt x="390" y="256" on="1"/>
        <pt x="326" y="256" on="1"/>
        <pt x="314" y="192" on="1"/>
        <pt x="378" y="192" on="1"/>
        <pt x="339" y="0" on="1"/>
        <pt x="275" y="0" on="1"/>
        <pt x="262" y="-64" on="1"/>
        <pt x="326" y="-64" on="1"/>
        <pt x="314" y="-128" on="1"/>
        <pt x="301" y="-192" on="1"/>
        <pt x="237" y="-192" on="1"/>
        <pt x="250" y="-128" on="1"/>
        <pt x="186" y="-128" on="1"/>
        <pt x="173" y="-192" on="1"/>
        <pt x="109" y="-192" on="1"/>
        <pt x="122" y="-128" on="1"/>
        <pt x="58" y="-128" on="1"/>
        <pt x="45" y="-192" on="1"/>
        <pt x="-19" y="-192" on="1"/>
        <pt x="-6" y="-128" on="1"/>
        <pt x="-70" y="-128" on="1"/>
        <pt x="-58" y="-64" on="1"/>
        <pt x="-32" y="64" on="1"/>
      </contour>
      <contour>
        <pt x="70" y="-64" on="1"/>
        <pt x="83" y="0" on="1"/>
        <pt x="19" y="0" on="1"/>
        <pt x="6" y="-64" on="1"/>
      </contour>
      <contour>
        <pt x="122" y="192" on="1"/>
        <pt x="134" y="256" on="1"/>
        <pt x="70" y="256" on="1"/>
        <pt x="58" y="192" on="1"/>
      </contour>
      <contour>
        <pt x="160" y="64" on="1"/>
        <pt x="173" y="128" on="1"/>
        <pt x="109" y="128" on="1"/>
        <pt x="96" y="64" on="1"/>
      </contour>
      <contour>
        <pt x="173" y="448" on="1"/>
        <pt x="186" y="512" on="1"/>
        <pt x="122" y="512" on="1"/>
        <pt x="109" y="448" on="1"/>
      </contour>
      <contour>
        <pt x="198" y="-64" on="1"/>
        <pt x="211" y="0" on="1"/>
        <pt x="147" y="0" on="1"/>
        <pt x="134" y="-64" on="1"/>
      </contour>
      <contour>
        <pt x="211" y="320" on="1"/>
        <pt x="224" y="384" on="1"/>
        <pt x="160" y="384" on="1"/>
        <pt x="147" y="320" on="1"/>
      </contour>
      <contour>
        <pt x="224" y="704" on="1"/>
        <pt x="237" y="768" on="1"/>
        <pt x="173" y="768" on="1"/>
        <pt x="160" y="704" on="1"/>
      </contour>
      <contour>
        <pt x="250" y="192" on="1"/>
        <pt x="262" y="256" on="1"/>
        <pt x="198" y="256" on="1"/>
        <pt x="186" y="192" on="1"/>
      </contour>
      <contour>
        <pt x="262" y="576" on="1"/>
        <pt x="275" y="640" on="1"/>
        <pt x="211" y="640" on="1"/>
        <pt x="198" y="576" on="1"/>
      </contour>
      <contour>
        <pt x="288" y="64" on="1"/>
        <pt x="301" y="128" on="1"/>
        <pt x="237" y="128" on="1"/>
        <pt x="224" y="64" on="1"/>
      </contour>
      <contour>
        <pt x="301" y="448" on="1"/>
        <pt x="314" y="512" on="1"/>
        <pt x="250" y="512" on="1"/>
        <pt x="237" y="448" on="1"/>
      </contour>
      <contour>
        <pt x="339" y="320" on="1"/>
        <pt x="352" y="384" on="1"/>
        <pt x="288" y="384" on="1"/>
        <pt x="275" y="320" on="1"/>
      </contour>
      <contour>
        <pt x="352" y="704" on="1"/>
        <pt x="365" y="768" on="1"/>
        <pt x="301" y="768" on="1"/>
        <pt x="288" y="704" on="1"/>
      </contour>
      <contour>
        <pt x="390" y="576" on="1"/>
        <pt x="403" y="640" on="1"/>
        <pt x="339" y="640" on="1"/>
        <pt x="326" y="576" on="1"/>
      </contour>
    </TTGlyph>
    <TTGlyph name="dnblock" xMin="-83" yMin="-192" xMax="467" yMax="320">
      <contour>
        <pt x="-83" y="-192" on="1" overlap="1"/>
        <pt x="19" y="320" on="1"/>
        <pt x="467" y="320" on="1"/>
        <pt x="365" y="-192" on="1"/>
      </contour>
    </TTGlyph>
    <TTGlyph name="dollar" xMin="18" yMin="-128" xMax="437" yMax="704">
      <contour>
        <pt x="36" y="67" on="1" overlap="1"/>
        <pt x="94" y="44" on="0"/>
        <pt x="161" y="44" on="1"/>
        <pt x="236" y="44" on="0"/>
        <pt x="311" y="99" on="0"/>
        <pt x="311" y="144" on="1"/>
        <pt x="311" y="177" on="0"/>
        <pt x="266" y="218" on="0"/>
        <pt x="220" y="243" on="1"/>
        <pt x="181" y="265" on="0"/>
        <pt x="134" y="300" on="0"/>
        <pt x="100" y="357" on="0"/>
        <pt x="100" y="397" on="1"/>
        <pt x="100" y="470" on="0"/>
        <pt x="185" y="568" on="0"/>
        <pt x="267" y="580" on="1"/>
        <pt x="293" y="704" on="1"/>
        <pt x="347" y="704" on="1"/>
        <pt x="323" y="584" on="1"/>
        <pt x="385" y="584" on="0"/>
        <pt x="437" y="566" on="1"/>
        <pt x="422" y="519" on="1"/>
        <pt x="375" y="532" on="0"/>
        <pt x="323" y="532" on="1"/>
        <pt x="241" y="532" on="0"/>
        <pt x="159" y="464" on="0"/>
        <pt x="159" y="401" on="1"/>
        <pt x="159" y="362" on="0"/>
        <pt x="207" y="316" on="0"/>
        <pt x="256" y="290" on="1"/>
        <pt x="293" y="270" on="0"/>
        <pt x="339" y="237" on="0"/>
        <pt x="370" y="186" on="0"/>
        <pt x="370" y="149" on="1"/>
        <pt x="370" y="86" on="0"/>
        <pt x="286" y="4" on="0"/>
        <pt x="205" y="-6" on="1"/>
        <pt x="181" y="-128" on="1"/>
        <pt x="127" y="-128" on="1"/>
        <pt x="150" y="-8" on="1"/>
        <pt x="76" y="-5" on="0"/>
        <pt x="18" y="22" on="1"/>
      </contour>
    </TTGlyph>
    <TTGlyph name="dotaccent" xMin="241" yMin="536" xMax="354" yMax="647">
      <component glyphName="uni0307" x="0" y="0" flags="0x400"/>
    </TTGlyph>
    <TTGlyph name="dotbelowcomb" xMin="99" yMin="-174" xMax="212" yMax="-63">
      <component glyphName="uni0307" x="-142" y="-710" flags="0x404"/>
    </TTGlyph>
    <TTGlyph name="dotlessi" xMin="65" yMin="0" xMax="220" yMax="448">
      <contour>
        <pt x="151" y="396" on="1" overlap="1"/>
        <pt x="65" y="402" on="1"/>
        <pt x="75" y="448" on="1"/>
        <pt x="220" y="448" on="1"/>
        <pt x="130" y="0" on="1"/>
        <pt x="72" y="0" on="1"/>
      </contour>
    </TTGlyph>
    <TTGlyph name="dotmath" xMin="66" yMin="231" xMax="183" yMax="345">
      <component glyphName="period" x="32" y="241" flags="0x404"/>
    </TTGlyph>
    <TTGlyph name="e" xMin="45" yMin="-13" xMax="403" yMax="461">
      <contour>
        <pt x="76" y="334" on="0" overlap="1"/>
        <pt x="180" y="461" on="0"/>
        <pt x="267" y="461" on="1"/>
        <pt x="333" y="461" on="0"/>
        <pt x="403" y="383" on="0"/>
        <pt x="403" y="311" on="1"/>
        <pt x="403" y="266" on="0"/>
        <pt x="388" y="207" on="1"/>
        <pt x="113" y="208" on="1"/>
        <pt x="105" y="163" on="0"/>
        <pt x="105" y="135" on="1"/>
        <pt x="105" y="85" on="0"/>
        <pt x="153" y="38" on="0"/>
        <pt x="208" y="38" on="1"/>
        <pt x="257" y="38" on="0"/>
        <pt x="327" y="59" on="1"/>
        <pt x="333" y="12" on="1"/>
        <pt x="271" y="-13" on="0"/>
        <pt x="199" y="-13" on="1"/>
        <pt x="45" y="-13" on="0"/>
        <pt x="45" y="142" on="1"/>
        <pt x="45" y="177" on="0"/>
        <pt x="55" y="229" on="1"/>
      </contour>
      <contour>
        <pt x="338" y="260" on="1"/>
        <pt x="344" y="293" on="0"/>
        <pt x="344" y="318" on="1"/>
        <pt x="344" y="409" on="0"/>
        <pt x="265" y="409" on="1"/>
        <pt x="212" y="409" on="0"/>
        <pt x="144" y="338" on="0"/>
        <pt x="124" y="260" on="1"/>
      </contour>
    </TTGlyph>
    <TTGlyph name="eacute" xMin="45" yMin="-13" xMax="413" yMax="649">
      <component glyphName="e" x="0" y="0" flags="0x400"/>
      <component glyphName="acutecomb" x="0" y="0" flags="0x400"/>
    </TTGlyph>
    <TTGlyph name="ebreve" xMin="45" yMin="-13" xMax="432" yMax="641">
      <component glyphName="e" x="0" y="0" flags="0x400"/>
      <component glyphName="uni0306" x="0" y="0" flags="0x400"/>
    </TTGlyph>
    <TTGlyph name="ecaron" xMin="45" yMin="-13" xMax="440" yMax="647">
      <component glyphName="e" x="0" y="0" flags="0x400"/>
      <component glyphName="uni030C" x="0" y="0" flags="0x400"/>
    </TTGlyph>
    <TTGlyph name="ecircumflex" xMin="45" yMin="-13" xMax="412" yMax="649">
      <component glyphName="e" x="0" y="0" flags="0x400"/>
      <component glyphName="uni0302" x="0" y="0" flags="0x400"/>
    </TTGlyph>
    <TTGlyph name="edieresis" xMin="45" yMin="-13" xMax="438" yMax="645">
      <component glyphName="e" x="0" y="0" flags="0x400"/>
      <component glyphName="uni0308" x="0" y="0" flags="0x400"/>
    </TTGlyph>
    <TTGlyph name="edotaccent" xMin="45" yMin="-13" xMax="403" yMax="647">
      <component glyphName="e" x="0" y="0" flags="0x400"/>
      <component glyphName="uni0307" x="0" y="0" flags="0x400"/>
    </TTGlyph>
    <TTGlyph name="egrave" xMin="45" yMin="-13" xMax="403" yMax="645">
      <component glyphName="e" x="0" y="0" flags="0x400"/>
      <component glyphName="gravecomb" x="0" y="0" flags="0x400"/>
    </TTGlyph>
    <TTGlyph name="eight" xMin="17" yMin="-11" xMax="432" yMax="586">
      <contour>
        <pt x="98" y="-11" on="0" overlap="1"/>
        <pt x="17" y="58" on="0"/>
        <pt x="17" y="115" on="1"/>
        <pt x="17" y="131" on="0"/>
        <pt x="20" y="147" on="1"/>
        <pt x="30" y="196" on="0"/>
        <pt x="100" y="276" on="0"/>
        <pt x="152" y="305" on="1"/>
        <pt x="100" y="351" on="0"/>
        <pt x="100" y="404" on="1"/>
        <pt x="100" y="415" on="0"/>
        <pt x="104" y="435" on="1"/>
        <pt x="117" y="500" on="0"/>
        <pt x="227" y="586" on="0"/>
        <pt x="298" y="586" on="1"/>
        <pt x="359" y="586" on="0"/>
        <pt x="432" y="522" on="0"/>
        <pt x="432" y="467" on="1"/>
        <pt x="432" y="456" on="0"/>
        <pt x="428" y="432" on="1"/>
        <pt x="420" y="391" on="0"/>
        <pt x="362" y="310" on="0"/>
        <pt x="311" y="279" on="1"/>
        <pt x="355" y="254" on="0"/>
        <pt x="397" y="200" on="0"/>
        <pt x="397" y="164" on="1"/>
        <pt x="397" y="152" on="0"/>
        <pt x="394" y="137" on="1"/>
        <pt x="386" y="98" on="0"/>
        <pt x="327" y="30" on="0"/>
        <pt x="233" y="-11" on="0"/>
        <pt x="175" y="-11" on="1"/>
      </contour>
      <contour>
        <pt x="78" y="140" on="0"/>
        <pt x="78" y="128" on="1"/>
        <pt x="78" y="89" on="0"/>
        <pt x="134" y="41" on="0"/>
        <pt x="190" y="41" on="1"/>
        <pt x="239" y="41" on="0"/>
        <pt x="304" y="75" on="0"/>
        <pt x="335" y="126" on="0"/>
        <pt x="335" y="151" on="1"/>
        <pt x="335" y="177" on="0"/>
        <pt x="286" y="223" on="0"/>
        <pt x="219" y="259" on="1"/>
        <pt x="186" y="279" on="1"/>
        <pt x="135" y="252" on="0"/>
        <pt x="89" y="190" on="0"/>
        <pt x="81" y="153" on="1"/>
      </contour>
      <contour>
        <pt x="162" y="387" on="0"/>
        <pt x="211" y="332" on="0"/>
        <pt x="275" y="299" on="1"/>
        <pt x="352" y="354" on="0"/>
        <pt x="368" y="431" on="1"/>
        <pt x="370" y="447" on="0"/>
        <pt x="370" y="454" on="1"/>
        <pt x="370" y="490" on="0"/>
        <pt x="327" y="534" on="0"/>
        <pt x="283" y="534" on="1"/>
        <pt x="242" y="534" on="0"/>
        <pt x="187" y="498" on="0"/>
        <pt x="162" y="443" on="0"/>
        <pt x="162" y="416" on="1"/>
      </contour>
    </TTGlyph>
    <TTGlyph name="eight.dnom" xMin="108" yMin="-198" xMax="358" yMax="134">
      <component glyphName="uni2078" x="26" y="-512" flags="0x404"/>
    </TTGlyph>
    <TTGlyph name="eight.numr" xMin="82" yMin="314" xMax="332" yMax="646">
      <component glyphName="uni2078" x="0" y="0" flags="0x400"/>
    </TTGlyph>
    <TTGlyph name="eight.osf" xMin="17" yMin="-11" xMax="432" yMax="586">
      <component glyphName="eight" x="0" y="0" flags="0x400"/>
    </TTGlyph>
    <TTGlyph name="eight_fraction_nine" xMin="41" yMin="-199" xMax="407" yMax="646">
      <component glyphName="eight.numr" x="0" y="0" flags="0x400"/>
      <component glyphName="fraction.alt" x="0" y="0" flags="0x400"/>
      <component glyphName="nine.dnom" x="0" y="0" flags="0x400"/>
    </TTGlyph>
    <TTGlyph name="ellipsis" xMin="-83" yMin="-10" xMax="332" yMax="104">
      <component glyphName="period" x="-117" y="0" flags="0x400"/>
      <component glyphName="period" x="32" y="0" flags="0x400"/>
      <component glyphName="period" x="181" y="0" flags="0x400"/>
    </TTGlyph>
    <TTGlyph name="emacron" xMin="45" yMin="-13" xMax="421" yMax="628">
      <component glyphName="e" x="0" y="0" flags="0x400"/>
      <component glyphName="uni0304" x="0" y="0" flags="0x400"/>
    </TTGlyph>
    <TTGlyph name="emdash" xMin="-3" yMin="262" xMax="476" yMax="314">
      <contour>
        <pt x="-3" y="262" on="1" overlap="1"/>
        <pt x="8" y="314" on="1"/>
        <pt x="476" y="314" on="1"/>
        <pt x="465" y="262" on="1"/>
      </contour>
    </TTGlyph>
    <TTGlyph name="emoji.eyes" xMin="94" yMin="378" xMax="444" yMax="518">
      <contour>
        <pt x="114" y="378" on="0" overlap="1"/>
        <pt x="94" y="409" on="0"/>
        <pt x="94" y="433" on="1"/>
        <pt x="94" y="465" on="0"/>
        <pt x="128" y="518" on="0"/>
        <pt x="150" y="518" on="1"/>
        <pt x="167" y="518" on="0"/>
        <pt x="188" y="487" on="0"/>
        <pt x="188" y="463" on="1"/>
        <pt x="188" y="430" on="0"/>
        <pt x="153" y="378" on="0"/>
        <pt x="132" y="378" on="1"/>
      </contour>
      <contour>
        <pt x="350" y="465" on="0"/>
        <pt x="384" y="518" on="0"/>
        <pt x="406" y="518" on="1"/>
        <pt x="423" y="518" on="0"/>
        <pt x="444" y="487" on="0"/>
        <pt x="444" y="463" on="1"/>
        <pt x="444" y="430" on="0"/>
        <pt x="409" y="378" on="0"/>
        <pt x="388" y="378" on="1"/>
        <pt x="370" y="378" on="0"/>
        <pt x="350" y="409" on="0"/>
        <pt x="350" y="433" on="1"/>
      </contour>
    </TTGlyph>
    <TTGlyph name="emoji.eyes.angry" xMin="48" yMin="378" xMax="507" yMax="518">
      <contour>
        <pt x="59" y="518" on="1" overlap="1"/>
        <pt x="243" y="478" on="1"/>
        <pt x="230" y="414" on="1"/>
        <pt x="181" y="427" on="1"/>
        <pt x="174" y="405" on="0"/>
        <pt x="146" y="378" on="0"/>
        <pt x="132" y="378" on="1"/>
        <pt x="114" y="378" on="0"/>
        <pt x="93" y="409" on="0"/>
        <pt x="93" y="432" on="1"/>
        <pt x="93" y="438" on="0"/>
        <pt x="95" y="450" on="1"/>
        <pt x="48" y="462" on="1"/>
      </contour>
      <contour>
        <pt x="307" y="478" on="1"/>
        <pt x="507" y="518" on="1"/>
        <pt x="496" y="462" on="1"/>
        <pt x="428" y="446" on="1"/>
        <pt x="442" y="445" on="1"/>
        <pt x="437" y="417" on="0"/>
        <pt x="405" y="378" on="0"/>
        <pt x="388" y="378" on="1"/>
        <pt x="371" y="378" on="0"/>
        <pt x="351" y="406" on="0"/>
        <pt x="349" y="427" on="1"/>
        <pt x="294" y="414" on="1"/>
      </contour>
    </TTGlyph>
    <TTGlyph name="emoji.eyes.smiling" xMin="31" yMin="384" xMax="479" yMax="512">
      <contour>
        <pt x="121" y="512" on="1" overlap="1"/>
        <pt x="185" y="512" on="1"/>
        <pt x="223" y="384" on="1"/>
        <pt x="166" y="384" on="1"/>
        <pt x="147" y="448" on="1"/>
        <pt x="137" y="448" on="1"/>
        <pt x="92" y="384" on="1"/>
        <pt x="31" y="384" on="1"/>
      </contour>
      <contour>
        <pt x="377" y="512" on="1"/>
        <pt x="441" y="512" on="1"/>
        <pt x="479" y="384" on="1"/>
        <pt x="422" y="384" on="1"/>
        <pt x="403" y="448" on="1"/>
        <pt x="393" y="448" on="1"/>
        <pt x="348" y="384" on="1"/>
        <pt x="287" y="384" on="1"/>
      </contour>
    </TTGlyph>
    <TTGlyph name="emoji.mouth" xMin="3" yMin="130" xMax="454" yMax="256">
      <contour>
        <pt x="54" y="130" on="0" overlap="1"/>
        <pt x="3" y="179" on="0"/>
        <pt x="3" y="220" on="1"/>
        <pt x="3" y="236" on="0"/>
        <pt x="6" y="252" on="1"/>
        <pt x="6" y="256" on="1"/>
        <pt x="70" y="256" on="1"/>
        <pt x="69" y="248" on="1"/>
        <pt x="66" y="235" on="0"/>
        <pt x="66" y="224" on="1"/>
        <pt x="66" y="207" on="0"/>
        <pt x="85" y="190" on="0"/>
        <pt x="107" y="190" on="1"/>
        <pt x="323" y="190" on="1"/>
        <pt x="377" y="190" on="0"/>
        <pt x="390" y="254" on="1"/>
        <pt x="390" y="256" on="1"/>
        <pt x="454" y="256" on="1"/>
        <pt x="452" y="246" on="1"/>
        <pt x="441" y="191" on="0"/>
        <pt x="371" y="130" on="0"/>
        <pt x="316" y="130" on="1"/>
        <pt x="100" y="130" on="1"/>
      </contour>
    </TTGlyph>
    <TTGlyph name="emoji.mouth.grinning" xMin="-10" yMin="66" xMax="454" yMax="254">
      <contour>
        <pt x="41" y="66" on="0" overlap="1"/>
        <pt x="-10" y="115" on="0"/>
        <pt x="-10" y="156" on="1"/>
        <pt x="-10" y="172" on="0"/>
        <pt x="-7" y="188" on="1"/>
        <pt x="6" y="254" on="1"/>
        <pt x="454" y="254" on="1"/>
        <pt x="440" y="182" on="1"/>
        <pt x="429" y="127" on="0"/>
        <pt x="358" y="66" on="0"/>
        <pt x="303" y="66" on="1"/>
        <pt x="87" y="66" on="1"/>
      </contour>
      <contour>
        <pt x="53" y="171" on="0"/>
        <pt x="53" y="160" on="1"/>
        <pt x="53" y="143" on="0"/>
        <pt x="72" y="126" on="0"/>
        <pt x="94" y="126" on="1"/>
        <pt x="108" y="126" on="1"/>
        <pt x="122" y="194" on="1"/>
        <pt x="58" y="194" on="1"/>
        <pt x="56" y="184" on="1"/>
      </contour>
      <contour>
        <pt x="236" y="126" on="1"/>
        <pt x="250" y="194" on="1"/>
        <pt x="186" y="194" on="1"/>
        <pt x="172" y="126" on="1"/>
      </contour>
      <contour>
        <pt x="310" y="126" on="1"/>
        <pt x="364" y="126" on="0"/>
        <pt x="377" y="190" on="1"/>
        <pt x="378" y="194" on="1"/>
        <pt x="314" y="194" on="1"/>
        <pt x="300" y="126" on="1"/>
      </contour>
    </TTGlyph>
    <TTGlyph name="endash" xMin="98" yMin="262" xMax="375" yMax="314">
      <component glyphName="hyphen" x="0" y="0" flags="0x400"/>
    </TTGlyph>
    <TTGlyph name="eng" xMin="19" yMin="-197" xMax="406" yMax="452">
      <contour>
        <pt x="94" y="375" on="1" overlap="1"/>
        <pt x="107" y="448" on="1"/>
        <pt x="159" y="448" on="1"/>
        <pt x="153" y="391" on="1"/>
        <pt x="189" y="418" on="0"/>
        <pt x="267" y="452" on="0"/>
        <pt x="303" y="452" on="1"/>
        <pt x="348" y="452" on="0"/>
        <pt x="406" y="405" on="0"/>
        <pt x="406" y="352" on="1"/>
        <pt x="406" y="331" on="0"/>
        <pt x="400" y="302" on="1"/>
        <pt x="339" y="-7" on="1"/>
        <pt x="325" y="-80" on="0"/>
        <pt x="258" y="-168" on="0"/>
        <pt x="187" y="-197" on="1"/>
        <pt x="169" y="-147" on="1"/>
        <pt x="218" y="-128" on="0"/>
        <pt x="268" y="-67" on="0"/>
        <pt x="280" y="-11" on="1"/>
        <pt x="342" y="301" on="1"/>
        <pt x="348" y="328" on="0"/>
        <pt x="348" y="347" on="1"/>
        <pt x="348" y="375" on="0"/>
        <pt x="320" y="400" on="0"/>
        <pt x="289" y="400" on="1"/>
        <pt x="225" y="400" on="0"/>
        <pt x="143" y="332" on="1"/>
        <pt x="77" y="0" on="1"/>
        <pt x="19" y="0" on="1"/>
      </contour>
    </TTGlyph>
    <TTGlyph name="eogonek" xMin="45" yMin="-197" xMax="403" yMax="461">
      <component glyphName="e" x="0" y="0" flags="0x400"/>
      <component glyphName="uni0328" x="-43" y="0" flags="0x400"/>
    </TTGlyph>
    <TTGlyph name="epsilon" xMin="32" yMin="0" xMax="429" yMax="448">
      <contour>
        <pt x="339" y="0" on="1" overlap="1"/>
        <pt x="83" y="0" on="1"/>
        <pt x="96" y="64" on="1"/>
        <pt x="352" y="64" on="1"/>
      </contour>
      <contour>
        <pt x="58" y="192" on="1"/>
        <pt x="122" y="192" on="1"/>
        <pt x="96" y="64" on="1"/>
        <pt x="32" y="64" on="1"/>
      </contour>
      <contour>
        <pt x="96" y="384" on="1"/>
        <pt x="160" y="384" on="1"/>
        <pt x="134" y="256" on="1"/>
        <pt x="70" y="256" on="1"/>
      </contour>
      <contour>
        <pt x="134" y="256" on="1"/>
        <pt x="326" y="256" on="1"/>
        <pt x="314" y="192" on="1"/>
        <pt x="122" y="192" on="1"/>
      </contour>
      <contour>
        <pt x="173" y="448" on="1"/>
        <pt x="429" y="448" on="1"/>
        <pt x="416" y="384" on="1"/>
        <pt x="160" y="384" on="1"/>
      </contour>
    </TTGlyph>
    <TTGlyph name="epsilontonos" xMin="32" yMin="0" xMax="429" yMax="704">
      <component glyphName="epsilon" x="0" y="0" flags="0x400"/>
      <component glyphName="tonos" x="0" y="0" flags="0x400"/>
    </TTGlyph>
    <TTGlyph name="equal" xMin="24" yMin="186" xMax="449" yMax="390">
      <contour>
        <pt x="24" y="186" on="1" overlap="1"/>
        <pt x="34" y="236" on="1"/>
        <pt x="418" y="236" on="1"/>
        <pt x="408" y="186" on="1"/>
      </contour>
      <contour>
        <pt x="65" y="390" on="1"/>
        <pt x="449" y="390" on="1"/>
        <pt x="439" y="340" on="1"/>
        <pt x="55" y="340" on="1"/>
      </contour>
    </TTGlyph>
    <TTGlyph name="equivalence" xMin="13" yMin="130" xMax="461" yMax="446">
      <contour>
        <pt x="13" y="130" on="1" overlap="1"/>
        <pt x="23" y="180" on="1"/>
        <pt x="407" y="180" on="1"/>
        <pt x="397" y="130" on="1"/>
      </contour>
      <contour>
        <pt x="50" y="313" on="1"/>
        <pt x="434" y="313" on="1"/>
        <pt x="424" y="263" on="1"/>
        <pt x="40" y="263" on="1"/>
      </contour>
      <contour>
        <pt x="77" y="446" on="1"/>
        <pt x="461" y="446" on="1"/>
        <pt x="451" y="396" on="1"/>
        <pt x="67" y="396" on="1"/>
      </contour>
    </TTGlyph>
    <TTGlyph name="estimated" xMin="43" yMin="-13" xMax="408" yMax="461">
      <contour>
        <pt x="254" y="-13" on="0" overlap="1"/>
        <pt x="195" y="-13" on="1"/>
        <pt x="115" y="-13" on="0"/>
        <pt x="43" y="76" on="0"/>
        <pt x="43" y="149" on="1"/>
        <pt x="43" y="186" on="0"/>
        <pt x="51" y="229" on="1"/>
        <pt x="71" y="329" on="0"/>
        <pt x="184" y="461" on="0"/>
        <pt x="272" y="461" on="1"/>
        <pt x="342" y="461" on="0"/>
        <pt x="408" y="381" on="0"/>
        <pt x="408" y="310" on="1"/>
        <pt x="408" y="274" on="0"/>
        <pt x="398" y="222" on="1"/>
        <pt x="392" y="191" on="1"/>
        <pt x="391" y="191" on="1"/>
        <pt x="158" y="191" on="1"/>
        <pt x="149" y="142" on="0"/>
        <pt x="149" y="110" on="1"/>
        <pt x="149" y="74" on="0"/>
        <pt x="176" y="41" on="0"/>
        <pt x="208" y="41" on="1"/>
        <pt x="256" y="41" on="0"/>
        <pt x="313" y="58" on="1"/>
        <pt x="320" y="7" on="1"/>
      </contour>
      <contour>
        <pt x="288" y="247" on="1"/>
        <pt x="302" y="319" on="0"/>
        <pt x="302" y="352" on="1"/>
        <pt x="302" y="381" on="0"/>
        <pt x="284" y="407" on="0"/>
        <pt x="266" y="407" on="1"/>
        <pt x="231" y="407" on="0"/>
        <pt x="188" y="334" on="0"/>
        <pt x="169" y="247" on="1"/>
      </contour>
    </TTGlyph>
    <TTGlyph name="eta" xMin="15" yMin="-192" xMax="408" yMax="452">
      <contour>
        <pt x="103" y="448" on="1" overlap="1"/>
        <pt x="169" y="448" on="1"/>
        <pt x="165" y="402" on="1"/>
        <pt x="198" y="425" on="0"/>
        <pt x="270" y="452" on="0"/>
        <pt x="303" y="452" on="1"/>
        <pt x="351" y="452" on="0"/>
        <pt x="408" y="404" on="0"/>
        <pt x="408" y="349" on="1"/>
        <pt x="408" y="325" on="0"/>
        <pt x="402" y="295" on="1"/>
        <pt x="305" y="-192" on="1"/>
        <pt x="233" y="-192" on="1"/>
        <pt x="329" y="291" on="1"/>
        <pt x="335" y="320" on="0"/>
        <pt x="335" y="340" on="1"/>
        <pt x="335" y="366" on="0"/>
        <pt x="312" y="388" on="0"/>
        <pt x="284" y="388" on="1"/>
        <pt x="226" y="388" on="0"/>
        <pt x="153" y="328" on="1"/>
        <pt x="87" y="0" on="1"/>
        <pt x="15" y="0" on="1"/>
        <pt x="92" y="383" on="1"/>
      </contour>
    </TTGlyph>
    <TTGlyph name="etatonos" xMin="15" yMin="-192" xMax="408" yMax="704">
      <component glyphName="eta" x="0" y="0" flags="0x400"/>
      <component glyphName="tonos" x="0" y="0" flags="0x400"/>
    </TTGlyph>
    <TTGlyph name="eth" xMin="41" yMin="-8" xMax="411" yMax="647">
      <contour>
        <pt x="286" y="619" on="0" overlap="1"/>
        <pt x="317" y="586" on="1"/>
        <pt x="387" y="629" on="1"/>
        <pt x="409" y="594" on="1"/>
        <pt x="343" y="554" on="1"/>
        <pt x="411" y="461" on="0"/>
        <pt x="411" y="342" on="1"/>
        <pt x="411" y="302" on="0"/>
        <pt x="401" y="247" on="1"/>
        <pt x="376" y="121" on="0"/>
        <pt x="262" y="-8" on="0"/>
        <pt x="179" y="-8" on="1"/>
        <pt x="114" y="-8" on="0"/>
        <pt x="41" y="72" on="0"/>
        <pt x="41" y="143" on="1"/>
        <pt x="41" y="176" on="0"/>
        <pt x="48" y="208" on="1"/>
        <pt x="67" y="305" on="0"/>
        <pt x="177" y="414" on="0"/>
        <pt x="249" y="414" on="1"/>
        <pt x="307" y="414" on="0"/>
        <pt x="354" y="381" on="1"/>
        <pt x="346" y="462" on="0"/>
        <pt x="299" y="526" on="1"/>
        <pt x="211" y="472" on="1"/>
        <pt x="188" y="507" on="1"/>
        <pt x="272" y="558" on="1"/>
        <pt x="250" y="582" on="0"/>
        <pt x="216" y="609" on="1"/>
        <pt x="249" y="647" on="1"/>
      </contour>
      <contour>
        <pt x="99" y="167" on="0"/>
        <pt x="99" y="138" on="1"/>
        <pt x="99" y="44" on="0"/>
        <pt x="184" y="44" on="1"/>
        <pt x="247" y="44" on="0"/>
        <pt x="322" y="149" on="0"/>
        <pt x="343" y="251" on="1"/>
        <pt x="351" y="296" on="0"/>
        <pt x="354" y="329" on="1"/>
        <pt x="333" y="344" on="0"/>
        <pt x="278" y="362" on="0"/>
        <pt x="251" y="362" on="1"/>
        <pt x="191" y="362" on="0"/>
        <pt x="120" y="270" on="0"/>
        <pt x="106" y="198" on="1"/>
      </contour>
    </TTGlyph>
    <TTGlyph name="exclam" xMin="130" yMin="-10" xMax="346" yMax="640">
      <contour>
        <pt x="268" y="640" on="1" overlap="1"/>
        <pt x="346" y="640" on="1"/>
        <pt x="244" y="192" on="1"/>
        <pt x="192" y="192" on="1"/>
      </contour>
      <contour>
        <pt x="138" y="77" on="0"/>
        <pt x="173" y="104" on="0"/>
        <pt x="196" y="104" on="1"/>
        <pt x="218" y="104" on="0"/>
        <pt x="247" y="79" on="0"/>
        <pt x="247" y="57" on="1"/>
        <pt x="247" y="52" on="0"/>
        <pt x="245" y="42" on="1"/>
        <pt x="239" y="17" on="0"/>
        <pt x="204" y="-10" on="0"/>
        <pt x="181" y="-10" on="1"/>
        <pt x="159" y="-10" on="0"/>
        <pt x="130" y="16" on="0"/>
        <pt x="130" y="38" on="1"/>
        <pt x="130" y="42" on="0"/>
        <pt x="132" y="52" on="1"/>
      </contour>
    </TTGlyph>
    <TTGlyph name="exclamdbl" xMin="37" yMin="-10" xMax="439" yMax="640">
      <component glyphName="exclam" x="-93" y="0" flags="0x400"/>
      <component glyphName="exclam" x="93" y="0" flags="0x400"/>
    </TTGlyph>
    <TTGlyph name="exclamdown" xMin="102" yMin="-192" xMax="318" yMax="458">
      <contour>
        <pt x="180" y="-192" on="1" overlap="1"/>
        <pt x="102" y="-192" on="1"/>
        <pt x="204" y="256" on="1"/>
        <pt x="256" y="256" on="1"/>
      </contour>
      <contour>
        <pt x="209" y="431" on="0"/>
        <pt x="244" y="458" on="0"/>
        <pt x="267" y="458" on="1"/>
        <pt x="289" y="458" on="0"/>
        <pt x="318" y="432" on="0"/>
        <pt x="318" y="410" on="1"/>
        <pt x="318" y="406" on="0"/>
        <pt x="316" y="396" on="1"/>
        <pt x="310" y="371" on="0"/>
        <pt x="275" y="344" on="0"/>
        <pt x="252" y="344" on="1"/>
        <pt x="230" y="344" on="0"/>
        <pt x="201" y="369" on="0"/>
        <pt x="201" y="391" on="1"/>
        <pt x="201" y="396" on="0"/>
        <pt x="203" y="406" on="1"/>
      </contour>
    </TTGlyph>
    <TTGlyph name="f" xMin="-4" yMin="-199" xMax="428" yMax="648">
      <contour>
        <pt x="27" y="-135" on="0" overlap="1"/>
        <pt x="64" y="-68" on="0"/>
        <pt x="74" y="-10" on="1"/>
        <pt x="145" y="395" on="1"/>
        <pt x="68" y="399" on="1"/>
        <pt x="78" y="448" on="1"/>
        <pt x="155" y="448" on="1"/>
        <pt x="164" y="502" on="1"/>
        <pt x="176" y="576" on="0"/>
        <pt x="261" y="648" on="0"/>
        <pt x="321" y="648" on="1"/>
        <pt x="371" y="648" on="0"/>
        <pt x="428" y="636" on="1"/>
        <pt x="412" y="586" on="1"/>
        <pt x="360" y="596" on="0"/>
        <pt x="323" y="596" on="1"/>
        <pt x="279" y="596" on="0"/>
        <pt x="229" y="542" on="0"/>
        <pt x="222" y="501" on="1"/>
        <pt x="213" y="448" on="1"/>
        <pt x="362" y="448" on="1"/>
        <pt x="351" y="397" on="1"/>
        <pt x="204" y="397" on="1"/>
        <pt x="131" y="-14" on="1"/>
        <pt x="119" y="-83" on="0"/>
        <pt x="75" y="-160" on="0"/>
        <pt x="35" y="-199" on="1"/>
        <pt x="-4" y="-169" on="1"/>
      </contour>
    </TTGlyph>
    <TTGlyph name="female" xMin="64" yMin="-114" xMax="409" yMax="456">
      <contour>
        <pt x="190" y="48" on="1" overlap="1"/>
        <pt x="190" y="121" on="1"/>
        <pt x="133" y="127" on="0"/>
        <pt x="64" y="202" on="0"/>
        <pt x="64" y="258" on="1"/>
        <pt x="64" y="277" on="0"/>
        <pt x="68" y="294" on="1"/>
        <pt x="77" y="340" on="0"/>
        <pt x="136" y="414" on="0"/>
        <pt x="219" y="456" on="0"/>
        <pt x="265" y="456" on="1"/>
        <pt x="330" y="456" on="0"/>
        <pt x="409" y="378" on="0"/>
        <pt x="409" y="317" on="1"/>
        <pt x="409" y="300" on="0"/>
        <pt x="406" y="282" on="1"/>
        <pt x="394" y="225" on="0"/>
        <pt x="313" y="141" on="0"/>
        <pt x="258" y="127" on="1"/>
        <pt x="258" y="48" on="1"/>
        <pt x="354" y="48" on="1"/>
        <pt x="354" y="-16" on="1"/>
        <pt x="258" y="-16" on="1"/>
        <pt x="258" y="-114" on="1"/>
        <pt x="190" y="-114" on="1"/>
        <pt x="190" y="-16" on="1"/>
        <pt x="94" y="-16" on="1"/>
        <pt x="94" y="48" on="1"/>
      </contour>
      <contour>
        <pt x="133" y="226" on="0"/>
        <pt x="176" y="184" on="0"/>
        <pt x="211" y="184" on="1"/>
        <pt x="244" y="184" on="0"/>
        <pt x="303" y="220" on="0"/>
        <pt x="340" y="280" on="0"/>
        <pt x="340" y="315" on="1"/>
        <pt x="340" y="349" on="0"/>
        <pt x="298" y="392" on="0"/>
        <pt x="263" y="392" on="1"/>
        <pt x="230" y="392" on="0"/>
        <pt x="170" y="356" on="0"/>
        <pt x="133" y="295" on="0"/>
        <pt x="133" y="259" on="1"/>
      </contour>
    </TTGlyph>
    <TTGlyph name="filledbox" xMin="43" yMin="128" xMax="431" yMax="448">
      <contour>
        <pt x="367" y="128" on="1" overlap="1"/>
        <pt x="43" y="128" on="1"/>
        <pt x="107" y="448" on="1"/>
        <pt x="431" y="448" on="1"/>
      </contour>
    </TTGlyph>
    <TTGlyph name="filledrect" xMin="9" yMin="192" xMax="464" yMax="384">
      <contour>
        <pt x="425" y="192" on="1" overlap="1"/>
        <pt x="9" y="192" on="1"/>
        <pt x="48" y="384" on="1"/>
        <pt x="464" y="384" on="1"/>
      </contour>
    </TTGlyph>
    <TTGlyph name="five" xMin="19" yMin="0" xMax="441" yMax="576">
      <contour>
        <pt x="79" y="61" on="0" overlap="1"/>
        <pt x="140" y="52" on="0"/>
        <pt x="171" y="52" on="1"/>
        <pt x="237" y="52" on="0"/>
        <pt x="308" y="108" on="0"/>
        <pt x="319" y="167" on="1"/>
        <pt x="323" y="184" on="0"/>
        <pt x="323" y="202" on="1"/>
        <pt x="323" y="237" on="0"/>
        <pt x="278" y="267" on="0"/>
        <pt x="229" y="267" on="1"/>
        <pt x="199" y="267" on="0"/>
        <pt x="133" y="259" on="0"/>
        <pt x="98" y="253" on="1"/>
        <pt x="82" y="271" on="1"/>
        <pt x="155" y="576" on="1"/>
        <pt x="441" y="576" on="1"/>
        <pt x="431" y="524" on="1"/>
        <pt x="201" y="524" on="1"/>
        <pt x="149" y="310" on="1"/>
        <pt x="196" y="319" on="0"/>
        <pt x="242" y="319" on="1"/>
        <pt x="306" y="319" on="0"/>
        <pt x="384" y="265" on="0"/>
        <pt x="384" y="204" on="1"/>
        <pt x="384" y="187" on="0"/>
        <pt x="379" y="159" on="1"/>
        <pt x="363" y="77" on="0"/>
        <pt x="254" y="0" on="0"/>
        <pt x="171" y="0" on="1"/>
        <pt x="94" y="0" on="0"/>
        <pt x="19" y="22" on="1"/>
        <pt x="36" y="71" on="1"/>
      </contour>
    </TTGlyph>
    <TTGlyph name="five.dnom" xMin="97" yMin="-198" xMax="360" yMax="128">
      <component glyphName="uni2075" x="26" y="-512" flags="0x404"/>
    </TTGlyph>
    <TTGlyph name="five.numr" xMin="71" yMin="314" xMax="334" yMax="640">
      <component glyphName="uni2075" x="0" y="0" flags="0x400"/>
    </TTGlyph>
    <TTGlyph name="five.osf" xMin="-6" yMin="-128" xMax="416" yMax="448">
      <component glyphName="five" x="-25" y="-128" flags="0x404"/>
    </TTGlyph>
    <TTGlyph name="five_fraction_nine" xMin="41" yMin="-199" xMax="407" yMax="640">
      <component glyphName="five.numr" x="0" y="0" flags="0x400"/>
      <component glyphName="fraction.alt" x="0" y="0" flags="0x400"/>
      <component glyphName="nine.dnom" x="0" y="0" flags="0x400"/>
    </TTGlyph>
    <TTGlyph name="five_fraction_seven" xMin="41" yMin="-199" xMax="407" yMax="640">
      <component glyphName="five.numr" x="0" y="0" flags="0x400"/>
      <component glyphName="fraction.alt" x="0" y="0" flags="0x400"/>
      <component glyphName="seven.dnom" x="0" y="0" flags="0x400"/>
    </TTGlyph>
    <TTGlyph name="fiveeighths" xMin="41" yMin="-198" xMax="407" yMax="640">
      <component glyphName="five.numr" x="0" y="0" flags="0x400"/>
      <component glyphName="fraction.alt" x="0" y="0" flags="0x400"/>
      <component glyphName="eight.dnom" x="0" y="0" flags="0x400"/>
    </TTGlyph>
    <TTGlyph name="florin" xMin="-15" yMin="-197" xMax="462" yMax="648">
      <contour>
        <pt x="34" y="-126" on="0" overlap="1"/>
        <pt x="85" y="-65" on="0"/>
        <pt x="95" y="-11" on="1"/>
        <pt x="177" y="396" on="1"/>
        <pt x="102" y="399" on="1"/>
        <pt x="112" y="448" on="1"/>
        <pt x="187" y="448" on="1"/>
        <pt x="199" y="506" on="1"/>
        <pt x="213" y="578" on="0"/>
        <pt x="296" y="648" on="0"/>
        <pt x="353" y="648" on="1"/>
        <pt x="405" y="648" on="0"/>
        <pt x="462" y="636" on="1"/>
        <pt x="446" y="586" on="1"/>
        <pt x="394" y="596" on="0"/>
        <pt x="357" y="596" on="1"/>
        <pt x="314" y="596" on="0"/>
        <pt x="265" y="546" on="0"/>
        <pt x="257" y="508" on="1"/>
        <pt x="245" y="448" on="1"/>
        <pt x="396" y="448" on="1"/>
        <pt x="386" y="397" on="1"/>
        <pt x="235" y="397" on="1"/>
        <pt x="154" y="-7" on="1"/>
        <pt x="140" y="-80" on="0"/>
        <pt x="74" y="-166" on="0"/>
        <pt x="3" y="-197" on="1"/>
        <pt x="-15" y="-147" on="1"/>
      </contour>
    </TTGlyph>
    <TTGlyph name="four" xMin="27" yMin="0" xMax="412" yMax="593">
      <contour>
        <pt x="256" y="134" on="1" overlap="1"/>
        <pt x="27" y="136" on="1"/>
        <pt x="77" y="338" on="0"/>
        <pt x="258" y="558" on="0"/>
        <pt x="404" y="593" on="1"/>
        <pt x="403" y="590" on="1"/>
        <pt x="405" y="592" on="1"/>
        <pt x="325" y="186" on="1"/>
        <pt x="412" y="186" on="1"/>
        <pt x="402" y="134" on="1"/>
        <pt x="314" y="134" on="1"/>
        <pt x="287" y="0" on="1"/>
        <pt x="229" y="0" on="1"/>
      </contour>
      <contour>
        <pt x="267" y="186" on="1"/>
        <pt x="308" y="392" on="1"/>
        <pt x="331" y="509" on="1"/>
        <pt x="251" y="474" on="0"/>
        <pt x="137" y="313" on="0"/>
        <pt x="99" y="184" on="1"/>
      </contour>
    </TTGlyph>
    <TTGlyph name="four.dnom" xMin="126" yMin="-192" xMax="356" yMax="140">
      <component glyphName="uni2074" x="26" y="-512" flags="0x404"/>
    </TTGlyph>
    <TTGlyph name="four.numr" xMin="100" yMin="320" xMax="330" yMax="652">
      <component glyphName="uni2074" x="0" y="0" flags="0x400"/>
    </TTGlyph>
    <TTGlyph name="four.osf" xMin="2" yMin="-128" xMax="387" yMax="465">
      <component glyphName="four" x="-25" y="-128" flags="0x404"/>
    </TTGlyph>
    <TTGlyph name="four_fraction_nine" xMin="41" yMin="-199" xMax="407" yMax="652">
      <component glyphName="four.numr" x="0" y="0" flags="0x400"/>
      <component glyphName="fraction.alt" x="0" y="0" flags="0x400"/>
      <component glyphName="nine.dnom" x="0" y="0" flags="0x400"/>
    </TTGlyph>
    <TTGlyph name="four_fraction_seven" xMin="41" yMin="-199" xMax="407" yMax="652">
      <component glyphName="four.numr" x="0" y="0" flags="0x400"/>
      <component glyphName="fraction.alt" x="0" y="0" flags="0x400"/>
      <component glyphName="seven.dnom" x="0" y="0" flags="0x400"/>
    </TTGlyph>
    <TTGlyph name="fraction" xMin="4" yMin="-68" xMax="354" yMax="709">
      <component glyphName="slash" x="0" y="0" flags="0x400"/>
    </TTGlyph>
    <TTGlyph name="fraction.alt" xMin="41" yMin="176" xMax="407" yMax="272">
      <contour>
        <pt x="407" y="272" on="1" overlap="1"/>
        <pt x="407" y="227" on="1"/>
        <pt x="41" y="176" on="1"/>
        <pt x="41" y="221" on="1"/>
      </contour>
    </TTGlyph>
    <TTGlyph name="fraction.percent" xMin="28" yMin="187" xMax="458" yMax="453">
      <contour>
        <pt x="439" y="453" on="1" overlap="1"/>
        <pt x="458" y="408" on="1"/>
        <pt x="46" y="187" on="1"/>
        <pt x="28" y="232" on="1"/>
      </contour>
    </TTGlyph>
    <TTGlyph name="franc" xMin="-12" yMin="0" xMax="454" yMax="576">
      <contour>
        <pt x="50" y="174" on="1" overlap="1"/>
        <pt x="130" y="576" on="1"/>
        <pt x="454" y="576" on="1"/>
        <pt x="442" y="512" on="1"/>
        <pt x="190" y="512" on="1"/>
        <pt x="151" y="320" on="1"/>
        <pt x="339" y="320" on="1"/>
        <pt x="326" y="256" on="1"/>
        <pt x="138" y="256" on="1"/>
        <pt x="122" y="174" on="1"/>
        <pt x="256" y="174" on="1"/>
        <pt x="244" y="114" on="1"/>
        <pt x="110" y="114" on="1"/>
        <pt x="87" y="0" on="1"/>
        <pt x="15" y="0" on="1"/>
        <pt x="38" y="114" on="1"/>
        <pt x="-12" y="114" on="1"/>
        <pt x="0" y="174" on="1"/>
      </contour>
    </TTGlyph>
    <TTGlyph name="g" xMin="31" yMin="-196" xMax="431" yMax="456">
      <contour>
        <pt x="87" y="-196" on="0" overlap="1"/>
        <pt x="31" y="-181" on="1"/>
        <pt x="43" y="-135" on="1"/>
        <pt x="92" y="-145" on="0"/>
        <pt x="143" y="-145" on="1"/>
        <pt x="204" y="-145" on="0"/>
        <pt x="263" y="-98" on="0"/>
        <pt x="274" y="-45" on="1"/>
        <pt x="289" y="32" on="1"/>
        <pt x="243" y="-8" on="0"/>
        <pt x="183" y="-8" on="1"/>
        <pt x="112" y="-8" on="0"/>
        <pt x="47" y="77" on="0"/>
        <pt x="47" y="147" on="1"/>
        <pt x="47" y="187" on="0"/>
        <pt x="56" y="229" on="1"/>
        <pt x="76" y="327" on="0"/>
        <pt x="179" y="456" on="0"/>
        <pt x="268" y="456" on="1"/>
        <pt x="335" y="456" on="0"/>
        <pt x="367" y="408" on="1"/>
        <pt x="380" y="448" on="1"/>
        <pt x="431" y="448" on="1"/>
        <pt x="416" y="384" on="1"/>
        <pt x="330" y="-46" on="1"/>
        <pt x="301" y="-196" on="0"/>
        <pt x="144" y="-196" on="1"/>
      </contour>
      <contour>
        <pt x="108" y="172" on="0"/>
        <pt x="108" y="134" on="1"/>
        <pt x="108" y="87" on="0"/>
        <pt x="146" y="43" on="0"/>
        <pt x="189" y="43" on="1"/>
        <pt x="253" y="43" on="0"/>
        <pt x="302" y="95" on="1"/>
        <pt x="355" y="360" on="1"/>
        <pt x="327" y="405" on="0"/>
        <pt x="269" y="405" on="1"/>
        <pt x="209" y="405" on="0"/>
        <pt x="138" y="316" on="0"/>
        <pt x="118" y="219" on="1"/>
      </contour>
    </TTGlyph>
</ttFont>
